<mxfile host="Electron" agent="Mozilla/5.0 (Windows NT 10.0; Win64; x64) AppleWebKit/537.36 (KHTML, like Gecko) draw.io/24.7.8 Chrome/128.0.6613.36 Electron/32.0.1 Safari/537.36" version="24.7.8">
  <diagram name="Seite-1" id="n6M9LTKScj0L-yvQ_t2Y">
    <mxGraphModel dx="1877" dy="621" grid="1" gridSize="10" guides="1" tooltips="1" connect="1" arrows="1" fold="1" page="1" pageScale="1" pageWidth="827" pageHeight="1169" math="0" shadow="0">
      <root>
        <mxCell id="0" />
        <mxCell id="1" parent="0" />
        <mxCell id="62kFi7w3qv66KEbBx7CK-72" value="" style="group;rotation=90;" parent="1" vertex="1" connectable="0">
          <mxGeometry x="633" y="143" width="228" height="190" as="geometry" />
        </mxCell>
        <mxCell id="62kFi7w3qv66KEbBx7CK-1" value="" style="shape=image;aspect=fixed;image=data:image/png,iVBORw0KGgoAAAANSUhEUgAAAOQAAAC+CAIAAACqIDRLAAAACXBIWXMAABJ0AAASdAHeZh94AAAgAElEQVR4nO29V4xk15kffs7NoXLo3JNzIIccShxSJikxSF5ptdKusWstsH5ZwYYDjLWfbb8IsF/8sjZgGAusIGD//4Ukyt61KZErJolmGDEMNTOc3DPTOVR3V666ORw/fF1n7lTqquqq7p51/zAYdFXdcO69v/udLx98//59tIc9PArgbqzc+Oj+Rzktt9Mj2cMeNgE3vT79+hevF7XiTo9kD3vYBFxRL86sz2iGttMj2cMeNgH30Cdmh0axhz10gABZMUJiPXv3sIfdAtIoWdmWGw+Fhr525GtfP/51nuE/mPng7am3Z/OzPZ+aZ/moHJ2ITRwbOiZxUs/H2cOOYKm0NJObyZQzuq1v20kbBCluuenpkdOHU4fzev5+7n7RLHrEa7NxexxMHrxw4MLTB54eCg2lQimO2ZPnjxhKZilbzd5dv/vjz3+8Wl61PXsbTtoFS2JKTBGU1erqe/ffc323aPToQOBZ/iuHvvK989/70r4viZzY20H2sOPwfG+5tEwI+etLf71cWu7XYQ8lDh1OHU4oCfqNT/yCXvj1/V93QdbF4uKx1LF9sX0nhk5cXrrseE4PQ8EIR6TIc4ef+3vDVIx7nF8IIf0dyTaDZdjx2PifffXPLs5cXKusub7bl8MeSx/73VO/e2rkVDqURgSVzBJCqGSUPpr9qAuyXlq8VLEq3zzxzX/7/L999+67r1599fba7W6HgjHel9iXCqX+3jCVYRiGYehHQgilL3xED/MSvvR93/f9R52vDGZCYmhffN/t1dv9iiu9OfXm23ffHg4N/5sX/g1C6Bc3fzGkDv2rr/wrjHAXZD01fEripHfvvVu1q4+PPR6X4z0MhcHMiaETQSH/qAB4CUQM/o8eFq51grZuS/olxphlWUpWUoPv+4O8iIFAERSe5ft1NEKIRzzXd23XHo+Of3nfl1VeNRyDINIFWQ8mDp6fOB+VooqgrJRWKlalt9Goglp3bQQeFtpdYoYBoYkZVKNXU3b2hjoSUwEMQpoQ4hOfILLbpC/GmGnwxtO71Edotvb21NvfOP6NsfBY0Si+evVV13e7IGtWyxaNoiqomXLmg5kPVsor/RoZIcRFroe8fh2wZ2CEWcyyDAt/gCjFCG+dnZuct4G7mGCCCMLI932PeD7xfbTzQhcTLOHt8DPqjv7p/KcCKwyHh9er65eXLndH1o/nPv547uNBjIwg4iLXJtvh/mgKoCODGRazDMvwDM9iFnfgmWsUe20EYSPjW70DGGMWswghlmE94iEPeb7n+R5BGxJ304ENCCxiB03WmByLy3GZlxFCS6WlpdISIUQV1KyW3XNwIowwwzAKpwiM0CFHAX4NQYJ6XvP5AVRe+jd8ZNnWMZja2DjMcRwnIcknvuM7pmvavr3bVKY+4uvHvv5Pzv+TM6Nn6DeO59xavfW9//97XZBVYIWYEBsJjYyHx+dL8/OV+Yrdo9q6S4AxFhhBZEWe4RnMYIRbMZVaP8E/wBjqXKekPA7qvhuaRu0PasPVDxVhBjMCI/AC7/quTWzTNX2y84pBh5B4aSwy9tTEUyzz0Pt5c/XmbH4W/FOAd+++e3X5qiIo9BtCiOEYlmt1RFaMcFyKXxi7cDJ1Mi2nI2KkZJbmK/NXVq98sf6F5jxiGVsYYZZheYbnGI7DHIe5VvYBJaXneUBTFLDcex5AcF/f96nCGqRs0CNGhw1bMizDEpbDnOM7ju94xNtVRlhTsJiVeXk0Msoy7GRsUuGVrJYNi2FFUHRbD5JVFuS4Eld4Jbi77ugYd+C6wgiLrPjUyFOvHHjlePK4xG6oLKfsUyk55fruZ5nP+nthAwWLWY7hBEbgWZ7DXKMoDXqRghjQeBp5zzyMOkcEoroBy/EMb/u267uu7zp+LzGabYPruyWjdDd7d398/1hkTOKk+eJ8VIoOh4fDUji4ZVyOH0kdGQ4Ny7ycUBLgdOIY7vLS5c3JyjFcXIq/cvCVo4mjMifDe+95XkSMPDH8hOEal9cug+4/qAvtExjMMIgRWEFiJZ5p4hekHPU8j0rT7R8nfTeoXgv/11EWIQSU9RjP9m3iEp/4u1YxcDynZJYylcxkbBKm9YJRkDipbJZt9yHDumJVCnphKDQ0EZs4nj7+26XfIoTOj59nMbs5WUVWnIxMToYnZVbmOE5VVVmWi8WiaZoxMXYodigpJXNmrl/RtsFBYASZlXmGb6oUEkJc13Ucp5WFtP0ghHie53ke0JTjOJ7n63QDhBCLWYmVRFasOlXLs3YnXyVeemz0sT//zp9/sfLFTH4mqSb/5Mk/CQmhH7z9g5XKQz7Qufyc7dkJJfGHj/8hi9nPFz+3XOv8+HnUSSKLyInj4XGe5V3XFQRBlmWO40KhkOu6tm3zDJ+QE0Wr6KJdSlaMMMdwCqdwDMcitpGpvu+7ruu67hY10cEBBuY4juu6LMtyHAeClm4ApmGID4msaLqm5Vm7baLzfG+uOPeDd35wP3u/YlVCYmg4NGx79t3s3ZJRCm55Yf+FV469cih56Ief/vBbJ771p1/606pdvbJ8xSPe5mR1fbdiV3zie55XrVYZhonH47lcznVdhmFc3y1ZJY/sFmlUB1BPQUNtDL14NQxUK+0Xgso06AYcxwUpyyCGZ3iGYzjMWb7lEnf3vHs8yyeUxNHU0cPJw5ACVbEq/+OL/2E4Rt0g80b+0uKlSwuXrq9en8vPpdSU7dkLxYWOggKma84WZ9f1dVERbc0uFArFYrFQKMRiMY/zFioLOSPn+buOrBhhnuFFVhRYgXvYjoS747ouZeoOjbEXgG7g+z7DMIQQYC2qucMYxDAMw2KW8RnLsxzf2SVagcAKaTV9cvhkWAxrtoYR1mztJ5d/0vg6LRQXFouLmq0hhOYL88GfNier5Vlz5bnfZn4rjUuyL+fz+UwmoygKJ3Pz5flPlz+1PKuPV7V1gIuHxazCKeBApT9RGx8h5DjObou8dw6gLFwOOA2CigGDGYVTWMwarmF79m6I07IMyzLsenU9r+eXy8thMTwRnWjq1G5TetCRn9X13R/f+rHu6i/ue/HIkSOmacqyfCV75a3Zt36z9JueL2BAYDAjsmKIDzW6pTzPsyzLcRyGYQRB2LVKaodgWRbmB4wx2BLB7AKBETieMxlTc7XdIF8931urrjGYWSguxOV4Ukl2q1d3RFaCiOEab868+dnKZwkpkRST6+b6urGeN/KmZ/Yy8IFBZEXwTAWZChLItm0w9qnyB1b2I8rXB/lZvo8Q0nWd53lBEDjuwTNlMCOxEsdwhmvYvr2DlDUdc7G0qDu65VhFs5hUk1Wr2nQ8STWZVJIIoXvZeyInpkNpFrOr1VXDNjoNt/rEzxm5gllYYBdUXq3a1d2jD1FIrARMrZv6wXHhui6d9+FLjuPAZ7xzQ+4R4Mmi7x5CiGoFPM8HPVwMZnjMYw5jF9u+vVOmsOEYy6Xlteqa67mu7xaMQqacaTqYY6ljx9LHlsvL93P3f+/07x1NHyWEzORnfnb1Z90lsvjEN13TdHeXNEUIQdy80Y3qeR54Tx3HqZOg4M2AEFEfhWubZMJ+nYVGB+qsQ9/3qSIedG+BrUk4gj1se7ZLdsDJ6PruRiyK5YZDw5OxSYmTlkvLjXmhk7HJg4mDWT17IHHgmf3P+MR3fferh7/65u03uyCryIoqryq8wjO84zsVu6I7+m6I8mGMeYYPcSGGYYKzv+d5tm3btt1UdoIcogG5Hk7a1fdwxsZfe2AwjBkmisajgRbL87wkSUGrS2AESNbxvR0IdGGMBVZIKslUKHVm+MxjY4+xDHtx9mLjnQdTLCyGv3nim7Zn//LOLyVO+v6Xvx8SQ12QdX90/7Njz3559MujodHFyuKv5n71ycony9W+lTX2DJERQ3wIEkApfN83DKPpE6VwXRdjzPN8t2RtzJCifoamh9rwKz2cntJzJRac2jTNVjsSQmzb9n1fkiSefzDVcJiTOZnBTMXZ7nQ5juEmY5Pf//L3nz3w7Fp17a2pt16/+XpTSTebn31s9LE/+wd/FhJDP3j7B1PrU88eeFbkxLXqWkdkZRn2uYnnXj7w8vHEcZVXecwfjh1OK+lDsUO/nPnljeyNfl9ap8AYy6wssVKjkmqa5qY+VJoJwHHcppkAwdpAcNA2qhab0q6uWguOCaozdaC2PwIIy8ZTN8LzPNM0fd8XRTHo1RJZEWOsOdp26q8YYY7lRiIjBJGF4sJMfkZztKbegGuZa1kt+8s7v7Q9+172XskofTz3cU7L2Z69OVlZho2L8Rf3v3g2fTYiRBBCLMtyHifz8vmR8xW7soNkBaZyzIPkKdDbwJzqRGKB30cUxaYSLpi2hzGGg6NarkkPM3jdLrhW6Qpn4Xk+mPDV9Piwi+turncC+23bJoSIorgRO0CYxazIiD7nm665bfqr67urldW//vyvj6SPhMXw0/uePjV06r//5r83FvTvi+17fOzx0cioyInnxs7N5men89OXFi75vr85WQVGGA2NHo0fDfNhhmFEURQEwbIsy7JScupU6lRCSmx/xJXBDM/wMitDvRR8Cf4pYGqHx6HyrM6NFeQo/aZD4dc54ICoZt3TAYAID4YwAFAQ2/kYgNZwTEEQqN4CLi1CCPHI9jw4aFTxzt13bq3dOpo6emLoBBSuNOL40PEnxp/wkf+liS9N56ZDYkiztTtrd1AnflaBFdJKmsOc53mCIITDYVEUNU2zbZtBTIgPjYXGNEfbTgfQhkXFh4JVKMBUy7K6HQkhxLIsURRRTdACYMKF5w3heEIIwzCDCM8CO8GWRwixLAsVL1Siw2Ysy0I6S1cHB30AIcTzPDW5WMxKnIQwMlxjO+0tKKv6cPZDgRWa9kmJStGqXb04e/Hk0Mlba7d0R1cFFX7qwsCCC45EIggh0N8xxh7xoKa7HxfSKURGVDk1GPGHCRpUtG6PRkOXVCvlOI5mtVJZC9cLQaO+XUkN1ClB8xao8Qe6AZyUkB6LswkhYJCJokgLvyCplxCiu9vXXA3geq7rtbyNRb14e/V2xawsFBeCfdA6yg1YrCxW7IoiKaVSaXV1NRqNZrPZRCIhq3LZLi9WF7fTgQUxqmApDzDVMIytyDxw97AsS/U89LCKCWK1MZ20L6DeqOCXkBZIxTzLspZl9XyN4CJACMmyDMKVEAK5sD7xdza+FcTU+pTESwWj8KPPfpSpZFRB1Z2Nd2lzstqendEyHy199MLkC2E2bNv26uoqwzA+8qfyU+8vvL+diSwc5qC+j87+NEDV81MEfRHmd2rftNm+75oA1VAbf6JhYVR7W3ieB09qDyeCtxoMDxov4BhO5mTP8QgZbJ+RiBR58ciLMTkWFJZ3s3dvrd5aq67Rb6bWp1iGNV3zt4u/dX2XZ3ma08c56+uo7a33iV+1q+8vvM8x3LHIMYEVfN9HLFoqLF3OXv5k+ZMBXVsjGMRIrATObfiGMhWM9G5B533Q5Db1XtFc0v5mwNCztzkv6CTBNNbecnB937csCxQM6h/gGV5kRELIQJ0DUSn6vXPfK1vlsBgWWKFslRFCk7FJzdaCZI1IkaOpo7TB1GJp8V72HlQUcub0NPE2uWaf+HcLd6t29UTyxNH40ZAQWius3czdnC5OF61tWjkD7qnESUHnP82i6uGAwFF4/OA33XQXyMfrxCnbFeqsqFaAN5OqBCBfu1VhgfeGYQBfqXyVOdlH/kCDWzIvn588/9MrP2UwIylStppFCO2L7UupqeBmR1NHv33q22dGz4xGRl3Pff3W669eeRXa/3CIENSZ8F/RVjJa5r359xBGiKBtNqpYhg0L4aDzn8aoeuMNmBrg2+98L8h37uF0bUBn+Q4HAFkNoiiCet2Dwef7vmmawFf4hjqzDM/o9mhd4X7uvud7IidW7Sp8U5fA+tadt967/97R9NH/9Dv/aaW88vqt1y8tXoKfOPXsWfzB+8jtqHXPBkG3PaWOZ3iFUyC0Dd8AU3uTcAzDSJJEfVI9jAdUzL4IV+og62ov8NOxLAvSsYe5BSYlhBDlK8dwIiu6yO2t8+6mKJmlV6+8+rXDX/N8r6AXQkIIIfTG7TeuZ64HN0uoia8e/uofPvaHS8Wlj+Y+ylQyEi+ZjokQ4hhVRR13HQsL4bgU5xhOd/SiWdyeZFZQAARGqAtTUa9kF4eqzaHUluqBcJ7n0SN0u28jQE73cCi4dqrCdhKADQLeVSg/DBpbEpEGRVaj9JMrP5mITjieQw3822u3gx0uEEKHEofOjJyJSlHTNU8OnXQ8xyf+3fW7qEM/K0ZY5dUDsQNHYkfGQmMcw2mOtlhZvJu/O1+eH3TIDpgaVABg+uuNqfBselY6QecDTbcvPgGaQ93DvvDCwOsXDFZ1vrvjOCzLCoIA37CYFRhBYAXH7476ncB0zWsr166tXGu/meEYt9dur1ZW4WPVqtIq/47IymDmWOLYtw5/68nhJ6NiFCGEMV6prvx67tdvTL+xVF3awiVsfmqJkwRWoN+AltmDogZ+H1TLU+55SKRWYtDzESjAHbEVIQ0vD1TpIIS65SsoA+C5g29YhlU5teJUdiTtFSE0V5hbKi8ZjoEQikpRwzGq1oZ22xFZOYb77rHvnhs6F+JDYIFyHDcaGn1h3ws+8n/4xQ8HN3SJlXj8UI1K00zqTQF6ar/6rNCQ7FYOBZIebTkpm0bgwHsKnv/O94UMNUmSqCdLYASO4Xaqv8v5ifMjkREQwN888c2rK1c/nPkQjLDN4zEyJx+NH90f2S+zMsY4FAqNjIxAFCStpE8mTyakRF0uab/AIEZkxWCwqjdVlWVZWZbBP9WX2Q2E2RbdAjSVti9DglYdwTm9Q0Bkq24YCqs07bC0DRiLjMXluGZr//LZf5lSU09NPPXVw1+FnzYnq8AKI+qIwivEJyzLhkIhWZYVRWEYhsNcRIwk5WRdH8O+gMGMzMnB3mlgAnf7dMFk7jmpryloUt8Wj7MVhbURcIFU2+lqx7oEIGgOwnWz5ES/IHBCUk3ui+0Li+Gp7FTFqoDfAHW1WivEiiBu3kNyU7eAtKBgKj6kd3QlVrduUTUFHGormitNQezvqODmcBxX16xlU9RNWeCB2RHhulZdQwSdGz/3+eLnd9buzBXm8noeftr81XE8Z1VfrdpViZcqlYqmaalUKpPJyLLMCmzFquTNfN87sjCIYTFbl1fVbRoHDSr2HDjY9Pg9s42aVv0dEqm1vYCc484nE+rJoloEx3A8w5ueuc3Rn5urN6NS9OTwyb+9/reWY+m2Tpda2Zysuqvfyd+Zyk9FR6OWac3NzUFxz4EDBwzPuJW7lTP6swBSEBzD0UawqGZDdOv6hnTjAbVdAU2A47iuDBoKyEkYxFsEfIWWg101RawjK9QUQAvY/o6wPWbzs0WjeD1zXREUyBLsgqwIIdd3f3LrJ4ZrnE+fP378uGVZsiyvO+sfznz4zuw7gxgx6Ez0IzhWO9+9rkpkAANEtG9Pb7vjXqtqOwQ0EGhVwNgUVCIEY1oSK20zWc9PnH/p6EuPjT5WNIshIfT+9PtvT729UFxAHZLVJ/5CZeHvpv/udu52SkqJjGj65oq2Ml2azuiZvg8XtKWgtgrl/50fARQASAYFPg0ivb9nB1a/3LStDg4xArh8juM6v3V1ZIXaIQ5zHtm+ZtEHEgcEVnj16quGYxxKHpI46XDycBdkRQi5vnsnf2emNBPiQwqvaI4GTVkGMVzo9k8/AlM7Zxu1XWzbpul/fYzmU9Digm41jd7yATYFfXloUThE2jo/F/i/wDGHa+XjIisaXn1jysFB4RXTMT9f/Nz1XNM1TwydiEgR+KkL3wQ4iotWMW/mBzNOhGp2aNC0AidA50cAgkLggJZPQaUK6uvyvlQ77FZtBSr0VwcAmsKbQ+16XGv03vkNBP9gMDtbZEXL376G2kWjOBmbfOnoS67nJkNJz/Po+utdkDUqRTmGq9pV6J05IMBiVPQjfdc73J2KVfp4qJiBB9DH8lTgPegbXb0DW49+NR4QhGhdDTrUP3YVeoAYQV1qdmMf5sHhWuba/sT+f/2Vfz0UHpovzP/osx/dyGzU+nOd37LTI6cPJg9mypk377w5oIHCexwka6vmP63QKmUOPF/QAaqx2mmL6EoB7bvCCrKTJvfUPVB42wVBoIVl7QHTBW0EBl+KjOgTf3uyBVbKK69eefXdu+/yDG97dlbL0rQsznM7pYIqqkklCRkGgwPHPOTN7lZbRQHfeB3gGVCtoF9hAlKrz+7waNCSsi/SnZqPMO83HQN1sXUuy0mguTZ8w7O87W9TR7ezo2cv7LswEZuAjzcyNz6Z/2RqfQohxHW8+OPAsTHj1DKsSWC1tA6PAFZwG97QNFaY5npOaaWgSU+d+6H6kryCaqFaVDNA2xwQeNyVV8R13WDMdmPxZX87uAJL6iWUxDP7n7mzfsdyrZXyygZZg71ndxaQDEDVo24TNKmbpj1pqNiAkEF7cncCsLE6n9m3Hqeos6U2fUnAjQVe5w5PQcUEXBfLsBzDsQxL/IH7BK4sX1koLjw5+eTh1OHXb73uei7P1lxpgz5352AwI7BC0L3aueFCJ8TOZzqoNASK9zxmANNiwdWmW27xXLjWyw1SNToU59Q50OFZSG0JLvqRw9z2pAokleS3Tn3rP7z0H8JieDw6Tv1WqCtvAEIopaYmohMc5vJG/uryVag57AvoIurU99wtWUVR7DZ7EIQHxBi3sg4WTcJqf3YwzHsroaZHgIoa6D3TbZ41ZXmH20NzcPjIYnZAiaB1OJY+xmL2zz/4c4VXjqSOTOvTtEirC7KuVdYWigtjkbGh8BBCKJi9v3WwmMUMpkwFY6grHQCc4d3WIdElBmilSm/F+MHoQ6P4pK8BmO09vBI0LuXV0O0RaIygw+3rbgWDma7Wt+8ZM/mZ9ep6wShwDHcjcyOrZ2lXgS7IulBc8ImfUlOEkLJVpsUGfQGDmbocq259qz1b95TiwDbgU+e74wAo+1FAIaGTLxNYrb2rV4KqGdSh0fm+FPDCdO7iJbUehkxgeYJgZHFAgMgqYLG0GPypG8laXQt2zugvICeQfuyKrNQY79lqAZWDtrvq0EtAOYpqUfU2xWGQA45qamuH4V9Kbogeb9HdRmeADjUB6qOFj7CC4Q4uqrWLXAHBcoNWvtKmgCfaW1+WICBwADUwwaVdWp0Uykpt29Z1fdPHD3O3aZrQnwIa/m/qqKfvYQ/FPE3HgGqrZ3WyPam1j90YDGY4zO3gqrC7gqw1AfWgfKVb3bGPoUvf93VdhwWlWgl48JU6jqNpWrfxW3glwHaBXhtN3wpwU5Da+sL9il+gbnwCdZeP0WDTGjfFriArwzCNi1Z2vi/uoFFU54DZGQrqG2Nd1B6nk34PNAJ2wgsJDdTrLpmmZncbFunw6jpUmumLtJHUgjGDGMJ08XT6i91BVsxg5sHr3pVRD1ZR3xv8Ui8BpBPQIUEqDCxbsBUZE3RkQjgN7J5gml/PtlT78/rdNEIktToZmoTV9yycztEdWVmG3VhnmuEwwo7vWJ7l+q7ruVtUZYI+ka50gEax1C9Q+UeFH2Ar3eAaAaWXoihCGAzgNVsKpi8gtVUIOxTYNJ4c/GaLA2Mxy7O8wAoCK2CEPeI5nmN79qaNfrsgK0Y4Kkb3x/ZPRiZTSopjuDVtbbowndWz69r6VhKxgx3XUJdkHegrDo9K13UgE3jjt27J1QFSnDiOEwRh6zK7PagDq/NdgpoA2nJ+I0Y4JIZGQ6P7ovv2x/ZjhMtWeaW6Ml+anyvOtc+a7WBpIcyqgvq1g1/7yuRX9kX3CazAszxIVtd3Lc9yPGddX3/7/tufLH2yWl3t7RqCzubO313cTbPIrYCmckPnvUEcHyEE4aWd0gibos4h0IOTmELm5JPpk9898d0DsQMKr4BkRQiBZHU8x/Ks9+fe/9XMr+7l7zU9wiZkVXjlcOLw1w9//czQmQOxA2Eh3HSz8ch4RIwciB24uHDx0vKlbi8j6ApoZR03RX+bRLQBmFl98R81BbwJhmGAB2DQFne3cdrg9j0k43IMNxYee2rsqRcOvHAqdSoqRYP2dBAyL4+GRj9Z+uTS8qWcnqvTLduRNS7Fzwyf+dqBr71w4IW6Rr715+Dk0+nTSTmZUlIhIfTZ0mea02k1Qd3Fd2VdDU5hDYLqkYNYp4WCEGJZVnD1ysGdCBwCncxgW9dQOYY7kTrx7OSzz0w+czp9ug2LEEL7o/sTUmI0PBqVov9n9v/kjFyw/2ZLsjKYOZU+9d3j333hwAv0S494ru+CBgO9ryEEByMYCY28dPClo4mjeSM/lZvqcPHsumfT1a0B//ZAyUoDsP11ITUi6B8YtLnt1Zb76tDG2spghtShVw698o0j30gpKXpAl7iu72KwqwnCGLOYhVhuWAyfGzk3rA7bnv3h3IdZI0vP3pysGGGZl185/MqFiQvB73Vbzxk50zMFXvB8jxAismJKTsHytQghkRMPxg/+ztHfMVzjbu5uh9cT5GtXt2bQQghOIQhCpVIZqFilgOXjOI7ruxkXBCEE/HGdbFy3WbcG1vP7n//S+JcoUxFCju8UzMK6sc4xHMMwxCc8w8fEWFyOgzbIMdxoePRPn/jTxfJiySrZ3kY9ZnOyciz3R6f/6HT6NE2tsjyrZJVkST6eOB6UrIQQ27UzxUxEiKi8ihBiGfblQy/PFmdzei5vdF0H29VLvD3ePng223Mu13XpOqsDAlWcugpldetDQCC5Yge/euCr+6L76Jd5Iy9J0mhidIKdoIYKeMqns9PDyjB04mEZNqWkXjr4kmZrN9dvwmZNborACmPhsWcnnh0Jj2yY24joni6Lssqpvu17lufbPo94mZdVUQ1JoeHYMMEEem9jhONS/MLEhdNDp7u6NsC20aITgBQZUKuspqgLGg3uLNswKcXE2J889iei0AAAACAASURBVCdHEkckTkIIecTLm/mwGo6pMVVSVUEVWRF7GBiFfDQUHtJcDZY7hBqnZyafeWz4sagUhQM2IavCKydSJ8Yj4zInI4Rc3y1bZZZhZUZGLqrWUKlUIAVY4IRkKMkLPMEPnuip9KmjiaM9XGG3knWgNAJPTYd1of0CaK4DFa5oa/eZ5pq1AYOZiBR5dvLZiBhBCPnEd32XYZmIElFFlUGM4zjVAEzdVLDCs7zlWXTFgfHw+IH4AapCNFEDVEE9nT4tciJ8dH23YBXGQ+Ou5Wqapus6pNIpigLWgKIoCCFVUg1kOI4DFTPgGRBYgSocrbANr3jP2H7JimpZ0t2m1Q4UPRSNCawQFaMSJ4Ex4/qu7dvpSBro4bqupmlAU2gRIoqioiiRcCTn5ip2ReEVOE5ciifl5H10HzUlq8RK+6L7aMENy7CqqBq6gQleWVm5du1aPp+fmJg4c+YMJGhCh++wGDZMY11fHwuPwY4RMTISGpkvzfd2g3YDaJh+m/dFg3+HB318VVBHw6P0LKZnlp3yhDjBYAbyzjRNI4TcuHFjfn6eYZgDBw6cO3euWq26yGW4B7NKXIq3k6wiJ05EJihZeZZP82mtoi3ML1y9evXatWuu6y4tLamqGgqFYClR8A56xAuWlofF8HBouFuydtX+fNCluZAl04Nc4Xkeqmdp++XO9/UDa7B0Od4uAPe5q0hhq49NERWjh2KHHkTRCaKhVPBYW5a1sLBw5cqV1dVVhNDq6mo8Hh8bG5NCEsc/eKwgWeFv7sb1G3VOGY7holKU6kwcy6mqqkrq0uISiG6EkGmatm3LspxMJmkhMugl9DgiK4b40KZXZRiGJEm0Sh38mh2+97hW6tnJxj2g52VagQowth5SUgZ9Xd2eIli+SwiB1Qnbv0ssw0q89CBHGfkeqa0XzHHhcBghND09DYolQqhSqXieF4/HRVV0XAfVeCTzMlUJmhS8e8TTHT0shOFEPvEd4oTD4bGxsZGRkbt375qmGQ6Hh4aG0ul0KBSiQci6bH/Hdwx3k/YtELbBtf5hKFD6035HFPAoDS4oQPM4u2WbX+vAs5UFtwYdmev8FPQSCCGO45imCfU/bXZxPKdiVZrm4kE5McdxExMTsVisUChgjJPJ5L59+5LJpOEZpm1ytTk/mI3FnTp96vXF1y3nQX6G6ZizhVlYSRAhZLt2sVSURXn//v3nzp0rFouFQmFsbOzEiRPJZJI+DJ/4HMOBqxVQMksr1c1rtaFJE8uy0DjN76YTG0SwBueup9Nxt5yDF7i33ta4Vng40LgAzXboZGNIQqcJDI7jbCqSNVtbqaxQsrKY5fHG5AkiRhTFEydOPP7442DzHDt27OTJkyzLrq2vVYxKUtyY+gtmIadvtFZvckrd1e/k7pweOg3i13Kt+dL8WHwsLIcvXLhw4cKDmFYwj91yLUSQyj0ga8EozBXnNr0RJJCWD7rv7vEP0DB6b6XPvZnzW7TMBgH6/ti2bVlWJ69f1amuVFfoljzDh/gQIQThBwndiqL88R//cXAv13V1S9dt/QFZjULWyMLfTZx5lmstlBdofqrMyYdjh1eLqyW9FKwzruvxm6vkqkaVOrwqVoUue7wpQJo6jtPVmg1oW9xeQNbtfH+oVbdtZ9wU8ICgn2aHD8hyrWD8UmAFiZPuZO7A8mtwwCB/QGyvFFYELAwrw3THglnI6q3JWrWr11avLZWXIBMFFqS0LTtXyhW1ImQHQ/mRX+tzNp+fdx1XZmWaU3Nl9crN7M1ObgQcgSbgdX470ODDrTASQRC2k6xQgLUNCmuHW4IJAbKJ9q3ZdHef+CWz9M70O0WziKA3FCOE2NB6eb1iVlBtWqbrVRmWkSlmDNPgEEeD/Jlq5l7+Xqa6sRRAEzXA9uylytKH8x/GpNiB2AH4UmREz/XylXxJL4mcKHACIcTxHNd3McGmaYb4EIhVQsi6vv7p4qe3s7c7uRfUSILVQuAa/K0tL9EvwNi6XVNqK8ADWB+r6VlQB3wltUaOoKHSJMkOx1a2yv/7zv8eVodPpU/JvMxgJiyES3aprJctxyKYCKzAsZzt2rZre57nez6HOBaxCCGCiOu7nyx+cnPt5iartbi++9b9tw7GD0J+KkYY9NeCWSiYhbAUDkkhj3iGbViOxSEOqlzgHI7vfLb02dXVq+vaeieXRPUKuC8gVIC4u0F/heFtA4EAnbvttoJOpADV9Kg0Cc54ndwKwzU+X/7846GPY1LsYPwgzLpRIVqxKmvams/4ITEkcqJmaVWzigmejEzSa3c9d6my9M7MO/cKD6oGmpOVELJcWX5v9r2ElLgweYF6y+JSPC7FNzbCKCSGkPjQjr7vl63yT2/89G6+0/xA3/fpi+7X2v6T2nIAtF94q3EOutiS1PpFwis0oLNQ0MWtB3cK3MFCniA4gj6QIFm7UlF+PvXzodDQeGQc0lkQQmExHBZrJScESYKUFJJ1e5Wt8mt3Xrufvx9sXt3OAXFp6ZLruSWr9ML+F0RObJ/jjRDKG/krmSt/c+tv5kvzrtfFigu0OoVqAsBCKM+nDvam++IBLygFoxJFcaA+MgB46btt8NHbiVqdhU5xlJqk1sALbnK3GVtFs/jandeqdvUbh78xGhrddF/Hc6byU3939+/enX63YBaCP7Uja8WuXFu7pjv6fGn+xYMvTkQm6MvRiNvZ2xcXLl5cuAg1Ap1XZgf1J1ADQLLiWisy+EhXyQnuSzvjDTTng9RWZYGXZ0BnYWqLzG9DlU7TzkV0rqf3HNVmuaBRRWezDk/n+u5sYfYN942F0sJz+597cvTJqBhttXGmmvls6bOLixevr10P1ggANnHtFs3itbVrK9WVolk8kToxpA6FxXBICEmcxCDGcI2iWaza1YpduZq5emn50nRhusNroNjI466B3pegxKWNVGkjPrrx9ii1oJAghLptFtQhMMbQTahDL+bWT1dn0VOBGnztqWIWdDD1kL5ouMZMYWa1ugpV++ORcZVXFV6JSTGMsO3buqNXrWrFrtzO3v506dOp3BTNEgxi89Cw7dnLleVXb7w6Fh6biEyMhEZGQiMxMcYybN7Iz5fnM9VMpprJG3nL7aVMGWPse76PfQjfURUW/qBc9GvrkwdF7DY8V1SzrhiGgaydvqe3AlOhQIDehEFfWp2pBDStew9BygbzXYCsvVmBuqNfXLg4XZgeCY2klFRSTh6IHWAwozlaVs9mqpmV6spcca4pTQFdpEosV5aXK8vdDnFT0IUA4DlRbYnqo0E5Cr9CuAsUhr6Ppw4Mw9AFizHGkMXb3+JBCDXDOtZwroHqx0F7lNSqFBunC6oPgPFApcMWS3BBtPW2786vKcAwjOu51CCj0rRVgIBGECCIQNs4DmJsMDWDTkxjy5FIBCjVl1NAGjus/IZq3S54nqdr/PUXtIdmXVCqbjNqY9V9D2Td5pAexQ6TlSr7lm0Fv6R/17n3AFTBos12+h4+gEmfdr2kNgf8IcuyKIpbfEMwxqIoyrIcXL+FBGqw4BSDoAU0QWoVLKQzGB1nUBnTNK0T59cgwC0sLOxs+QTP8477UMYndZ3SEDlN1QvuCOyBFVeg0xiuYSvjwbWlJZt20KBKG8Rg6wLcXZ2C53lItKvzAJDA2lrBt2UrF4UCdVQYY5iUmmoyQabS7emvPvFh+eadIevMzMzOkpXmnvnEr3PlBvnaSsbAswTeMDWgXnNcKI1w61VeYbTQwJrjOGgDGHT3tD8+UBCYihqa8wSvC/xlTG0p2t74GhTY4GAhrdsTkYdXFKJj3hgS2ThCVwtp9BHM8ePHd3bdto1cSURs90FpIa4tug4f/baLt1C+BhWDHh4tSGhRFFEHy3DCkDDG4XA4HA53UuwPxw+Hw1AO5G22MiAdBqjOPbx+wFFIZ4MpCLfuZUuVK3qB4C6kG3ieZzt2f9saBLtHYoTbrwbDJZPJHc8X4XgOWcg0TYnfCDpQcUINT5jxQdLU7Q62Ks/z4KSkEg6kbJ1LoRWoQO1qQSzf92lxJji2UDO3OXxkaisCgxXV+SnAZyfLcie9toOO6rq5HtfW6mi6V/ANp37uIFkd19FNvY/GJULoUPKQ6ZoloySwwlh0DCNctat5PU8XFw5iVyyHyXO853sVvRILx+AbXCvxCXr16PxVd7Pg2QSTBEgthE2dtTSa0KjUAtGZ2tKm3YrkNoEJOmzKfrjb3bq9qOpMl/RuJFzQ/gsiOJhWzmnK1EYjL3irbceuGtV0NN1Hm+/lYy8vl5Zn87NHUkdePvaybusls/Tbpd++ceuNxo27ZqrMy+PRcZmXZV5mGdb1XOgMMF+YLxiFTXdvCp7nCSK6qZNg+/paWmdQLlImNfKVKmTkYXc3JW4dXwHUZYu24IqnmWJByRQkBx0DTSXrga80tgwpi8HU0iBavWw03NB45EYZ3NTJ7XiO5ViSKPVRsp6fOM9idqW8MhoZPTV86nrmelSOls1y0427JqsiKGdHzo5HxydiE4qgaJa2rq2nlNTPvvhZYal3srIs65qu67kcy1G+0qSWoPSiwjL4foPR06a5afB7OiODUhEs6+tNZlDPZd0ZGxnpOI4oip2rGXUALRk0Fr9WrNahbQdFV3U3h9QyieuGDYpHkJSu57quizASpX7qrCxmo1I0qSYZhrm8dPndu++eGDrRqjFK12R1XGetujYUHkooibSazuv5vJH/1qlvXVq8dHnpcm8j5gWeF3i/4mumFlbCsHobzM50yqvT9KmlDN8AFzuMrJBAzBDqiij7e3Z3d0I++sL0ZirR2RlUXiopO9FbcC0ZIDjOOj2Vfgkyu05hNSxDN3UGM4qi9JGsH0x/8MrxV7575rs5Pffv3vh3lmdFpIjpNG+W2jVZNVu7snzlzvodiZMeG3tsJj/zixu/+M7p72xlxBBsdFxnLb8mCzIrbJAV6EhvaPDekVo+YZBeVPC0d8aBlxS2byQZZS0KpH62oRfT5ZLsnXCr6fxedwrq7t00NosxFgShjtZNRbIfWLk96J8ihFS0StWoKpIiCv2UrK/dfO1a5lpEjGS17P3cfZ/4K+WVVisLdE1Wj3iarWm29tul345Fxr6878tDoaHl8jKtl+0BEH/neE4zNNdzBSLUaQJwl+vEHqllY9EJy/M88NW3IiscEKycVrMneTgaTs8Y/Ei/hCHBUpod8hV8tHXKZVM6Up271ZFhkPBKt2mlAfeHqtQkkApYdzoSsOSCjm3Hc2zHRghJshRcBGrrmIxNOp4zV5jjWO7ZA89ijMtmeam01Nwb0PNpbq/dDgth3dE5hvtk/pOZ3EzPh8II8zwvSmK5VDZsQ+AFntuoMQdNy6+ltjTyNWhykVr6S1PhSuNSqLUrnh4WNZvZG+kLpwOydnixfi3bsE4c9qDIUvWdLgbWKONhNqfUJDVnauO5gvStK9AwTMN2bZZjFUXp78LYXzv8tbnC3O2124eSh75+/Otls1yxKl+sfFG3xDCga7LyLJ+QE0k16RP/8tLld++921tmYP1heV6W5XKpXK6WZUEOkpV6Jf3ACs0UVL4iyIlxXY7jgOJ0G3iiIIFaWWCdoJHEcORuF8bAW1jzpHFIpOYUo3ylR6ZOFUhrJA+7qOqOE5zB6mJUZb1s2qYoi7Iib33MQTw58SRBZLm8fCR55OTQyavLV5Nq0nTMX6JfNm7cNVmTSvI7Z77zvXPfsz377am3//ba384WZmtzWO9ZcxzPSbJECCmUC9FQVJU3mmVQ5QluZatkSngAILEocf1aXgHk4DWd+7YCYGoPB6QSsTefQNMDQlcbQRDAZCQ15wadcCianpR+X6etIoR84leqFcu21LAqK3JfBSsihIismFbTQ+GhmdzMRzMfnRg+0YpIXZM1q2X/5xf/8+rS1X/xlX/x3TPffWriKd3R37v33m/mfjNfnO9ZynL8RjKeT3zTMi3bEoWNWkTQMiFQRD0DjXwltaQWuOmSJEH/MFjPspVE2Qpwr62G/VqheX+zMvxarEuSJNu2qb4BsdZWuk2dYgDWGL29nueVqiXXc+FN4Hm+v2rAazdfe+nIS88ceGa2MPvfLv433dFN12y11CB3/fr1rvJ8Xd/NalnN1qpWFaTp46OPs5jNVDKZSqZnsjKY4QVeURRd10taSRTEIFmpcEU1sdQ0PQ/kO/W8gMmPAgux9ja2VsCBKrGudvRrYff+kpVeI3j94EQ08bfNXkGmgmh44GDx3bXimuM6oiT2lp/QHhdnL65WVmNyLKtlp9anGMxUrEpLb0C3bgiREyHYMBIeKZvle9l7S8WlpfJSVssG+112DYw4jotEI5ZlgUsPAgQocAdBuJJAEUHTIwEVLMvaENV9nfob0cM7QFrHmbYO+jLDVAMitv1I6CXQBAn46PmeaZtVver7vqzIfVdYEUIpNZWpZKbWpyJS5LlDzwFZl0pLTTfmTp069frCQ10E20PhlVPDp/7R2X8ksMJCceF+9v6lxUsLxYWqXfX8LckJjuMisUg+l3ccx7RNwzbC8kZ1OdxEOpdRZbTVi04IAWZTo6rvIgH0ja1wDpSBvrOWylfo8rQpU6l0B7uKNspFCNmOXa6W4e7Jsgz9+PuLb5/69lxh7ubqzePp479/9vd1W89q2YtzF+cKTVr6da2zQi7fm3feLOgFzdYQQmExfDBxcLYwWzSKWxk3y7LhcFgQBNu2dVMvlAuUrCAq4Ceqe9EM5VYHhNAUbNxzaKrNaEktmNQDQN733Ky4FUggl6WT2T+4QZ1YRQiZtpkr5QghgiBIksQLfLMjbQnnJ86XzXLVqrIMqwrq5aXLKTU1GZ1sujGXy+W6erlDQujJiSf3x/crghISQjzDZyqZQ8lD//m9//z21NtbHDrDMGpItSzLtm1N10zbFHmRejeD0Vcq1drIV1QraYI2rribntqdYCuSFUQaGO99HAz1M7Qv6Q5yGr6hlijdxrRNzdAc10EIhSNhURKbH2tryOv5idjEN45/49TwqVurt6bWp+j6AI1gstks8bt4s4tG8Z2pd1678dpcYU7iJZe4/+v6/4rK0QcNYbaGSCQiiAIhxLTNtfwaXbqTaq51+QDt7Ru/lu0BMqy3KpRW2KJEBK5s/eUhtaZUkIGOEGofUWsawYJcouBgylq5WCnCQcKRMOSk9x0/v/nzolEcj44vlBZ+evWnV5evfjj74eeLnzfdmFNVtav75fhOwSgcTR3lMOf5nu/7VbtquRbtGL8VYIzVkCpJkq7prucWKoVoOMoyLHR/B+FaJxJohmurq/Brbd5odhVlSXup3AaN8dLeQPNaeuM9vRXUaYUCvf6agjSLYDEMU9d23bTNil4xLANjDIv+BBel6CM+mvmoaBRTamqpvHR58TLHcgWj0NIbMDExwdzowiGgCupjo4998+Q3y2Y5U85E5eiLR15cKC4U9B7zA+sgiIKqqlpV03XdduxSpSRwgixu2KE0+kpnT1KLSLWqNYXHY9s2Lf8H0DqCuiBqJ2iaE9gtQNLT16+rHVHA5USDIDCqTZladzrw8QXFKkGkUC0YpkEI4TguFosNboXOnJ57f/r9uBwfCg0RRCzXauP97Pp1YTHLs/wPP/3hrdVbHMudGTlzYujEf3znP84WZrc06gDCkbCu67quE0LWCmuqpFKyIsjUftjhAk+9jTMLNkAIAV9BkQ1GFylxOxxhMC+kZwDbIL21872aBqKAcKZptil6aTr7w00L9iggiHi+ly/mdVNHCHEcl0glBiRWKf7BoX/wT5/+p3/0//1Rq+RAQNeDsD17XVsfDY+uV9fni/Mfz318eely1apuupJg55AVWQ2pfJ4He7aklQRBCCsbOjGkynsNizfQCq1WnIM4JJSVBveFB099C5vqBrinlbGaokNXQHCup2KV/goaTnumogDLg1/SdUfoN47jZHIZyLHiOE5VVVVVByRWKXiGV/jNU2S6TxH0Pc3SxsbHnpp8qmyV76zfuZ+9fz933/GdLaQGPASGYWRZDkfC+VweIVTWygIvSKIEKymiWkJq40TcXn+lCgPNdAnKZvRwfJzqBszDbYRxrcNmv6w0sIoaHa7kYaAWzAYa0QbqTU/RVKaiWhw7qD65nls1qoVKARrkiJIYi8cYdjv6r2zaUBX1JllXKiu3124/f+h5RVBkXj4/fn42P3tx9uLd7N02XbW6giRJ0Vi0VCz5vm87dlkri4KYjqXh16DbNfgASKCisA1fSaDzevAB17ly6AbBQ9Hc0H45RyFNLHj2IDXbiF46wvYl3U0tKlTzVQVTAQkihmXkSjnojsOyrKIo4Wh4G5i6WFr89f1fbxpU6r6sxXNWK6u/sX/znTPf2R/fr/DKUxNPPT72eF7PL5YW+0VWXuBD4ZAaUqvVKvGIbug5nIsoEYHfyLEALc1/uEwPdWZvgVwE/bUVIeiXQW8upS+ctOlTbBNUa/o9aNsYYy+wEs6mbwIdTPs1w4L6Q91PjWLVduySViqUNwxlSZZC4ZAktezI2xfIvOz67s3Vm8ulZcd3GLwxjzV1CHRvYDFsTI49vf/p4dDwyaGTKTX1q7u/+nju44/nP95KsUAdwGMyPDJszVqWZ/nENywjk8+MpkYFbiM9BdKLoG1TnYCkc2ur4xNCLMsCfQAkZfvxBLkL2SH+wx05qdpQ9wd6uLlpHRHpT11lYFHp3kkPgaYaC1NrJxPcMlfK5YoPnmA0Eo3FYh0OqWccTR3N6/nl8nLVqiKEVFHlGd72bAiO1qFrssbl+ItHX3x89PE763d+fvPnlxYurWvruq33S6ZSsCwbjUZD4RCQw/XcfCmvympUjdLUbJCvpCHsSWodftqHrLxaA03oj7KpSKMKa1MR2OF02XgKmpezqR5MNwP9p/1o4eoajwlG1UO+KkIKlUK5Wga7CiEUDodDkZAgCp1c0Vbwz5/55xjjn9/4+Ru330AInRk+c3rk9Gp19Rc3f9G4cddkrdrVK0tX5vJzpmeuVdbWqmtbSrZqDYwxy7GpVAoSMgghUFHIYCYaitJFYoFqpOacoiA1p32b/IGgmgiJiKRtHUHdfN14tN6u1K/1PmlDVroBlFO3f69I69geW1s3ld4TmLVypRz0bYBzJVIJNdRdtKg3DIeH06G04RgyL7819VbJLI1Hx1NqqjlZs9lsV4atxEuHkoeSahLWEgI4nvPR7Eez+dmtjz4IjHE4Eg6VQ5ZpQRZVVa/muBzDMBE1AvYjGApNlTPycIVWq7PQGEFQK211T9r81DP8WvuTpr/SgVEvRPsB+LV6taZMBc9dkKmWba0X1qt6FTwALMuqIRV60Pbj4jbH/dz9TCXzxMQTcSXueI4qqK26pXBra2td3f2R8Mj3v/z9iBRxfIcG7g3HmCvM9Z2sCCGO56KxqGVZhXwB7j5YADzHq9JG6QtECxFCjZMjeTizuBUh4CdqSzG1tQxQQF7iWqp1368RNTOqGn1nnSi1TUMGAGBqsFMVIcR27EKlsF5Yp7dIEIShoaEBtTJuxEJx4YOZDz5f/Pzrx77+4pEXLde6tXbr0sKlphtzyWSSmevO5Wt79n/54L98Mv9JVsv2Y8CbIBKN2LZdrVRBuCKEStUSIeTI5BHqnKNhGGhAWXcEeH515cVBgHgONiyhbeCD6Z6DEKsA8nD7I1zrGVNnITVG74JHaJ/WA0UpwRnG871ipbi4+qCOlOO4UCiUTCe3h6kIob/85C8LRiFTyfzosx+9evXVA/EDa9W15XLz1QB2RRfB9mAYJhwJD48MLy4sUpO8qlfvLdzbN7JPFEQa+aDytal1T2fbOsoC0essaypl4QGDDdTYfqdfAGUUQq+4ltbd2GwQwmy04hdA6duKqXCBjUxdza+uFx6sAokxDoVDI2Mj28ZUhJDES39w5A8UXrmzfsd27aHw0N31u5qt9aeLYE7L/fzGz6dz08Gl3wYNURSjsaimaaViCejieV5Fr2SymXQ8HSyFhcvBGDemRVOhhQIlh8F5tk5/gD+oYANDDZwPdKrt2aiiA2YCQLWXpNHJRUfF1Ppm+rWKNKrFNh1Mo56KEPKJn8ll8qU8Nf8RQqFQKJ6ID6J2pSlYho1IkW+e+CbP8p7v/f6Z33d8J6flhkJDiqA0zY3m5ufnu5IWRaP46/u/rlgVWDN7e8AwjCRL6eG0bdm6rvu+TxDxPK9QLgDtFEmhW9J096ZuSPJw1jY4xtuYU/QIJJBViGslzkF/QnAv1KDstvfI0lhUe4cUPR3la5t3BgeawQeZ6rhOoVrIlXKW9SC/SRCEWDwWiUa2bZplMKPy6umR01+sfJHX8y8dfcknvmZrBxMHdVtvTtbl5eWu9DBYSjgshiNSJPh90SgOVNZCrlq1XPU8zzRNeDyO5+RKOYQQy7C0GhYoGHz89ZcQiBrAE+2kOoUeh4rD4Pd1tKZ8DXIRwAQ6b1InRuePgCbctN8R1yLSwUoVgojjOmWtvLS65HouLc9nGCYai0Zj0UHHq4IghNieXTSKGGGBFSpWxfZs3dY9zmslB7kLFy588OYHwRbp7RGTYy8ffTmtpqmnE/DL27+8tXZrq1fQFhjj4dFh13Vdx4VyC4SQ7di5Us7zvcmRSQYzoL/iWv+VxvgWBXxJW0J0LlEaDfM6idtqL0rrrVhpJJDG2koGA1NlWa6LOfu+X6wUF9cWgzo9aLRDI0NqSO15VD3A9d216trF2YvfPvXtdCg9W5hdLC5GxMjlpcvvT7/fdJeeIlhHXiyZpbyef+gN2BalnOf59HAaIbS2ukYfleM6xUrR8ZzJocmgvQWPARJYG1UdamkF62B7sy2CvGlDxC0quEG3FMZYFEXDMBqPCYpQo+/J87xMPpMtZusaK0mStO/APlmWt9Ouonjtxmvv3X+PYzjbsx3PYTFruAaEXhvRS25ASAx9tvDZjdUbwXLW5VL/Fx9sBMZYluV4Iu464wm6IgAADiNJREFUbi6bA1oSQhzXqVQry3g5HU+H5BC970BHGkkPMgl+ojwDhYFKx56f3BYZ2fRoQWM/+FbUNbOG+YQmPAQP4vneSnalUCkE1xtDCCmqMjQ0FA6HGXZnPEJPjD9xbuzccHgY8j/LVvmjmY8uLVyyjSZTfddkdT03p+Xu5+7fWr2V1/N9GG+XgBCL7/uWaemGTudW13MhXuD5XlgJUy0FJA1N/qD9RyHuRZ90MNblP9zTffuvkaq8lKCNzgrP82joDgWq/oP9VFCtUUWxUsyVckHbHyEky3I8Ho8n4iw3kPUZ2wNjzDP8S0dfeu7gc1E5arv2QmmhZJS8/Z7ne7+696vGXboma8WqXFq8tFpZ7VzN7Tt4ng9HwkMjQ6uZVcMwKM8838uVcq7nEkJUSeU5nlrcYPWDSkAlaFPTm7qEmNpKL2izgu8+IihKSWvXKapJVqqVAk3r5gRYX6VYLa7mVut253k+Ho8nkoltyFZpCoywxEvH08d94t9avaU7+s3MTYETjqaO2q7dH7KuVlb/6tJfMZghiDCYaVWIOGiA8ur53vrquq4/SPgihBQrRd3Q0/F0Op4ONhKDWCKsa4xrC0i0On7QisK1xnqDo2xQlHbuwYUSc7D3G/N34dXNFrNQTRUExjiRSCTTSUXtf5OVroAx/mDmg8/mPzs5fPLs6NknJp5wXGdqfarpxl2TNSbHLuy/cCR5pGSWrixf+WLliy0PuEdgjNPpNCEku57VtYeeh+M5a4W1qlEdTg7TlBcATSQAvnbSsZrU1t0LarR1ftNuUefqCjqhOtR6IZTFNlvszye+5VjL68tVrUrdJhQcxyWTyaGRoW3z/zeFT3zN0n5y5Sfnxs797unflThJ5MSptalba7cuzl1sukvXZLVca7G4uD++//nDzz936Lmbqzfv5e7dzNxcKa/0PaV1U3A8l0gmMMJZlNW0B+m6YHJBRzHd0GORmCI+ECE4EMQC7/qmlA36Tf2HO7g3sraRvnVhgvYf2wPX0gZalTeallmsFst6WdM113Xrep2KohiLx4aGh2RF3vEwu0e8q8tXl0pLAivQb/J6PlNuvsZ712Q1XXM6P82z/POHnj+QOCDz8tP7nr6zfueNW29cy1zT7e3mqyRJ8UQcIUQIMU0zaO/DQnCO69ieHZbDISUkcEKQUvSRM4F+Au1P10isIFfq6BvcqzHE1S1oMCLYbz4Ix3U0UytXy2Wt3Dj1oxpTU+nUNrtU2+Dc+LmiUby6fHW1sooQmohODIWGUmqqadVJL/Xgnu+tVFZ0Ry+b5YJROD9xPq7Eb2Zu3sve236yIoQkWUqmk4SQXC5nGmadS9W0TStvlfjScGI4pIREQeRYLqjIgpni1dDe396IrbOwPYLhhqbOYIKI7/uw/F+ulKtolabDgIBqKp0KR/rT6Kkv+MeP/2PDMf5G+JsPZj7IatmJ6MQLh1/Iatk763caN+5lTYGx6Njvnfq9/fH9MTmWqWT+4jd/8fH8xwvFhR1hKkAQhNHxUVEUVzOrlUr90yKEWLY1n5kPq+FULBUPx1mmPlcQKOvX1ksfUP/hbgFytJUoRTUfqmZqS2tLuqk3nRmA60NDQ8l0cmf11KZ4avIphVeiUvSnV346X5wXOGEiOtF0y67JKnHSwcRBgRX+6tJfTa1PLZWXNEvTHZ0mYu8UMMaxeIzjuex6Npdt3hpRMzTLsrLFbDqWjoVj0Kw4CCq3qNEziP7u7dGolaIWZpzneYVqoVAp6IbuuM0bXDIMI8vyyNhIJBIZRM/KrePHl398d/3uPzzxD186+tJsfjYshm+v3W66Zddkhc7XB5MHp7JT97L3XN99cuLJJ8effGvqrWsr17Y88i2B5dhQKARe1ex6ttE55fu+7duu7/q+X6wWI2okokYk4aHsDUoOHMiArosh9Ze7dakFQYdDU46C+VjSSlW9qpu6ZVtQkdIIjuMikUgynYxEI3XBgl2CTxc+vbJ05Xrmet7Inxk5I7Li7bXbrZaq5Obm5rpKETRdc64w99joY2dHzkakiOd7Z0fPer7XSUeNbQDLsaFwCHS7crls6EZjIrbv+5qhaYZm2ZZpmYqkyJIs8VKdOhjkSmMwKcjaTtTWpnZYU7Qx0iEcZVqmbuoVvWKYRpvGELIsR6IRSPxr1UVhx/H2nbfXtLWl0lJWy87kZkYjo5qt5Y3mkVEuk8l0lQRUNsu/mf3NSHjke+e+9+3T34al4f/rB/91Ojfdp/FvFQzDyIo8NjEmZaV8Pq9VtVaJV0BZnucTkURIDkmiJHACXek4iDqvO2VqowO/Tc5e0BFBedmJ/wgUU8d1TMcsV8ulasm0WiYTw2ElUUqkEvFkfBC91fuIlcqKT3xFUHRbv7N+J6tlz46ePZw8vFJeadyYe/rpp99/8/1uY6czuZmiUTyaOirz8pWlK1kt28fGbFsHcCs9nFZDanY9u7623iZe5TjOam51Fa2GlFAimoiH4yK/UV7S5vjUWTuoa0AI1d4Kx3OqRnU1v2oY7UQpgGEYNaRO7ptUVXWn0lM6xx+c/QPXcz+d//T66nWf+GORsWcOPKNZ2oczHzZu3LXOGpEiT44/+c8u/LNrK9d+cuUnLGa/cfwb//7lf/8XH/9F0xN0Aowxjzpa0LpbCKqg8EoinMisZKpa1ffazSGu5eayuWKhyGAmFAqpsiqJEs/xoLb2fWxtQAhxXde0zKpepcaT67ksYWHJ8FaQFTmRSKTSKVippu95mwzqM/unc9PPH3r++cPPV6zKx3MfV62qyqua1aQdC+qti2DeyP/si5/dy96bK8yxmC0YhWPpY5lK86hDJ4Bb0PcbAYcWRVFmZYVXSqVSqVjSdK2lju4j4hPXdTHCVa9q6RbHcmBjSZIENXe06rXvI4UmnpZlWZbluI7v+Z7n2a5NMxsZxLS6RQxmBEGIxWKRaCQUCkly/xesAvR3xTaE0OWly1ktOx4dH4uMHUocOpQ8JPPyWnWt6ca9hFvnC/P31u9ZngVT0qcLn07npqt284TZRhSNYmN344EwFYARy7NiTJRFWZXVcrmsaZqu6+3NStdxXWfDMmMYRpIkSIKBcDwNyteZ7e0pQq0xqu8CIDccmgHatm1ZVp1R2ObmQIK5qqqhUCgajcqy3G0F6M4C1vq7nrk+Gh49O3rW8iwGMfdy95pu3H0+q+/WLSFECFnX1lttXwef+POF+YpZ6fa8W4csy7IsRyKRYrGYz+cNw+ikYxRCyPd96MSNatmGoigCd5tSFtVYS2p11fBlHU3pqhUwkm4vB2MMqzNHIpFEIhEO71hcSrf1LVoshmNM56en89NvTb0VlaKt9PLtfgsJIvOF+aJR9Im/I94uSZKGh4fT6XQ2m11fX69Wq50kXlEQQmCByYEOsj3greB5Pp1Op9NpVd2xQD9BxPXcu2t3s9X+tDsxHKNN2em2k5WQbDX7/r3398f3PzH5xDafHQDOnWQyGYlENE0rFAqFQqGVe2u3geO4cDgcj8ej0SgkXO/gYLLV7F9e/MulYvPVK/uOHbhU13ffnXq3ZJae2vfUvvi+/fH9tOXqNgOMbou13JBraIZe1S2zSfeh3QCMMS/wiqoosqILuu/5lWplByNSa5W1+cL87bXbb9x4I6f1rS9ve+zMezmXnysaxVuZWxOxifHo+E6RNQjTME3dtEzLcz3kIeQj5KF+rZLQOxiEWIRYhFnMC7ysyKIs7gYTKqtll4pLi6XFpeLSts1ID1+2j9BAeq02QalSKlVKNxdvbtP5OgRByEfIQchByEXIR8hHiNT+bQNw4B8wlUeIR4jbpmL33YwAWQlC29e96lEAixBGiCDkIeSiDXE7OMoCQdkaQdnaw/EQ2o2KyQ5g5yeU3QuQbQJCfE2y+jXqeH3ibm2W3/jH1c77/7wQbQpOFdVUJLULk8d2BNBNaCMZBT9cgQ289DdYu/EjwcQlruMCmzHGGOGNLSmP8cb/mMEYY8Qgn/g+8hEDUSlm462A/wMI5rtwLLfHYO74yPE//vIfV4wd8NLvQszNzV2+cjmXzSGEBFEQhZbWjKqqiqIwmHFMZzG7aFkWNId70N38YbIKgqBKqiRLCKO17FqhVCCIcBzX2JEKAGEzNaSyLJtMJPft2yfJUt+jnY8WuNOjp0+Pnt7pYewWvPfee9lfZfW7OkIoHA6Hw+FWjfWG2eFUKMXzvOZo1ZVquVwWBCESiUQikabbh0KhodhQPBxHCH0x/YUz43ieJ0lSMpmE0vA6cByXSCSGo8OCIBwdPfrCsy8kk8n+Xegjid2eQrYHwG4oCNtxcMF2JnuwLGsr/Sg7RLfMg5a0hvH/urOG24Zn8whh10qvrhoO/33FnuvqITTW6AF9oQ8hCfT5CaYF0j+oyAy2TKN9C+kxIW/L8zzQVkltpQB6CkIIfKT9K/fcNWiPrHWIRCLHjh0Di15RFEVRwBsANjupNb1CCEEqCcuylmWVSiVN0ziOUxRFlmVCCO2P7vs+VNTIshyNRsH88jwvkUhAG0Do+gv91YJrCUFhaiqV4nke/t/ZO7MbgK9evbrTY9jVIA8vtIlrC8K0Ae0ECB87qYGG9Fb4O9guYA9B7HkD9vDIYI+se3hksEfWPTwy2CPrHh4Z7JF1D48M9si6h0cGe2TdwyODPbLu4ZEBt2ubIe4SwHIX1MOPmy3iU4e6BIMOWwUGgwJ0hfk9BMHJ8q7r272rAPFVGpGCRtLtd6lrASRJ0qb8tiyLNs6AzIEdX0plF2LvjuzhkcEeWffwyGCPrHt4ZLBH1j08Mtgj6x4eGeyRdQ+PDPbIuodHBntk3cMjgz2y7uGRwf8FRupWd+8x6ScAAAAASUVORK5CYII=;rotation=90;" parent="62kFi7w3qv66KEbBx7CK-72" vertex="1">
          <mxGeometry width="228" height="190" as="geometry" />
        </mxCell>
        <mxCell id="62kFi7w3qv66KEbBx7CK-69" value="" style="ellipse;whiteSpace=wrap;html=1;aspect=fixed;strokeColor=#FFD966;rotation=90;" parent="62kFi7w3qv66KEbBx7CK-72" vertex="1">
          <mxGeometry x="19" y="71" width="14" height="14" as="geometry" />
        </mxCell>
        <mxCell id="62kFi7w3qv66KEbBx7CK-70" value="" style="ellipse;whiteSpace=wrap;html=1;aspect=fixed;strokeColor=#FFD966;rotation=90;" parent="62kFi7w3qv66KEbBx7CK-72" vertex="1">
          <mxGeometry x="19" y="90" width="14" height="14" as="geometry" />
        </mxCell>
        <mxCell id="62kFi7w3qv66KEbBx7CK-71" value="" style="ellipse;whiteSpace=wrap;html=1;aspect=fixed;strokeColor=#FFD966;rotation=90;" parent="62kFi7w3qv66KEbBx7CK-72" vertex="1">
          <mxGeometry x="19" y="108" width="14" height="14" as="geometry" />
        </mxCell>
        <mxCell id="62kFi7w3qv66KEbBx7CK-78" value="" style="group" parent="1" vertex="1" connectable="0">
          <mxGeometry y="130" width="554" height="725" as="geometry" />
        </mxCell>
        <mxCell id="62kFi7w3qv66KEbBx7CK-79" value="" style="shape=image;aspect=fixed;image=data:image/png,iVBORw0KGgoAAAANSUhEUgAAAioAAALVCAIAAABhll0oAAAACXBIWXMAAA7EAAAOxAGVKw4bAAAgAElEQVR4nO29zZIdt5WujRIpnRB/HKI1UZHqG1B0S2JJLDrCnhzZ4pk22xdgUiOSd2BfgH0HRY9M+gK62d+UsuVvYEeYRbIsyRG6gZaqRnIxRImKY/3UGaAKhZ0AFhb+kcj3CQ6Ke+fOF5kJrBcLiUSuvXLjogAAAAAKsHd7R/29fnND//y5FuUBAACwCCaWo38F+wEAAFAQlwPBfgAAAJTF6kBruPcDAACgAhh8AwAA0AA9BxKwHwAAANXQHQj2AwAAoB7KgXDvBwAAQAOQ/QAAAGgA7AcAAEADThLfTSbJBTGZ4UADoTihFJWFCyUyWEWCEISaCDmzn8RAwP85hOJ+nqiyZKG2Kr1VJAhBqJWQfeqB2kVcd5L/81GForvhTKHEw1myUCK5ytlbjYUQhGoKCdeSo+kNTP2QdsJRhVLCH0coS5xdplAiGcvZVY2FEIRqCimm9pOrC+ktx6hC6V1vWihjH39pQolkL2cnNRZCEKoppLMy+OYtwdaVTfPDW/e3XXt37XBUIeLKZRHiVBEIlRiFK1fO0BobKhTdNCAEIVolQmiyzbH90D9wyXuLYu62ByGOSqhQ9OEwhdLP22KFEildzoxNwyrUZxuE0NKEzA3WDg4O1m9uMCP1xoufWne08/WrzHIwhd46ZRd6/Cyn0FunPrOqCCEeP7sQJERfubfdQo94QopehE67hb7qSyjRgZiNM7GcdI1NF2I2DY6QUsksdGAIPcst5GgdWYRWw5dd6HF+IU+czCZ0FPknV0lFfq+QWchD+1H/J0rgMh4hxNrRH4/dJjQJOqQlOIUUhAmFCDmbsSbkb89WFSVE+IEO4Q0ZhNaO/+REKI+QO/zpSCGvA9URinYgTuMsfUKChJjXt2uh1QjHbBoeIUYzzCKUMar4hGrFSSPyG/0EKv0gWtCK/bhKwDEeBceBXEKcE3osxDizbiFWvDgS8tSVdO+ReGt/sJB5eaSQLw6mW8IshDi4fh7qPdHlzCuU0U1rCGlxTraOSKHwZhgnFBFYYoWCQ2WkkDv4u0yIL7SnJl5n8R66uLRQ0AnlbJ/FeyK2F1HeE7G9U2jt6J9L6PRnQqthAUIhgalzoSxUK2cuIa8N9yWk1WRZyWOEopphhFBcYOELxXmP2j5GiAzmZoCRZhF06uyL7hDe8782fq//9587v5hs8NaLnz7++tWtK5vEnJ+JkPWEvnBxVehvhtCpTx8/CxWyVJEXLt5dFbpmCH32+NmFICFrpX9+VegbQ+jtU589ihbSqsPzb64KfWgInf7s0VeBQrZ4MVOhRMY7Ib0LrcUKVWyGZjaQN7Ac/SQmVKqiBgjZgv8LRvA3jzpIiFrzzWTiPapAExMKciArkxOqPpmc2SAHcgjdtX4yqStBNdLkeUNFffiNTShs727j0T80A0cK4wkFYQbQ7OV0RWoIcYUM7+E3wwgh2QplODajinAEliAh03vMOClsoVLGyQAhw3teMCK//FBGfmVCGy9+qk9G8GJZ9cCV+pjeQxfOi/WcvnDx99Zzqr5NEFqpji9cvGutJepb+Qc5jmUXmtR7a6Wnv/WOzxy3ZJ/3uL5lDgRZQ8ashRKx7r9aOSEULxTSDF1DcF7WHN6jmHzrGoJz717fFRUMJ9+6huA4EOH9hY3fv7Dxe71YxP0aE+4LFwjvUeXQ/+u9CRRNnANFCd3lG08KdMPIKUQ2dQiVI0s5OTupJhRHUPciSSikCzgLoaPe82F/uFwYnIRuZmoxCZVMn2PZj9d7XISabfg5XQvsPiihu4FC3A5RenVk3ixNb8nM+8zjCSVSoZxxUzAiiBYKPerorLSeUGBTjRYKDT42IVbHODScxh/Rxu9FyCiRwm4/egLF32nEEFzoLI5DoYu/DxwVi5nAJmrmJYYQURXyji8tSijLntdW/zGJ+Ek6dfx4TKGoiBFBRGiK6D3HERrSQ6u3J/up2VQKUW0+bv2JvxGMNyw2l/G3k1o5ZbPqs2YOcuH0e6LtOpFdEdfXjxFi33mhZr4N4D1gCYxaUfXjOjkTl+0IfS4a6BJn9jNMk67wIEg26o/OzJ9v202/DiKxnCk/D2oC1aazVxJCawolOQQ9Zs+9tttP0NxthfkIaiHi5s5HEPQ0QIrPffPhNf4lTxVi762VUGL9n0uHo1A5425NzQV9wVMmcT4X/PhdSLjQL83jcKG4AMh89OeQNSHKh3TWzLfgQhydXW8Dm5wR1/O6XhhCK9c47ikzjtCjZCFiZTBzs2Oh8DbGbMkRDT5aKDFiPkwuKo28KOkq3j3kcqZqQt5LXK1PMCOh0p2D6HB6CLs1RrsU97mfgBKsCRHqtEFCqwE9tO/AD3AT54joDTGZ13AHZydZhDjDTT2MvJUr58Q8yglFdGUiU4qehaK6pBHdTX0bTiySPjcJdCVGgI6E8qQEHCz2c1iI1fE32t8m3sMk4mjjTrq6fnrp6IoSVxelUFCNjGtd1p4XvauMJldNiA6m1m+bjLwFlfMhL7utLDTplgVdYma+ztlVMyFbXzNSKCSwpAjRwdDoptuXo+YJ8YK/FHKse20lIPv5584vrCZkek/KoQoh/vm3a9Yza37oWrScyTd/u2atK+aHKbWEEjKaRFADM0c8vvnwmrWZRQsdGmq4kLr3ECRkDhZ9++E1M+ZaPyw98iZJL2fPQvpNo29tl9h13flC1rpkblxbKGogzNrdFA4HcgUBvpA50uOKk0efBw9mW1MC4XAglyPwsU+8vnV/e+vK5uOvXzVncNv1tGMMGnY7FHr2qjYn/XBf3kQnaNhNCj16dsF8msxbJ4KG3exCa0Iw0oIg7zkU+uqC+SBeKyGzsgd1wKXQw68uXDKEvLE1JaWIo1o5GwqtaUKuCcwRGYlZlzhOU1zoaKJ2RF/TDCwcp0ns1EoYA0Jrid30I6FfCOGZyB6U+ggi+7EOwdmxeU/ooR79kOvV9MuwCUJv4dDvqPb/kN3/iL7DH/rDvELEJKvodCT0h3XyHoWqCaXL2ZWQ9UKH1iUlFFdp+W0wOtSGWkJloYhpcqHe40qADnFHs1DvEcp+Ju9eNXfqhOc9av+mkNqYnzZx3lZLCPEdiPP+3TxCjFcXU0LsxpxFiDOv92GaED+AcoQSqVbOuQjpw6rRQhGV1sQr9OirC5WEnl0IDSzWSO0VevzsAt+ECO9hCL1qj8m2Zk94D9EMj1+2LciXHwtzKYXVQvDfK+4Xci+CpJ/3OCF9ARJiWadHeYXcC1XpNX5GQuZwkOJhZ0LRb9r27memJySjEDPcRL9ym3C4foXINdzo0ZQgIXqxOHp8KFDIsYjOgRBafkILmfvfu72zdnBwsH5zg26rkzWj3nrxU+vsao48R8hrP7mEvPaTTcjnCrMT8samroQSGe+EdCXkqrRMS+hRyBFYmN7DF1LImGlmRYlC5mqB0orMrCiiGe7d3ll75cZFzqbWotDarn1yhFwOdPm/7Z/HCW3/uzOH3cwrdNUtdG+WQg/dQpe6FEpkvBMSLfTwqwt527ur0j6ar5AjsDx6llmoZkzOIjTZ4Nh+OD8Igk67aKFzL71o/Xz/ydcZhVwqEBpSKJHxTkickFUFQk2EQulBSN9mZeab2jT9ni0tDyEI1RdKZLwTAiEI1RfSmU68zlIIjjyEIFRfKJHxTgiEIFRfSGF57iexEHx5CEGovlAi450QCEGovpBk5d6PdUdx8KMAhCBUXyiR8U4IhCBUWWh67ydiF+m/hRCE6gslMt4JgRCE6gs5s5+2hE4d6VwodLYShOoLJdL8hMy0aUBosVDZDwAAAFAO2E8N0OtZLLj0ALiA/QAAAGgA7AcAAEADYD8AAAAaYH/baVv0Weev/fLH8o9PfvMX9WGuKbaT6e1KS9+g3HRe/YhEpoOa7NMkiwrzsYBCp67EeUvBPBtmRSpNidbRSqUcqvz6BVIfZjwi/UTVrwyTClmnycepxEy8LnF4rp0TpOi6VFRdkXeMM9rPZC6m6ROJQnXOW00hiX7eXObaNhRaT8ikImXEnNRbqC5ZY3ReIYn1iF775Y8znrq2rcOMKulCQQWo0+RDVfZu74RlP9ZyZD+b6zc3VI2cdFj061dIqA7WGpmOfkQT8gpNslI9VOUS4ncREoWyMAnWMoDWVK9wNkq0QeFoeiVyXNNQCx1Rw8owOVG5mqH3/O/d3onorAfYj2s9H/l5UUsHswM1obIDDQzq0qhw7YdwF/mhMiHUFZ1O+ubzhTME1Buv/fLHsqi93abqE9Oksw++jccYgSXbzDc0rUWB0ECDvAcALxnu/VRg7o252i2Z8ZhLxmOi31eYI/M984uC7vd3Hlh6nHito8YxAFg45oS0udM2OI50JmdKmP00cdo6tUT63Nytrlp7riAkK5s5Yb3Pa1RtogFnnlgi1jOv03mfmkNl7+mz0nJYv7khZ7VxtgzdOfe5H+acglxTD8ZbGh1CeVWyCyUy2GmH0CyEZk3ACxeYpoIJCCAvaLEAjArWfAMAANAA2A8AAIAG9D7zTVHtCb7BhLIvCAYAAFkIW/WAQ4noZsbQQssrVJugMt+ZMAAAkIV5ZD/VVpmEUBBtF5ZfMtZ3B8xaqBrjHdF84doPkWoM8BAASAcrbDah5vNGg13f8Y5odiRlP7rxFHoFXCFGejyzspCObL0YSGwLHCgIvdKOcUSK+m8S0onQjbGfoq+bA7MDCyPVx/oW4FkLgURUWC5xX7xQ7zZ+ydFyrlNtgU4IAQDGYy4vvomZ+TaLAwPVQL+4FZioCSQz7VZmGHybAHNaJiONoYOFMEaltQbkvAmQXHiU3iBit3Nd9SDxzFbzyJpCMP5lgrnXoSCZi6BEeMkw8TovHKEshRlPiEN2IbTkVuDMJzKGmxJJSfY7QK4cKFplrtkP6IoxWvKMwGOn0Yxk295bPtXeyxUH7AcAAOZHk+kGedMp2A/IwEg9SjA2w6Rxre716rqJZUh626lpv7nOyHjvJRxYaDI+M98jSqHhaRdCvPbLHw8gNAFHNDYBbzsVvFxvptPPAZgdw/Ti64NT1wkZVrxWGQ+8Z5mgMbeiznJHQ67sh0rbA/N44QIAwEq1MIp4DbKTZD94zjGIam/HwWt4AAD9w733I50Gw2sp6E6A1boAAAsnIPuRj7wWfaXE8NQZRsci+QCA/gkbfFOLLiANAgAAkELwY6d03oOsCAAAAIeYqQfwmBRw1wcAkA5zCCo9XJcTwqI7g4OZbwAsmcQbJfyfRwjhuZ+q1F+oGAAwHirW0zlHrpv03swmTgjZDwAAgAbAfhqAJ9UBAAD2AwAAoAGwnwZg8hsAAGDqQVXUEsWf/OYvRUfGqgkBABpSZwWAQirIfmqDGz8AgET4D9kkPvdTVAjZTwPgQACARKo9/l9OCNkPAACABsB+AAAANAD2AwAAoAGwHwAAmB+c2WhZZqyVE4L9AABANs699GI1LfX+T+KrLEuOFhLCzDcAAJgfk5d/6vPTmAuSMlWEZkL6PnW/iRNC9gMAALNk/ebGxAz0NCXjhGmrkP5t3G6R/QAAwIxRCUoJ4yGE0lVgPwAAMGPMmy57t3dKONBEKN2EYD8AgPGpOSOgJmbG47ohlEUlrxDu/QAAwPxwjbZZ5yAkCll3ni609sqNiyklC6LO4qwATIjuA6LGgibwX25NbJnlVlA5ob3bO/XsBy0ZNCSiBaLGgoZUW1G0FXu3dzD4BoAFeA8ApYH9AAAAaECbmW/evPLcSy/e/98/nHx45U//2H/ydd6SnHvpxfv/+2VD6PMiQu8YQh8UEXrfEHp3aCFi7k2WJIYzDNLP2ZiXkJyQNhF694PPhRAlhCZt8Eo5odWocuVPx0Klq+uMaHPvh2jPW1c2hRCXTn9m/fbhVxeEELfub6eX50ho1yF0PrPQGYfQl5mFNh1C20MLuZp09N1X/kPdHZ6NWQjRKtmFXA1Q5GuDdEgRWlTxVlfrt3FbZsHbjiKeNNq7vdPRcz/y4vG3jK4uEBpPSFLoaTuONGfLGZ12whXyCjG37FxoRWVNiAPPxvfu3bh69beVq2s0utVZy6weAAo9nF6yH3X9XHnPBJkGifDqogl5GpgQQqwd9oyShHwtWZIu5A0Zku0qQkqlmtDVq7+Vf2RZe5FZXbs65xCyClVrgCtCbgeSOZA4qrGup2eY2U+11EdfezTLqqO9zHxTA25M7xGaS/F7N5rQrt971oRYE0KrUjFCZ3aZVT9RaPPMLrMxC63ZFxXSt6wjdO/ejXv3bojyA+ihAVRohYw4FRCqI5TSAIVpckcBxCJ0FHzqVNdEiHFC3QLjXLB99kPf7PHCvxvkHZk9xqg3QT0j71gzIRvU1/OOnhMMLKR3KrNnPxFxzSwk/1RUE4pTmZEQOR62Av9WEKul+9Iga3UVIfd+vKQ/dmpNd9L33Dj7SfSeyX4YQjHeI0J6RineI0JSk8TGPLBQuU5loiWoHzJPRU2haIKEog8nXciRili4FCLkb+luYRmOSudA5Va/Tt9zS/vJ4j2cn3O9x50vC56jxHnPRJbTRNMb89hCZl8yI1kKyYn74wklkihEtu8VvA4UVgafcIoDSRsg/kXskyOaZT9d3PtJRDpQau1nVExmtyhI0yo7l/bcs1D2hpfFICHUXIhvQl7COprWYZXTKx2mbpF3epRBqv/q/yJ222zitTf1Ofnm3ckn3354zbXxpdOfqblwDiFnRTn55p2p0EfXnUJndh9qc7osQu4aefKNqdB3biECbxs7AaEWTApJlHDzzO72l+e3rmy6bjDQAXReQhxLaCXkbemEEO09J61CtjnZl07vPvzqvOwwRQTxfmZvR5Sk0+zH9B75ofVzRUTn2vQeIcTJN+6YVpEqZNvhiTfumIFVEp0uWHfoUhlbKGOzpEOb9ToSF9cr5GKOQjRthbwtPQLrPo8/zJR5qbpd2nv4+48oSUv7caU+tMfQ306gUx+r9xx/G1Iv6Q5RxirujYOuH4a25/GEMrBm+UcX48Qbd6Y/EUJEmbFfyEZloSA6EXI1z4gJRHRLP3agVRNiTYkyKHdrxypU4iZTG/shGkOQu2ishV5C2nsIQiul13tyNTNvOG4uFEo1IQ6bZyNvXZx4fbWQa577D9H3SELPRombMdam3b8QkZNMhKKntnolK9wZ7Y1OB99oDIs6vpLcS8hLgQnnqFZXRqqUFW4+y8gebRVWiEswtZYsQmaOldtoqSNiCPELMyOh9FExziDHyja5pkDMllnazyrh17C/q16tF08I5fW5qkLG0FYJoZb0V2OHJOOkuADJBTN3++nde6qp9WBgMxUCQAcOVI1Z20/gdavbt6nck6o2EXk8oaFo0IEfkNpncamXbL72E+49FQlVGy+mE0L+1bR8N+dXhD5OEBoVx2gkCAInrzSztJ9vPwyMOLH1iHgqjQhteWtttRjaOFh3HDGJM0OYX30h+za280kJMTooWTox4wkR4SJom+XQnf0QSxvQqLdocIV89cC1gWvVA+EInt6a7dpg2y0UtJ8ZC/lirmuD7adhQhyi9xlqUSUKbxcKvBwRSJ8rITRx0HKdp1ZCS6CN/cgT7Vomh3YgIvVxCjlqf8aeCN3MiHgd2u2qLBSxt8xC7tidN/OIhi4GbZBBEaeIkC03oq8g3bcIO6IEoaCvsgvFhZSIHu3YdPSybZ1vP7xmW/Mtf7j59qPr5mz9Egnydx9dr7NwWZyQK2psf3ne9bBOmNBRmHMKPT3veljnu4+vm4/XELE4IrInIgszKWQJdywipDvQ0Ypk8jryl2KLZjwhGT3sa76BVVq+bi7khQueGwJy5M0VcbI9qOx7FVXGlX2JvmTe9YPLCmnXjXCFQ6FMz4rqQhlfN5exkLRBdiHEfzubFOqgXdQXyh5SUt5dPTvav26OB8t7KlAtR6bHyjOOp9NtLF7ImERAx8FDoRz3PEqnPvVuzLQV6nUaCBiJlvZD3wE6gtsCiIhD3wEKxSuU60ZrNSFvGbhCCTErowMVIpeleQ2yLyHGNfXe9clVXXsTSg8p/Bd7D0nj7MfnQP5IRg+7TYUSqktQRUlpAEG3cHsRIiNUUEaS4kClU590j2T+NpcQs12whByXmFmL0o2hT6FqIWVIehl8szlQNu9Z+UlUdeFXFLVNXAPgW0KK0PaX5/MI+brG20/P8y3hWCg87AYJpZBiDOpX/LORKMQhTGj1igfVvRRjCOoqVRYqHVIGpuXUAx21OuTRTATu/Z7Q63csxLttqOpWkJC+2CXzRuj2TIQOVRgjbEHR1iLEvvdOCGWcepBSSD24Fz0bcee8jVDJ6tpEKD2kLG3qQS/2I1YjKfHyHn2iQVzfYUXIXWP0Tk26ENEGtmcq5I5T0dE2u1Ah+8lYQi+DCw3XLlJCCuynoJj6mzizzEXy05NWCC1BqJz9SGZ0KiDUvxDsp6CY+tt7Zl0XMvtQKYTGFiptP4pZnA0INRQKqq4C9pNdrI4QACYp9gNAfZZgP73MfAMAALAoYD8AWBi+7wlAc+rZD9ozAABwWEi0rHfvBwAAAJDg3g8AAIA2wH4AAAA0APYDAACgAbAfAAAADYD9AAAAaADsBwAAQANgPwAAABoA+wEAANAA2A8AAIAGwH4AAAA0APYDAACgAbAfAAAADYD9AAAAaADsBwAAQANgPwAAABoA+wEAANAA2A8AAIAGwH4AAAA0APYDAACgAbAfAAAADYD9AAAAaADsBwAAQANgPwAAABoA+wEAANAA2A8AAIAGwH4AAAA0APYDAACgAbAfAAAADYD9AAAAaADsBwAAQANOti4AAL2ylvbzgzylAGBUYD9gqSS6S/r+4U9g2cB+wAIo7TRxWEsFTwKLAfYDhqNPs2FiFh6GBAYF9gOGYNaWQ6MfGqwIDATsB8yTgf2GYHLUcCMwZ2A/YFYs03VcqLMBHwIzBPYDugeW4wUDdGCGwH5Ar8B14kBKBGYC7Ad0BlwnF/Ah0DewH9AHcJ1ywIdAl8B+QFPgOjWBD4GegP2AFsB12gIfAh1Qz372bu9U0wJAZ/3WRvRv97ZQb0Eb1m/G19tZUOmFC/AeAAAIYviwiff9AAAAaECDez/DZ5TgkPI3eOTImGtsLe+4WcoI3izBbaFiqLTGGgyHT3oUPU492Lqy6frq1v1tCM1AKJ/xbL3rFnp/e/3Wxt7Wzt7WTg/eQBd1fkJrpNCQ9baW0PrNDekxe7d3ltwdX3vlxsUKMrqfu043ccEmJFYUCNUQSouDROAzhVw5kMp+skw9IHYSVNroknQqNF7VrSV09epv5R+TkMiJlgOwd3unF/tR12zzzC6xn+0vz6u/42pJA6GzpNDTbEKXz+4Rmz14up4ipDeqAKHwIKgHPr6QbMkTh6hgP3GlrXNa4hwoRiit3tYUYjbGDEK88HLr/raMjXpUhP3kV1J/T04o0w909IvHL0MDIbKurwhF1Xum8ejEteQkoZAgqGJfhNBxX/LIJ0rbT0ppq52WekK9V91dwbufldgYI8LLYefpKDAux34az3yLuGZyY7k9P89tIMT2njUhLp/dlc0jQojfgOXGcvt6QuxhnIjYpwvdu3eD/6t0ZGmVOhO1cehpmYFQYI2qKHTYuARvNoxquaFCKlwwURvLqrucGQeKlvajru6lkGum4BtDnPckCYV4j4LvQHGWoAlxHSiPECMCxnnPROiwGZd/UFRF6ojfBhnDzITYNaqi0LQlZncg5T2MHRtCq79amgO1f+7n0pnd6HlSQalJXP2IEYryHklQDhTXhvXf0kKJ3rMiREbARO/Rf1vBgVIitYRpDBmFaOoJJXhPlJC9JQY5EEeI3+QtQmd2hZa7L8qBmtmPvGwp3iPxGkNK3yRGKMF7zL0RX6W0YaaQJJeQl1xC8iZNIQfij2XReA82rxCxt3TvWREqX2/ZQlRL5DtQxibvFFp1oHT2bu+Y/1wbuH7O2WeiWbaxH+U99GYn3rhz4o076UJe72EJkRWWWRFPvH7nxOt36J3RzYbZhp97/XfPvf47eht6J9mFXBGQGf6ChEo/BsQpLXMntM1UE/ISIMS+ZVJYyGMxsiXSeB2Io8YJYjJGpU80cFkCsWfTmaybufaQ4kCNHzt1XTL9gqm/v/vounXjzTO721+e37qyGTFdkiu0JoQQm2d3t5/GCml1Xf39/cf2I7p8du/B0/UIoUnTVf/9/uP3CKEgibkIySdSIxS9EJagl9ZbVAKvJc9PyNebKSO0Zk52e87WEr9ztESv0EqPc1UtKIipfaonUhMpMWVOL1uWcra892P1HiIRicuEXKlPgBBvfNCV+qiMx+Q5++cePVcbJrqNdI/S1bnLL2R0wOnwl1EoC/RuXUUi8ra4kagehFw/6U9opTU5WhwrEwpSyxvEmNBr+WTHOlM8iAbZD3PkzcqJN+5Yuw/SY8699KL+4fvvvCxE5LDssdCqF0iPOffSqRWhn/4wWui51++s5kCHerJ1nTu3IvSHd14WIjhSqw2sfcnaQqunjtkdThSaiMZx7qVTKaV1cfns3uP/+JefffD55MPOhVwn/1Do510JHWYlLu+RnHj9jjUHkk3+0c9fffeP/zA/t7DmMTMiiMlRHOK3BCneE732T2IO1Cz7caU+ddS5QslrlwX2qvAWtmGJtg0I5RBitSx+a33/pz9M2Um5QBfqIrnypDgTaj/xOhTiyr3/zsuVhNyVL4KjTpmlhfwh6xFVixdLI++JJS46hBKEKnVtm5B+GyZ6DykGNj/7GZTGeQ/T55jBgtismlB28nYFAMhO9ABa9pIwgf2MANIaE7gFiADD3zWB/YxAxPzUVkKTG8WJQsRmTCEAJozhQEHPh8oEqP6CC/OzH3rifE4h96MAkzkwLpj1uFoM7UFovhCnKO/xjic0O8ZwoP7py34SreVddgyt5mEASGaUoWYXSvS5ikLcsEB0QDlPsHYbfyISoJmtenDr/nb03HbXZZNvztWtN3IAACAASURBVNh/8qn5Ydxqb646JN8FMhV6+q/CeA5AdqC+//g6PeXG1Srko/v7+/+z+uG/CscjFN9//B59B8gj9GRkof0nz4j9MNl/8iyltC6yn5ZFCZnLguQS0lcw2H563hSytnrJdx9fj36O9db97atX4366QugzoYlP8MTNX2iW/eivE9Uh+gWhXQZZY2KEAlfgOBTS3luqJ+9Elyq0oyqFXKvXEHsLFnp/NKEKRJRWHnjoa0khJNx1Jk7o+4+vm+1UtmK9XfNxxZDvPrpO96HnReLtosZrvllRl4e5UJK8bBHrsFmESOORFdErZA4cq5r93PFqb1T0PGzD4UekdstcNSsuWKjd6n3JuQtxuPX+9ta7mw+errue4Z+UNtojIRQvdH9760qokPMlqMRNICm0/fS8a/kDGUxWlpXjvGy1HaEJUPoaP23s5/DKfXmeHhlLHyHlCoUvOGgXenqeXq86vc/ubV3ZhHzxIotKTaGckPemv//7e5bNjNCT7pTM0zKsUHj/zCFkWZn0SCiya6tYiS1Onfg+tA5hHlke7tH3n2WaXF9TDyLIctlYQskVkTmhJr1pMSmaKIwqdDha+EX4yM+a8Y8jFDXEFMSAQuQYtQPL9XjgG3YzR93jSB92o93F/DZuXbgIaZq1V25cjP4xH73oqrjpL4JTl40O1h4hhimoGsYRcidAfiWm96S/uYsZqdPfRdZQSL1wIeX1P9adHJb2Bwml/aKj85/lbbO1hRgtMVBomphwUh8lFPDSOSMBmvShrdFySFpmP/TUAC9M7/EI5fMecdztsh4R13s4RPXvooTSeqwdCmUkJgfSfsjP0hJPi1dIbTAbIV5LDBRaaaHMYTe1QUAOtBoJqo3f9Mbe7Z3Gg2/KGEJNiO89qUJs79E3e/D0/KoJBXhPoNB6aEs+FuKFP2UM1YSCVCKE0jkOo4EO9OCL9SDviY7X6noNKBTSQAKF1oTWeEOFQkfhVDhapveItoNviuMEljEQp/tH6GWbCpGmoFemaKHLZ3e93hNqPA4h/yBDSpgOGjbpRKjc4JviuLSMgTjlVUmn5Qd73glU0edff59e0QsdLxTbEmsKcQbiiH7t8INv8vVCe7d3urAfycr1M3xokrWk9BfoijLpwkQLTR6tNav+pFNWTyg2RZi867N/oQr2I8zSGj40yZCynRbDh3o7/3mFcjX5mkJ0eHEJjW0/6tV2fdmPxLsgQq5EdTAhzkISWcamOO+x7kSojv1I+jktuUYgOxKaVUtMFxrYfvTXqvZoPzrqKpYeG60jpFfKUkJrQqy256K3QzoXqmk/Op2fllkITVVyP7DZc2wZ1X4mr/RuYz8AVCaL/QBQn2HsZ+I9ooeZbwAAAMbGlX7AfgAAAJTFmsZVWvNtmBSyR/BurJKkDNyBIvS9cCeYQNx5QfYzc+A9YGmgzs8NV/oB+5kzaIdgmaDmDwHsZ7agBYIlg/o/B8wJbzqwn3mCtgcAWsHMgf3MELQ6ACRoC3MG9jM30N4A0EGLmC2wHwAAAA2A/cwKdPQAMEG76BLvWmuwn/mANgaAC7SOGQL7mQloXQDQoI3MDdjPHEC7AoADWkpPeNdag/10D1oUAHzQXuYD7Kdv0JYACAWtZibAfjoGrQiAONB25gDsBwAAQANgP72C7hsAKaAFdcD6zQ2872duoOUAkA7aUd/AfvoDbQaAXKA1dYArAYL9AAAAKAXe9zMf0FkDIC9oUx1gTYBgPz2BdgJACdCymiITINOBYD/dgBYCQDnQvppidSDYDwAAgOKYN4FgP32ArhkApUEra418DEjlQGuv3LjYtkAArQKAehy0LsDiUfaD7Kc18B4AaoIW1xo1Cgf7AQAAUBXpQBh8awo6YgA0AUNwHYDspx3wHgBagdbXmr3bO7AfAAAADYD9NAKdLwDagjbYGthPC1DvAegBtMSmwH4AAAA0APZTHXS4AOgHtMd2wH4AAAA0APZTF3S1AOgNtMpGwH4qgloOQJ+gbbYA9gMAAKABsJ9aoHsFQM+ghVYH9gMAAKABsJ8qoGMFQP+gndYF9gMAAKABsJ/yoEsFwFxAa60I7AcAAEADYD+FQWcKgHmBNlsL2A8AAIAGwH5Kgm4UAHMELbcKsJ9ioAYDMF/QfssD+wEAANAA2A8AAIAGwH7KgMwdgLmDVlwY2A8AAIAGnKwptnd7p6YcADrrtzZaFwHMjTUhDlqXYVzq2Q+8B8yUvS1UXdCG9Zsj95kw+AYABbwHNGTsXnvVwTcF39K3rmzKP27d3y5WnKxCvtuVW+8eCb1f+IgWIyQdwjq2BvMAoFvWXrlxsY6SbuO0/SgncJHLivILObxHxU2nUKbAvVghlwPp9hN37yd6D1vvbpb2YwjVE0q7A7R1ZXMSTFQ8tAZDfrScL3u3d/qyn4kfbJ7dnWyw/fS8+jvFhCZCl8/uTTZ48HQ9Rsiwn0n09AglNLmp0A9WhB58sa7/N6PQj1aF/tpOyOpANe2nN0uGUE6hQPvhdG0JB4L95BdTf5snVL9am2eOXMc9kKV8KNSEdCHTDCaEmdBqafWKHiYU2NJWhH7gE/oij9CPfEJ/bSF09epvxapJ1LGfbi15dkLVuk2TJqk3QKcQz4Horu1U6MiEJiER9pNfTP09OaHqgh0bj/DfRIlwICXk9QMdVWM8QlqBVV2PFGI3sxUh9lNyqlVHCHn9QOev1YUmDlTafvq35FkIVes2JXUEffYT17W1OtBC7Kf9zDe79zDYPLsrR+e8ee5EKMgS5PbyJ1yhKO9ZEfINEViEQp7QVq09VCjIEvTtqwndu3dD1JpxoJeWU2B9M+YJGV7o8g/2vN4z2SxS6KhxeYS0zcKErkQKbV3ZPKy0Q09ys9LYfqK9R8F0oGjvUXgc6Cj6R3vPVMhX9aO95/BXR+2ZLxRqCepXP6olJP+o40AzsuRuhTjGoxPdbYroCFqE3K1MhgWm8ViF8jrQ3u0d1z/rxsR+spTHRfvsR1i9JzyeclKTaEtoI8RoY9WE4iwhghQh9Vs5SlbOgXI5ZTVL7lAo1HsOf8VOTeQGEZYQLHTkPREq5g8r50BSjrClouVpaT/yskXnPQpzgpxVKD1SO/ewmvoUFDpiRSh2YcQ1RqyRQune402AsgtVWGIni1NCKIw1VvsKGjdzYREyp7byBuQ5QjIBEvki/vrNDfNflj3noovsh+DE63fUP2KzoJtAVp57/XfqH7FZ0E2gDEIJrei5f/ud+kds5jUGb6RY+7ffqX/lhHQVplAhB5qvJQ8jxGwduTqC1YSUAy2ENqseCEbqY/qN/OS7j69HCF0+u+tKE0wbkJ98//F7YUK+1KeIkO2YTL+Rn3z/92MhTsrkbXWmDaz92+8O/h52ODWFcuF1Sv2/RDl/9IO9v36xbn34kROpQ4WsX+UVIpgIWRfznFTd761CvmVAOYMQemMMbYDHQoxhlVAhmaAsZBpCl9nPmsV7FK6vfENwXO/xfjWtbbyxrwxCPIhcx/VVRG+USEG82UmfQkxop7QWqUQh44QikulQIeY0ExNrmk5U5ujhAXPggR6KmAqxx7ojhXKM5mWk6Hhds+xHuFMfepyN2uHZ3cc/f/VnH/xD//DyoS1Zag09/EVw+eze45//y88++HzyoWv7JKH/cAsZx0SPsynMc/GjH+zt/PxffvrHzycf8ovKQe6wppD+4bmXTiXu9txLp4iiEkFZfpUrXaOFMiaF2YUmZ0+lMXSfyZID+RIgV2Oke4ERaVA1oUKs39xomGm1sR/C4U+84feeE6/fYQ7B/eGdH7q+4lgCv6L84Z2X2wsxvMfemG388adOIU53nh+eqgn1idWS//jTl4WItGTXCZFCEw+ehZCr0srQPxH6wzsJQo5mGCrkbfJuod0H2rpiDanjSV0OvoGS4A3C0aQ7ZXoZEoWIQ2gitMbuNrm+Ijpk053wOoLpQonkGn/jPPSjb2x+WHqm3FD24w6sI4bcEY8JAC4zr/8Onyt7VE08hqDlvR8AAADZ8b7Ewcre7Z3K8+6Gyn4WxMy7fgBkAK0gE9bVTitkRW3sh1g6OvSxHoW1Kv7sg3+4Kmm1ySf1hOZ8Bx4AsDRaZj/bXxpzPHjdmWiLCoXvHJO50WWFEjp9/Elik7nRoTvpQYjYcxOqzdAbT8jZtcqdAPXQK831NucIKk/C7nHwjXYX4tsHT8+/9Z+f7u8/0/89eLo+ecWTgq5qrm/lDt/6r//Zf/JM/1dP6Iv1B44n2OkEyBUs/vrF+l+/WN/4z6mQ/DxoV10J7T95pn84EfX+M3eb6JQEkz1XEyKYixC/55doLRWEXAGkApOhtjrzEXq0H+H2GNp7IoRcFSV7J6iekKMxZ++ounY4X6EJpgkVdcpqlqz/2/jP/+lfyFWlZT9sIvTWf/1PoY6gVSh0V5xvU+DMse6HZjPfbt3f3rqyuf3ledfaB0EjbEQKLoUePF13PZ+cqyrcen97692KQl+su5asN5srcX5kRLC+QVIK/fWLddej/kEG0INQaQ7+/p71UZgSlrwQoex3NL//+D3rpOe45km394xCoaQ4ULWp2D1NvE4YxpWpT4UxU9nfuXV/u/Ssm0OhFjEUEIxnyZWFiN8e/P093/usj3mQ0MkIMoCUlhgjlBbE6JnTtK/UX4Cn5eCbPNGWCQiBbPu8R36VPq7q9R5ZR7MJuWv8oZBjKGNCXOqjC7nGTPj0IwTaQl/iLJ26XM2wH6FQrG/64eQ0ld8J1PjeTy4HYgqlVBTmb9NrZJhQQrxmxvp0Y6gsVNp7xrPk2Ql5U596HcHsXdsl0X7qQboDbZ7d5Vy2lIqifsUSSqj6x0LsGBrnQCoE8IXiokZ9oWpUsORcQsyTPwuhoGG39I5gPaGFeY/owX6EcqCn57ejZq+9u/qGBa8QMTHGytR7GAMEyoEihXg1/tb72yoHcpmQtbChlqCEQqNGhNDkh4WEEoku5+RX3tLmEvLSjxDdvPidLSWU2BH0sHZsGylCC/QeIcTaKzcu1lHSb2pZhxf1dV5974475N0//kPV1v19y4MaVnQh+pVu9qSHPT6t32jlCkVFzxUh45UqOolhWgl539DTidDellbrot69TeyBX0idiDOzNCHXBIQHCUJBL28Mm25wIIQWVfhCxJiKN1oOwN7tnY7sR0IvNq7b0rt//IcQIsJ+OEI608oReHuU/0LGxJ57HaGg90s2FypqP5LZWfIshCYOFGE8ViGvN8R0BLWy8k2IHs+H/eQXU397T6jLGzbP7h66jkIzg1AHIoQEkQ5Hzc4hgmne8SII6VSwH+Eo4Y9+sGcdX8pryTJwlxNyOZCuOK8jUkiHsI6YhQmtWqUZUighR5CB/eQXU3+nnNDpK5PT7CcGrLM7H+rYj2IWlhzE5IXlir9+sT7TI8ovZBsrpAdXvHd6YD/5xeoIAWClgv2Mx7S3d4R1Tbzlwn9clsdC7KenVQ8A6BvdigAAidSbeD2qh4NZsMDEBYDOqTf4lpfDMQHHbZiCN4Fw42d5IOkBrRi41z7jwbf9J89co9IFgfcskiVnTrj3wyX37Z8l0MWqB9k5d666MwEAAAhhxvaD/hcAAMyXGdsPDRIgABJpML4NlsS87YeeYgAHAgCAbpm3/VQF8w4AAC4QH8KZvf0gAQIAgDkye/sR1ZZ6AwAAkI8R7IcGCRAAAHTIIPaDBAgAAObFIPZDgwQIAAB6Yxz7QQIEAAAzYhz7oUlNgDCrEgBAgygRyFD2g0nYAAAwF4ayH4EhOAAAmAmj2Q8NEiAAAOiEAe0HCRAAAPTPgPZDgwQIAAB6YEz7QQIEQDnwqi2QhTHthwYJEAAANOdk6wKUYn//GWEz586dQoYEgtjb2lF/r9/aaFgSAMZgWPsRPgcKgPE0mYxN3Ualzos3QQ/0VrwHkv14vUWqgLUMJa5phdpCnM8mtZRzfVkFWxPiIEN5FsISB98kGYfgVN3tIUiZ9FkqF5zS7m3tEJvN63gTyX6wFc5ebxeIWZ7eij0Ag9sPRtjmRVALrxkO5pI4zoKuTma3VW4JjDz45gV3gLqFiFCtQkDzoKkXYO5x0DyZzY+Ivr7Nizckg2c/onoChGqahd7uDQAAsjO+/dCk3wGC32RkpA4+AIBmEYNvmIQ9GEiAABiARdhPn5jTW1Nm1qb/tv5sZivrtzb0mYS55OLOjysDiyhVV8OJ1eZwA0CwlMG3Qq8CsjZj5tRh1x8pe4v4bejGFcbE8g7BEbO0q43v0UI1hxl7OBsASJZiP6LwHISUniP9FItIC165Ykrl2JTFgbwntg4pHYjKJenhdIHlgMG3Q9LvAOmjRik7UX+Hhq2JBY4USrKMwlnPLb3n9FM6+Qkx4TjjSCOHgWsLmAvLsp9sy/D4iAslk58E+Zkpl8UO+QRpcU5O3vL3cGPDWoZqlwlr1oHeWNDgm5dQZzKjRkqrLhERuo0yzICbZQhu/daG1Zvj9hYNR7GOD7lcsNvaAkZlcfZTYg5C3nGhvIwUUyKi80iHXwGcLlCTxdlPh9D3HhbeLU25RbHk8zYGnUweAYVY1r0fSZanUDmTiBYV/vj3MEJPS+WbWIUY4BAqE3rGvLM8QG8s0X5E7jkIiCySokOIrWaIgVlgtkHUk/7B4JsFvI27Q5awHBzCJVgUC81+RFoCNGr4A+WAtQAwAdmPnSwJUA8ulaUMnawKM0mAeji9g4FTCmqy3OxH5JiD4OrSdtKMsyyYlqUkueTmOw2hn1sRrpJMTuy5l+Y0BD3firFkkP0E02ctt956TdxJwyPtan3oXLStOfTNsz5rdRDqKQU8rjAXFp39iPKvAird551MCWu4kyz0UxK6DPw5vpNeOX1Qce97jltNp+3pJdRbFayH+rY0kP3Er4TNX6qyKLRWlhUZ+uxLdlgkK/1YgrckdU5pV4E+6JDnUuXmAuzHQ+IcBFd9VZ9nqdC0CnN9T9dSYEytXDCtLt37E1VCt8m1q0SIkvBrS3oZSksEkbHCgCDWXrlxsXUZuoCwmf0neBU3WBzE1AO0CIqD1gWYCXu3d5D9+JnXFCAAAJgFsJ9Dir4LFQAAwATYDwskQAAAkBfYzzGeVwHBgQAAIB+wnxUwBAcAiAfzDkKA/QSABAgAAHIB+5mCBAgAACoA+wkDCRAAAGQB9mMBCRAAAJQG9hMMEiCwZLDkAcgF7McOJmEDAEBRYD9OMAQHAADlgP1EggQIAABSWPrr5mjol9GNgXr5CtaTBwMT91K+MPDMaSDIfuIZIAHiv4gTAADyUjX72bvtDHDrNzvtei8hAVoyzORPblY6QbT2APKK0sc7aioc3bUa9YR0Qr3sh/Ce+TJAAgS8IC+cOzCPPqlkP7T3dJv6SAaehK03SzRRMDB5X28PstBg6kHnZrM00Br7Qb8WSLmyg6reGzWyHz31man3DJwAAQBAE4rbzwDeI8FTqAAAJ5h1HU7Zwbd075F7oH/r3Wbv9o78VpVHbWx+Qki89quf6B9+8us/q79f+9VP+GthucZV+IMDxMgMcyfmHoKGJjgzweht9G/NLevMNMtO+nUpVJKM6ntbO969mdtElyexsWSfTBhxIOlBzPrt5IZ6UIB1/ZZT1Ix0/dipOkfKP+iNrdvInUxOt9xY/5Aj8cmv/ywdSDce9ZVg1kV3hOLHdO8GETvhhBVmGbzbqG/pB4/mZULeQ65zIK6LK3KcSVnP6WORWmqbQuWpXzfiDiRoxi8dhcxutCnEiZPe33KCYRYKDr51PuxmXgZORfnk1382ved4DzluF3v9KXEngGZva0f+C/0hJyeILRQXputHQNf8+uXJtYcsQqwOWaYnT+j9lPu2BDWyn668Z5L0WD/ho4bjVMv0dnLpwSgm3r5n0M978Kr1WxvmsMakH90/WS5uNK5xoXT1ifHEZclx5Uk8pdknE7p2WCdjIAbcvEGMyAdaPZS5rEV3zPoRXWNe+9VPJreCEskVYeV+5hKvhRDrtzbM0s6o/EHU8aHJKbWeYT5x3kOXJ7owJjU7T5OSJ57Y1MKQN4qCftgqQ+jafjgnhTl3wLpB3Elfv7VhGk9eK/JCjw7NPXbPvfwmPRxRXBkm3hNRz3s49iz0cyDrNzeyG0YTB+rafnTqpIf+jsOtDdHuhY/moFncXQqwTIIC6ORmT1y671LsJ5Qz6afALp9Qn0cbSX0HajDzzRriU6Zl98a5l065/CndKsx7JGJWd0cGZqR+QPbbJKHfZizGSNBxsqu77BxqZz+hhsE8ofXO+9HDZREJUK55a9YRZ2RCbRn4zGe/zclk4FMKJLXtJ8InzEdErf/tigrL8Lhue8KE6jP2CY+bcp3I2KcUSBovOZrFQlqlnPtPnhE2MxmC47xsMeVZk8lv6wzHYdBvQtuJ10VRz1xXZuBT2hv1O/SzmXog6TnjYVIoXredA7pkOG8km+OlMcfc6udABHM8pT3TJLTOw37M/IY/37oo9B2g+ithd9Im0TPtE/51UcbTswPVJLpKc1bBqRz64xZ8KUHXa75ZaZ8AHQixdvw/egiOD38htU48xsqSjcc1FFn/nFhLEl2MyTqHPYy4Nqlmec+qaBrK2kdRIUT99/1EM7s5hRLTmYiFC5l0G+K7LRgHtcAP8YmVxCViC2HeC0zcoZ4Gtb3QDdUzStc3gA5DaKXsp9C57uSEchIg/Xmd5istun7OmR8hch9LW+hjCT26EteFv8L/5Jmw7JfmtV/9RM+B6MLkou0p5ZcnaIkW87d13IgWqlYMRcHsh+8NzR/uCd5zyKullDOlt1X+HkrHhfQnCmdH6ZkFnTzpSVNt8pu3qJXrmOfEJjwNWrkPbV2wp8QqPhzKDr55jyr0sPWNS/wwuqIw5yAQa5DoU9dSIl21KXDWdUKVOjMO0ouNNjwQ7yf8DZinhXOwzG2sm+kFSFkLx1tLcy166z1X1VbXJYSYEYwZ9KsZlZRW/3LtNpS1V25cbKUdQUfvEFqbfkCPv7VaJg6ACIjKjJp8zHAv2K45o3jv9s48Jl7Pgt4mYQMAQM/MyX46Sn2EveODjiEAS2Hc1KcaM3juxzwp7b0nCmIlbAAAqEPE++gK0bX9dPJsVBC5nkIFAIC8cCJqzc79nAbfuiM8+4YzATACw428SSoPLHWd/chz0dctHwZIgAAAHWJGVP3z+nRtP5JZWA4f3AECADSkn4iKwbc0HDk4JmGDIUHPSYhhR97qA/spBRoqAAAQwH7agAQIALBwYD/JuDNxJEAAjAZG3vIB+2kGEiAAwJKZn/3M61lUJEAgmr2tnSZvSq2sCArRf6icn/0I8rTKF6fXfn16bD5eNAGqEEfMV2ryReXG6e9+zfLDQrtVx0gcbEqp6HMYoch8wWsuOrxenv24Wzo/7OjblA5T5v5rx0aSHp/72bu9E/dKHnlarRsQX3kLE/dDBf0U6mIfA5JvTxm+r62/JCb0YIk32dAvG41+Fan6CUaGQ6n/qlAv/Tzf42KW2U+PkAnQMg0GmFSz2yFfONsYTDrITVL2o7+baJKyTDoCxFf6t+or11uPiLch6b91/cq7W1dRQ9/CZHY/P/n1n/UXFX/y6z+rv1/71U90f9rb2lm/taHiVJYX0ZvfTnrlumKQqPxtqCIf80xOjtHcLXHqXL/ln4HoxMK6W0KRcxTEyXGVM05RrNZY/oFwTizzesXVWLp+hhK3ABjzV+ZAiwxl3uhk3TMdsoh9ev/LjKL0IJYk3n70kzU5EZPzKEcbXa+7Nk8EUW4iw1VfWV9qyxyXmxSV/mE0siUrN/rk13+2NmbZwPjtR484pg/p+zF3S//WxSQECCNG6PuMCASuGGpGIpfo5Lf6GSC0XKWN8B76ZBJXhLgW6rS7zozrVNPHqH+ud5WEVmNlP8l6j8S1W++3xDlPrLFxuSZxlc2OMh8ZTFw/dMUZIsxOoqgZY+lCWiOel0l5JidE3ydnb0mDb3qYdn1l/VYvXw8DlMSBBKDl5kTf0IoZxOPeY6+2Dy1AhNYEV6CM3jkRBehuL+d2iz24kIW0lsecXODyY3VN+eUpweSKMAO0dCOVABHnPPTEMmuIVTHiesVjjLwxI6wel9dvbkTcmS4RIVMinrec/H2WmnpAXJuJQ/ZgP4XuGer9NflH2zu6RKwxe8FBu40zS3qfrh2qpFD9d/ItvU8XcbGMc8iuLLbJtIto0dd+9ZNPfv1nzpjehOhakXJ+MnuP3GehKMH2HvoWRh3ovCKUPFMPIl6fpzoCvU0XScKWADFbUWVnytUyQ8frsuxW9nyt23g9Rv9trvIwf66j4mNceXIRpPvar34ii1rBOBPPT+ZqeXBsEq4MJpG40bxy5alDnqkHVlwnxXpzhdh/lpOrC5ljndwJBbHlUY3HNQlbDm6kT8LWR9InBch7D9Yk+845t768oZC4I12iPN6fZyxPNBHln0ycybJPCfN81r9ehfBOvKrjJSoGesMvk7h55/H2M5kCYU57CJr8NsE7uSLuUll1zRNn3sELuFN1IMSapmhrNnIcYzKVKBdEQyWmCaTg8oB1cm6Sd46W+nCyQeiNNOZXRMnN8qRH28kQIlHUjONIVlHriTX9hqiu5ukKKq11HNV7fjhEONDktAtxOKRBTxwQ7tDk/eFxaUMiuHdjb6jkTGALQp+oxdzJ2is3LsaJTSCmOwv3ERIZkvXbuImP3t169xzmdqv2Y1Z9mQBN5r8pciVArm/V33V6hdEzCLz7NH+lJ3+EYj/dYdeBCFGqryDI065/ZdZMYuoBvVtOkYKuV7mcxlKFtBH16AAibBEyQ2nTykN8lVhUTsDcu72Tx376mUTQC2ue74k7PXhGFTTHVT8XVznxqGkUTPtJfe5HAe/JxWKX4QEAzJcIR0i69xP92/E58CRA9EJwAID2IPUJIcIRsOZbj8CZAADDA/tpBj3CBgcCAIwN7KcYyNwBmC9ov+WB/ZTEV4ORAIEOEsRPDAAAIABJREFUQcWD99QB9tMYTHIDACwT2E9h0rpR6IcCUBukPrWA/bQHCRAAYIHAfsqDBAiAuYDUpyKwny7AHAQAwNKA/VQBXSoA+gfttC6wn15AAgQAWBSwn1owOlaYgwBAM5D6VAf2MxuQAAEARgL2UxEkQAD0CVKfFsB+6oJJ2AD0BrynEbCf7kACBABYArCf6iABAqAfkPq0A/bTI5iEDQAYHthPCzAHAYAeQOrTFNhPIzAEB+bGaF0ieE9rYD/9MlprBwAADdhPO5AAAdAKpD4dcLJ1AZbNgRBr1Pf7T57BZkA6e1s7rYsAFsr6zQ3XV8h+ZgycCXCA94CG7N12Vj/YT2t8gwCYhA0AGBIMvnUAhuBALdZvOUdCFLKy/eGnL8v//uyPn8s/Cs2F2Xp3U/5x6/3tEvu3CN0vLHRlEUIqrbEOrxFJj2LtlRsXcxQPJEM6EG0/mCMHCPTBN9p+ZIC+/IM967cPvljP5RDKCVzUE8oUuFWAXpQQ4UC6/bj8CfbTDaT9CNKBYD+AgGM/epgm7Ef+keINK0JnLUIPnq6rv+sJJYRsPUxfPrtnjqc/eHo+u9Dmmd3Jt9tfntf/W03o6tXfyj8mHgP7mRtIgMaFuP9vWsLe1o7LJ4ivONLmbznGo1AOJMK9wesHK0IJJhQvFBiyDeMRxL3cFBNSQqYZmOj2UEfI6kAc+8HUg54gpyHAYBaCdAurXRFfxaEi9eUf7Hm9Z7KZd1zLLnR2z2sJk83qCfmGm1aEroQJbZ7d3Ty7myLEsQS5mdqytNClM7tCiHv3bshPOPd7dGA/nRH7NBzmJsyC9Vsb5r9WhdG9J+iHoQ6kW0KYUKADZRDixWu5mWE8ztarvgh1ILnZ5tldpiUoQh3oUOhMgJA8qBQHgv3MCUzCBrmI9h71K/lDrzFEW8LkV0whZi5CCfnitfKe1Y/93iPhO5DynrheKd+BlPfEyCQ4EOynP7AcCKhFnPdM4KQmcZaQ/tvsQkHDWS6UAxUXYjhKFqE4B4L9dInbgZAAgXToCdZcDvzxWmUkSUJHeyB8LrOQLyJHpz4K6UBeoejU53gPZ3hCgamPWaiJA3HAY6e94n4WFU+hjs36rQ16ckGW20W09zz3b7/T//v9399b+VqLPZfP7j14ur717qY5P41jCc+9vir08XuuLWsLXdk0p41xht2ee/2O/t/vPr7uEto8u7v99Lz1q+NhNzcn3lgV+sgpRMAZdgsVWr+5wcx+YD+jce6lU5gjNyS5JrzRY2UT49E/PDShTIPDEz/QPyS8oW+hO+aHJ16/I0gTsvrcMbazPfED/UOrN2ye2d3+8rxHyAYh9K1N6NKZ3Ydfnt+6ssl0IAy+dUzsEBzolr2tnck/emPzw6Iz5azes/JtSe9hfttWyJX6WL1HcYL81oor9bFaAvNbu5Aj9aF3dTJcyLKT9F2AgviWg7OCBGhGWB8j9Y6/JZJlxsHx3s7uCSEe/8e//OyDz9WHf3jnZSEyTxmoLfRzr1CqG0uPmYylv//THwqxm2P3mtAZKfTiitA7Lx8K5UMmQMyNkf10j6MKYg7Coqgw8kanPofb5MhLODuZm5A/FSASoPd/+kOmECe5IbZ5/52XMwoRCRBzNh2ynzkQlQOBrrAOmnlNZZIbNXxGFRgUfkJiAQ9gIPuZCba6iARoYAo5DXNxHeAD3pMBZD/zwZYDYRL28CQOu6F6gG5B9jMrAvtECD2zZpIA8fOhcy+dUv8KlAsg9ckD7Gf2YJJb53DmWKeTbjnTZ0uLkfdpm+pCFnP43v1Yj4J49Ccvcc+fRmB99CcI2M/cQAI0W4Ie+plgTX0iLEe9OXvKAatqEQFdn6Ns/jeU8YQI3v3jP5hbJlrLu+xDiBaSs66Zz7fCfmaIESYwB6FnUiYRmL/NP7CmGQ+dLri+ffB0/cHT9f0nzyb/5OdBuwoW2n+2v19MaP/Z5N+Dp+sPHMvk0MmN69vtp+e3n56fnLe3/+vT7S/PbzuenqGNwfWt3OH+k6/1fylC6amPwNSDuYKp2LMi0YFK3cWxpTsyIptPw2QfyPr+4/esz9wECPFGAjII8fju4+vWh3uyD7t999F163M52YfdXEJZvEcIgZdtz5lVB8LbuEcio9988us/q79f+9VPxOED/HmQaYfrfdi5FqK2CK16j2Mx0AQhx/DRkdDKYgFxcwXkeqO0UPQ7eFaEyAGxrSubXhXmAeojb3jZ9uisVgoYzNypM2ONHhabBz3NDeupLJG4xt8k5Q4Q9jNz2FUDd4D6pPIkadlHkTlEugPRqU8pIVudlz3ubELuO+dHQofxOjo006mP+oo2BpaQby5ALqGgSQcS2M/80VoAEqBZUC3Lkf+s36Ybg9d7igi54326A3m9Z3Xj+Hjt9Z6VjROMwes9XqGIYTc+sJ8h4NURJEANqWw5/I5IXLyO+FUGIV49L31EKsjGORDfe9Q2cQ7E955EoTjvEZh6MBRHMxEwB6ETao6nEegPGJlz8NQa2Pz79ipSe1MfUyhodsCKEM971FrLMYcTEkCVEP1OUh31btNIIfY0BOUiiULeU/7QLcSZegD7GYs1IWA/TenEcnRo+xGrb2Ggo3ac8YQK6YmId8zNLsQzoRWh8M67YJuQ/lLtVCHShPT0JV2IOOsPfUKwn6WyBgeqSoeWo+O1Hwn9Em6dOO8JVREhSY9FiPfKGREbpiFEC8F+FgzpQLCfdDq3HB2m/UgIe0hxnUihHHN+iWCaGKYhRAD7WTTnziEBysyMLEcnyH46YoAHahYMx36w6M6w7O8/ox0IcJip5bgovfA2AHxgPwvl3EunkAC5GMxyAOgT2M/IIAHiM7DlrN/aQNIDWmEdeZPAfpYLEqCBLWfCPG754GbPwoD9DA6dAC3QgZZjOTMD3rM8YD/jgyE4WE7vwHsWCexn6YyaAMFyZgO8Z6nAfhbBQhIgWM7MgPEsG9gPmHcCBMuZK/CexQP7WQojJUCwnNkD7wGwHyDpPwGC5QwCjAccAftZELObhA3LGQ14D9CA/SyL/ofgYDljAuMBBrAfcEyrBAiWMzjwHmAD9rM4PAmQjBRrzu9zActZBDAe4Ab2A1Y4d+7U/v4zcVDEgWA5ywLeA0hgP0uEdQcoUxoEy1kiMB7AAPYDphwmQJKoNAiWs2jgPYAH7GeheCZhTxxI+E0IlgNgPCAI2A/gYTMhWA44BMYDwoH9LJeABEhxIOo8NgTLmRPwHhAF7GfRMJ9CheUAOzAekADsBzip4DqwnLkC4wHJwH6WTv1leGA58wbGAzIB+wE1gOWMAIwHZAX2A0olQLCccYDxgALAfkBODifLlV8yDlQCxgOKAfsBQqQlQNb52ULAhGYOjAcUBvYDYrBYjglMaKbAeEAVYD+AC8tyTFQsgw91DlwH1AX2A/xEGs8EJEPdAuMBLYD9gLrAhLoCxgPaAfsBLcCIXHX2tnZaFwEslPWbG9bPn6tcDgBWODj6B0oC7wEN2bttr37IfkAfIB8qB9wddAnsB3QGfCgXcB3QN7Af0CvwoTh8ruMaiFdsXdl0fXXr/nZEiSA0sJAaWDPrlWvMTQH7Ad2jx1NYkZVMiQ4Ra/QN0gMchIYRWr+54bUZF2uv3LgY90swGMSiO3me+8kLfEgEuI4eIKzZjx5rLp/dc+3nwdN19XdcgPMJHRwJnc8otHl217XZdl6hM26hL8sKqbrwMKvQpdPOI3r41bHQ1au/FUbVomvd3u0dzHwD8+Rg9d9CKHPUKtxcPrtHeM9kA2/vOFBo5ZAun929fOQZKUKbZ3cJ75lskCR0ZpfwnskG2YX0unDpzO6lHEKXzuwS3iOEuHT6eIN7924IxmjbBGQ/4JCZZT8EgyVGOWyG6IfKcEO7jhWVCTG72KQQdZAyE+J35KUQ7TpWtuOESNexC32ZU4g4dw9DhHTj8ezXKMLDry6IoxxIHNUxZD9geRzMOTeqW/ho7wn9lVvIf5AyDWJ25CO950CIg8P4HiYU7j3qVxWELoUI6T8J8h4hxKXTn4mjHEiw0yBkP+CQcbIfJoWTJPNJz/Vbqx3AA/+sIWIw/Xi3vplswtEPTfEehcyB6P61QygswnFSk3jv0eCkJimWkFeIcxI5OZAUivOeY6HVHEgH2Q8AGmaekS/tsK8yUCatiZt3lMV71B6I/nWi96hTtenLgbJ4j2CkJlm8J4sQ8yR6c6AV70lgkgN5gf0A4MDrT45/ESvcMC3ElehEz3xtQYD3Fh83ndfA7Cqlyh6b+uhwMnKB534AKASzBUbsdjJkF+E93tTnudd/Z374/cfvWTe+fHbvwdP1rSub5vDOqpAlWj33+h2b0HVrYNs8u7v99DwhRKQ+J2xC33103brx5pnd7S9JIXeicOKNGkIHQpy0CX3rELp0ZvchKUQMu5180yb04TW70OnPHn51YevKJud5IGQ/AOSkVSKSUdfqPcTnDOwZj9V7iM+jsXqPcFhFkpBjh3mFXN4j3J9HY/UeIcTJN+9m2Hn6LgAAEmIqAee3cQlTymPnJrTHPPf676w5kMxvzNkrl8/uuYZoaI858fqd7z62dORlfnPupalQaN5z/O0bd6ypiUw7zr30ovVz167qCNEec/KNO9Yc6JJD6PiWj3GhXN5z9O1dVw7EBNkPAHmI9p5cw3RME0qcdED40x/eeXn1vz9MuUNB2Mb7P/0h8d9gIXc0f3/1iCb/Ze6EQzWh+6t7Pv5voPcQyAkInNnesB8AeiE6icllYAnDa6FCmceIXNCpT2XSh+CYZh48BBfbSUgcgoP9AJCT6AE0+ces5rCBqnQw1S0zuPcDAMjCnGcxd8+QJxf2A0ApJqkMnRjlnUFQlyFjY0cUPL9NLx0G3wDoiwgTCvqJd1nrEILXb6i3CN/slvtzMMRB2IH9AFCK9Zsb8l81Oc5mP/vgc9dXrgdLjW1YCwf97IN/6P/Vf2CdVD2Bs42TIyXX854rQoxtsuwkQsg8xa4HS0O38e/kQ4aQe+I1Z5lt2A8AvRA3AcG7MbGYbBRO15n4jf6DvF34d//4D+K/GcXeXbXqd93OXUKoRN5zZVXoyp/yH5FceJQD7v2AI2RlH+xlOXMj+g6QmfrEuY5MgFwzsL93ZCTylTz7+58an/+rcDwT+t3H14lZ0a7UR657vf9kKrQthWyPan730XVixrMrI5HLUVuEvjxfU8i6DOi3H10npla7Up+HDiH50lLrm+W+/fA68fRP4jOnAvYDpsCE0ig9fUDfv0srPd35/uP3Jg7kMp4UpMdMTChpzM0l9NF1YTx2k2XMrZWQ9JiJCWUZc1vlQHrM5PmedOOR4H0/4BBzIRNlQmO+7yc3XuOJeKkP530/+mYu4/nk139Wf7/2q58IY4UCG9yxH/ptpNHvHjWhX/mT6z0IwvcmnspC6e9BEL5X/hwKTROgmME/OfImhfC2U5DAKHOH6uCdV51lP1bOnTsl//F/4p6AkPl9RDISSedIgbkHGdCThHh7qCb0MFko6JXbSUKa93DA4BvwAQdik2u1N/7n+aYVRF5mOvXJDiF06/520FullyZEl2HryubDr85rCVCNZo/sBxyy/wQjbHMiNN2ZsL//7K3//J8HT9cfPF0v7T3pCRDnTdvHQgnpAucF2PWFUhIgZupzKPSVFEoddmOCez/gGMvtHyEEnKkn4ixHv/czSaFU//pyyO2ZB0dewg83SijoPtB2ilDIXRPlJT0LBd0HepgidPqzAKGjmdYTIdz7AWAQEtMdFypkPOBlJwdR3qNvzE+DIrxnRYidNERYQhMhfhoU4T0rQuxnd1zewwHZDzgG2U+fJLrO/v4zuh8q0W8zWDOhiT9F3+/RhayZ0HYJIVveoNtGyu2rOkKT+0DWTOhhCSFbJqT7k0vIm/3AfsAxsJ+uSM911Ix5jv1IOPe6s0w0qCPEvHU/mFAnFwj2AwKA/XRCeroz+YRvP4pJ9Ck3tw1CowrBfkAAsJ+2ZEx3Jsz2VQ5gEKz2g+d+AGhPOeMBoFtgPwC0JPs4GwBzAfYDQAMqpzty6ANDcKA+xL1G2A8AVWk4zlbtxXcAcIi3H/SkZgTiTg9gnA0AHWQ/AJQF0woAsAL7AaAUSHcAIMhgPxjYaYj1fWWTb0FlkO4AwKFG9kMs3pD3Md0FCq3f3Ni7vbN3ewedgB6A8QDAp6z9eFcNUhskRu0lC8GBegDjbACEUsp+9OhJvzpCrpwqt48I2StC5Msw5FqwWYTo13tsVxdSDiQwFloXpDsARFPkfT/6O4u8ry3Stwl9s6z+Fibvi5j0baKFNs/sel8tpW9TR2jryua9ezeChEAi6W/f2d9/Bu8BSya//cgAyjEenQgHOhRiGM+KULgxyC05fqAT4UCJQtKBMN2gNGHGczD9J10HxgNAZvtR3hPx2yAHOhLajXgreZADKZOLePt5kAMp7wnXgQPV4NxLp+Q/01Gofxr7T55h7XAAFPEvXFAxTt1sSPEeBefVrcfeo1gLF2K8jFZ5T4IO6/W6Kd4zEbp1f1vdBDKvkQnhVa/98ifyj8SgSduhtWzETIr6kyxc76FgAssBwGTv9k6Rez8pRLpXQg5UWCfVVEKF5EwEwcuB6G0++c2f00vlLYa5AfGTyondYboTC9IdAAiy2U+W1Ecid+IasLKkPpJYB/IIGeYR7UC0UBaXmjiQF+9m6Q60fnNjdpPxjsfZYoHxAOCl3qI7J9+8O/nk2w+vZdY4EGJNnHzjzlToo+tx+3NlSAfCoiKE+C5WiPCeE7FC+uAbvZn6+9xLL6q/P/nNX7y/5TOXdRkwzgZANfJkP7L//vbpz6yZwck375reQ3wu3AmQM/U53OEdqyucfMP+uXAnQPRkAdfeTrxxx+oWwm0wtJBrbxFCCUTkezMD6Q4A9cmf/Rys3p93GYwX6UB6f1y4jUcIcfJNezj2C53ZtQi5g7jLe7xsntl99B+vvvvB55MPXdu7DIbD1pXNvMv/jEpiuiOQ8QAQS5GpB0G95Wh/CiXaNkJJsY0+hZpQelwuS7oD7wEgmmz28/bqpIPK4zXRqU+wEKylPEVvFGGcDYBOKDj14ECI52tlNnm5/87LdYTeryXkxRXZX/vlj0tL0D8xrShlHh1mFgDQD1089xMy/mY8Sg5mjtVOSszVjvYejLMBUIIu3nYaPgP7IGr9AS5XPvi8WgLUCTLcmxOvP/nNX3IlQKajyHyIuYpB4shbnPfAcgAoR9ns55vsT/Ycs5IDffth5AM3oTAfIWImaJNZcDrRjxDVRL7lIdoYIlynzhOsSHcAqEA2+3l0tFZbRcJH4SqO2w0/SqgbQ4lZak3WSoDrAFCN4oNv33x4jZ6A4Bp5k2uP7j/5zPxQW9rneBTu2w+v0/PfDjMkY9xOrj26/+RT80Pr0z/ffnSdnv+mZ0i62rZNSH5offrnu4+u0/PfZpEhZaHC4ghwHQAqU2PqATEER3sP78HJ4xyDGIJb+UrLSh4erRLNENL25o775lcyDdqOEiIMxvVVnFAE1bITzrrd0WCcDYBW5LEfGeyI8bdvPrw2MaFvP7wWseabFHo4FVpxoIkJmZ+s/oIUOnpXgsm3H12fOI35CQcptO0W+u6j6xOnMT9phVxOtNyiorNbqxQAwKfqzDfpQN4payGpj2JlTI01E+FAPPwqNVFg+k1cjqXD9JuI1KfCuFYWCVgRAIORbfDNmwApEm/IOxKg9B07hNx5SV4hIgFqSMbHTl3QvgLXAWBUcr7tVGhLX/uFHZ8zUx/364W4zwMxUx/XW3/4MFOf9Lf+mKlP6F2Tybqriv0nX0eXqhNcz/3grg8ATSj1ttPoHCh02M2RA/nToNBht+gcKHTYLToHqjbjAAAAspDZflT4i3CgIO9Rm9kcyNz3RCggUh8LhRtDkPeozUIdaPvL8/AeAMDsyDz4plBvUfMOxK1pFhIRQJUQZyBOGk+qEGN8THlVihBnIG6bFMLgm0I7tJVagcE3AJqwd3unlP0I4z2epg9NMqTozvtEaNWH1oTmOpmFDHuYZEhZhFwmpCdJLiHYj2LgQwNgjuzd3ik48VrGRBVJieG4xFGjiZBjOK6AkHuULK+Qd0sAAJgdxZ/70eOjHk+zx81RhWS3XX8zkFyodLJ4DwBeKjzjBYAV6wBMhsE30D8YfBv40JigwYK2TKJQqYnXAAAAAE0Xr5sDANSEv5aEGl4ufZcRQvMVkom1tVLROXf84BuoQ81Ro4FHqAY+NCZ6IKDtxzvnJVeYg9AwQi4HImpd0sRrUAfYTxYGPjQmHPuZxBpz0j9nuj+HVkL0wxI5hU6vCOV69sMmZHkjWgmhyZMz5mMzVgeiax3sp3dgP1kY+NCY0IGA86iZDv28M0GQUIoJ6ULeR8VTTGhF6LRP6KtcQtTj/Aer9pAi5F03QBe6evW3YrV2uWqd/BxTDwBYOvpCG8xFb9VmnKfTooX0zeKELp3Z5SxTom8WKXR61+s9k81ihT7zeo8Q4u3TnynniBPS90Dw9unP3j51uNm9ezcEY46l2gD2A8CiCVrkSUd5AzO61RcKXag+1IF072GLHAhxcCnQGMilxaZ71wl1IP5iaRNJvgPpY3SwHwCWS7QlKJjGkC50KVAo7iUpKg0KEArzniMhtjFEe4+E70DR3nP4K4YDTe4PjWk/e7d3Cj1kJ/eMJ/jmhevGD5CkvGVKwelfxwlN3qHCEUp5QVeYUJT3HP2WHeVjvUcSYCex3nP42yMHkgYziZPm3IQx7WdCXrdYv7mBV3CCAUh/w6HEu4dooYnxeE0l/eWQYUJc73G+hEyaCuFz7vdqTgVo3uYJpXjPodCpQyFrkJx8OL79IFMBIJoTb9xR/4jNgu7N0ELyv66A7R0Z8zrHyTfuyH/0Zn4hn/ecfPOO/OcRchsDx3tOvnn35Jt3n3/z7vNv3qWFCAfieM/zRyrPv3mXtrtJDqQwDQmrHgTj9TPkRqB/vBmJ6Tfyk+8+ul5USP7320AVwTC/ieWcLCe0ajkn37wrhPj2w2uhQj6Vu5NPpAN9k1vINLbnL94VQnzzN0po68qmd8I37CcYuAsYHiLXOfHGHasDbZ7ZjXhVvEuI8IZLZ3ZDXz1M5DqU0OndyeOifiF3rnPyzbsZHcj0HsXzb97N6EBEUvX8xbu0A3kZf/ANAGDFlZHQ42w01sygmlCWGQeHHI0v2YUCZhwc4/IM6/gb866PFZdnWMffgu/66EIXHUKnWHsb2X70KWpqxlr61DXcTAJzhxg+4lgC3zYShbx3aDhCnJ2sbOOcKOAT8t3mEWTWwoezE++tIA6cnbgcSDBGKUe2Hxq4CACt8M7UagNpPD3QfQHDGPPeT7nbM/3c+Dn30ovLWa8MjEHXoTO1cMUPruuzF8WY9gMA6IrxQqdGjYMb8gQud/ANAFCHIUPnEfCeeMa0H/6Sq/3sGYAeCH2sZ8HUuBETrZFh7jVPOGXu9Zj2I+ATALiRzwNGPKYj4VsU8eAh53lP/jOhqUIfhgpZYjPnsR5im8khEEeUaC0soQMh0qxFHL3+h2BY+wEAxEG7i/XbgyMzs8Yy11OitDG4vn2YXcjhPfKZU7vQ6rs+tV1dI4Xs37r2JoyXiipoB3J969rbylerCRftQK5vHz1zCunAfgAAU1wONPn8IHkEymUMEWvheIQcHsPPe9hC14I+j8blMUm5ke1aujwmMTcSy5n5tnd7p8ScaevrzQHon1v3t7eubG5/ed61JIHLgULNRgo9/PK8a0mCIKchUh+n0FGJg5yGSH0Ohb664FqSIMhpZOpDCD366oJrSYIgp3nEEXKsVhDkNDL1uXV/++pVz5bIfsBywYNTfOhEh3CFlgz2lObc8PbLYT8ALBTOBATO8JrXe+RXoeuEJgmlGQ+R+qwIuW+lsIWcGYkuRNyzYUKkPitCvHs2lNAzj5DOyINv1nftZd9txj0DUBnrEFxQ3GaaincILrPQV+fjVgUVR97DFnIOwTGEWJHaOwTnxes9K0LPnENwfqEQ7xGj2s8SFt0BIAvKgSKMQVkCJ+KkOFCQ0OFPohxIeU+IUIwDRWROcQ4UkTnFOVBE5oTBNwCWjhqzChofi7CEOkK37m8fDY6dD3phT6j3aEJhkVdtzxeSf4R6yaNooUAvUXlP0P2/tVduXAySAZU599KLrq+y3zl3ac39Fv2oxxWEPkRsTeL15fHpBCXCeNoLkZlQRNJjFfKmQaHG4xLypkGhxuMU8qVByqisQkSt27u9g+wHACDEateVyE4SLUGw+8j1hNK8R/8hnQYleo9gp0GJ3iPYaRDtPV6GzX7ovl7K8zquR4iUYt77Q8h+0hn1uILwZj86W1c2XXnJpf/6NGOpqgk9vPqq7eMDIcSle5F32h1CznidV2jbLbSZV+jf3UL/7RGis58xpx6Yc97UkSeahGuSGya/gZG4dX+b6PfMUejKnz6voCKEuPKnf9QR+j/VhP7/UkJj2o9EGoz+vu3JVym71dFzqew+9Mlv/hJRpLmQ66LQ6OfwtV/+OPv+ORe9q2uE3hLogZHtR6fQyFih3ZqooKki6Wu//LEcO9q7vVNoSaGiuB6fKnSB5An85Dd/kSewhAkBAAjMMLUU+5EUitE1Q/9rv/zxJ7/5y9yjp9W25YcZrXTiPeLo7IkjF88l5NpPV0nG+s2NrsoDFoWsfpPWvRT7ye4Q1fKe8XBlOWr0MosD6Sr63QWVBiXun6Mu6aeGBJWk2nyNwYSqzRWanZDpQJh4HQO8JxHivGU8pcSuCqWPsnUp55P/SgiBblnUdMpQJjfIR85+9B6oddghZfKbawIC4FDnXNW8In2mOwD0hsqBxKj202TNt2pBZ+43fqqhroh19CDj+BtncVt4EgASlQONaT+gc+hYjDwSgOFZv7kx7KoHIzHYvdn6jHpcRRmv1kEor0qiENZ8AwAA0IZF2I8+Hyl9V4kbAAAAEKMYM5FiAAANb0lEQVROPZDUea4eAAAGZv/J14XW5RvWflyP5uiPZTQoVjimiZZ7ZqWCiilkJddjp6VVlJZ3MsVc6ptovYTdZEZiFiFvI8p1gZqfuuzNdnJmrPNFo49oTPshDKbco/WFWL+5oboe+oIx2XUnQvrichlVBFnsjEOXusqk71Z6yYMxcF33/SdfFx1hVrrZhfSFE4uuXDVZobHQEVl3pdftcnEp1xGNaT808709M6nW5cxPX5mmkNtNqPDYZul1rwEQq904QDOm/egP1gotnA3zaLqMnrLrUdqEhOZ2JVRKr2B07qUXKxjPfPs0DcFJS2Hic3qmNZcnCsa0H7G6vu+klieGOdeMhsrUybJFyaGqCr2Baje0AAChDGs/wvb+t1lnPJISN2YrC+XtDXBUKrgO1nGIptVNJsCk3FUY2X4k2e/PZ9wbB+u1L5FiE0JFqbBCmiuBG6A7Uo7hJ2hUOMC200ezYL6yJGMxxrefkag5doRxqsVS88V01W7U60LqrYMgnZQ+HNZ8mwHNl5AqoVWNIQ+qAs1rHYTGFsKabwAAANow5uCbdy5y9GRl4rY5XoEKAAB8kP3EgFedAgBAImNmP0WR3mN9rqjoU5mcUqUL6TMOzNuzudbF8vp3lsMxd1JoNrl5jUbNgOssgQGhdJVZCI1sPxUykmoDbtZVpOR9v0KHWXS5KivWxSmyo68nlAtzDHZey9rSFOqFQAhCI9tP/aUtK4A5o1kodxr1h51nfTtwcn7UGct+LIMJWVfXHlLotV/+OHGK3cj2U4E5hpUeqPMCAlOl2sNMk0xuvi9cKHrGILRwIdhPMPr1qPDEfmWqpVaTiJz9pKllZ1s9Pzvf1Z70+5rl3rsBIQiNaT+c1j6viDAS+iuXRMkLIVvO5CaWZNbrqFaAeMtU3kyuB6G8LEfok9/8JfECYdWD3jEnpCn0qQdZGiqxQECdMWVFuRVOS6iMlwQL3zv6Mh4dhJYptHd7B/YzA5ovrSGOZr5lD6kVArc8KPO2c8azN0bGM4GodXlrAoSWKQT7mQed2E9erWpUO3uD0bzWQWhsIaz5BgAAoA2wHwAAAA2A/QAAAGgA7AcAAEADYD8zps5rIgEAoASwHwAAAA0ou+pB3Mqe6W+Bg1BRlfGEur1ANRnv1EGoc6FSz/0kLinNPwwIQWhgoWqMd+pShIIuEITihEo995P+OgPmHiAEoYGFqjHeqUsU4v8cQik/z5/9pL/jhLmH5QjxFyOYixCfdCHmA9u9HVE1QiuD+aB7oVrXXMh7gRKF+DVhPCFRIvvJ0rQ4b72EEIQGFqrGeKcuoxB9gdKFmDVhPCFFTvvJ2K2jDwNCEBpYqBrjnbrsQq4LlEvIWxPGE9LJNvjGKf3WlU3r57fub/P32Y+QSyW70PbVCy6hzXufzVGo2qnburJ56bS95Je6PKJqeNUfOiqD67y59hld61xVrr7QZId+oX93CP13QJXjCD1wCF3OL3R+5f8HR0L/326Q0GSbPPZDixEtU8faSid7XqbQ244AKoR49NWFOQp5ySjksp+H/R1RNThHRJ83Ub7WPepJyOzUU0KnHELPnELmbjlCbzmEHucX+vT4o4PjPx9//SpfyNwgg/0wG+fKAazy+Nmr6m/iMBQ+oZVLsqb9rS5/FiFXJcsv5HMFq0rPQq7QJtjRrQch3XjShao5EKFIHJEWczJUBl2oaK3LKLSuvXbaI8SIDHS8Zgq57EewHYgtdBS9DyZbxTtQBvsJdk43yoToeB3RFxAOEwoV4hiPTgYhd4NZEXI3nt6EiDCtQ4TsgYUqOBAn3KgjMkLNCpyEmBYKqnXFhQ4OG2ySUEhk8HZMCSEi1uk8ziDkNJ5jlSgH2ss18y3de/QtzdEMtf847xGrp05VkVChyc+9pArxGqe+ZZBQaBRIF2JGan3L8YRM6t/7oSvDgRAHPu8RR5XBOvZYotYVFDo6Wtlg44UCIwNR5WghpvcIcSCDaoKQ33uEEG+9+OlbL3qErDMRSq35Fuo9ktDtBc97JHqL4leUiVDoD+OF2I3zUChw++gfpggx45qEH9kTf1hZiHmvqAlxlYF/RBHeU1DIVh0JB/IIRUUG2hisQnzvOdre70AOIZb3KLwOZFJkzTfCe164+PvJJ//82y/0/7516tPHz17durLpmi9kE7Jcjxcu3jWEromjM7kmxNunPnv07EKQkLWGPb8q9M3frk02iBGytZnn31wV+tAQOv3Zo6/mIXRgE/rWELp0+rOHgUJWSzg5T6FqVKsM6icdCaU1WPUTi1DWyCDhxLpJRBWBQVX95PCvI+95YcMI3TuG0IufPv46QKjskqM6pvGoz1McyLbDu67P/3lUAw7CHcjkeZuQ/HBS1VKFVhuM/uGklUY00RQh5m7NKGAVOnkktGZ+58NlCSfdQqY3dCVUDZf38CvDvIVsDTZMyLAEZmRgDgMIdz/bGutkpDVNKETo00n5TO9RH5omxCf/4NvhAbz46UrpHd7D+dYjtHpJXN5jfssfBbJWMmsNY37rEVptNtY2w/y2tJB3jMK6gVfoQBsXCR110bFaguvblJGxakLVCKoMKdeoF6HVBhs6BEfsyvqtCj5vJQj5Yt1KUHUNwTnxeY/rW9cQnJXC7/thx3jrySoBfc0yEudAQoR0iqRQlANFkEWIs5MsQrQl8LfpR6gcQR0R/jZdCB0IcVCwjQT1SlWJIgjqZ8dhzxxI70mkxuvm4pIbwbDQ9EvC7H1EVDLrHrhCR7Yd0WyYN3UjAkEWoQj4Qgf228lcvFMJiLs+eYWqUS0JayAUWA9CG3X0EYWGqQShgs6xIhRrUUXsR+ZfodQ7WV0mQJZKxm48pnkQVTYlEFQTCtpbNaFcxLljz6R3MjILaac4bhwiYs5qnBB7JtsxcREsYkipaOoj5vuy7fF6bUCn2ojiydVbTRwOVv9FCEn6rFrzGssFXSGr9wY7/Zir/RwxXj8SAADmR0Qsnqv9aBOLo4f6Q4VA5ERYCFmF+qxaA575qEnVvQqVDXfR6GXa+fpV53arFLGfx2x5nbiJ6kcEXJV/dlkdU4JRUGjLG/UWJQRc8B8Cm43Qs0pCj7lCxyEuLlTqKzszSXmmh0ON7Cf6GLyBYHJCI66Ka0m+CY+eXdDNLaKbQ6xmaG4WLKQVjtk+J5tFdEU7F4rAuwd5+SoIVaOa10YLrVQYRg8zXiiwUU+E+P3f0O5v9BGldegD+L+xEb6XwbfJmYowarbQtejfBiW9tVP+lBnHTKFZDctwdjIvoXJEdBHijiiyLxJetyO7ceFIIVW0ciMr6V1tL9LnJmNXRROg/PYTcQxxR3goFHJV4irHkdBhPZNVja7QcdX9sHMd0nKShEJigfVbb7/MukGQELHYvpfxhKrRy6n727WVzJ43hODcFfvbIKGJLdJBZvItc/TFsSs61lk69JFCZHyepD7yxg9TqF7288+dX5iHcfyh1rtJOVNCiH/+7Rfmhfnn366Z1SL62svCfvO3a2adtn6Y0mxc+ywi9OE1MxxYPwwaPjI35gsxcQ2LzVeoGp2eOlv1DhMy7qnw21GQkHnzxhptrB8GCk3HhByxzvJhmJBx894avf/vzi+ih90kRZYcvXV/e+vK5uOvXzWfP/UkOgeHR84MoIdCz141n6havQCWRSyDvOdI6IL+jBgnDRKBliCFHj27YD71VkToqwvmc3ze+BLU24VQtFA1Kh+RXShr9VY/Kd2OJJPIIPGaTUT3lxHr7L8KFnJEb3oENCj1EeWyH5eL0kRMmXP1C1aZjhyzZ5uYQtMf0oPSEfNnXH03muiJOqG3waNvm0OoT+/RKX1EastjId59nVBLOBaKakcRQqEhhfkeUptQSJA8cHqPX8iIxnHe4xISuezHKhDqQJw3tlJC/qtyePY4b0EnTpm1nlkbEedl24QQv+XECVligVeI8cZoCNFCJkQdKETGI6JfTe0R4s0m4LwDmxIKbEfRQnwH4ngPKcQLqu7BJK7QUUz29hC83mN96dzaKzcukrv1QwscvzvPvRKDblEc8/QIuZc20i9bDiHnYk16RUwXIpafepRXyL2gFhGmFyukr5qTLlTtlduEYt4jUniEGNW7B6H1mxvMU8eJDHSkZgs5Yt0BqzfPFyLW0dnhCZk/3Lu9k8F+vDLMta04jRNCEBpYqBrjnbrSQmq3hYTM3Y4nZG6Qx344YsJ9JK6RVus+vULE+YIQhDoXqkb/p464AVNZaLLD7EKuHY4nNNkmm/0wJbPsDUIQGlioGuOduhJCroGjXELeEarBhPTNcs58M7O5aOgDgBCEBhaqxninLruQ6wLlEvLWhPGEdDJPvM5yDJwDgBCEBhaqxninLqMQfYHShZg1YTwhRc7BN7MQKXAOAEIQGlioGuOdunQh5gWCUIpQkcdO05sWcw8QgtDAQtUY79QlCvF/DqGUnxfJfhRxRhpx/IMJRXdAINS5UG/GozNYI4JQ50KZZ74BAAAAHEoNvgEAAAA0sB8AAAANgP0AAABoAOwHAABAA2A/AAAAGgD7AQAA0ADYDwAAgAbAfgAAADQA9gMAAKABsB8AAAANWDs4OGhdBgAAAIvj/wGRqnv1Kap25AAAAABJRU5ErkJggg==;movable=1;resizable=1;rotatable=1;deletable=1;editable=1;locked=0;connectable=1;" parent="62kFi7w3qv66KEbBx7CK-78" vertex="1">
          <mxGeometry width="554" height="725" as="geometry" />
        </mxCell>
        <mxCell id="62kFi7w3qv66KEbBx7CK-80" value="" style="group;movable=1;resizable=1;rotatable=1;deletable=1;editable=1;locked=0;connectable=1;" parent="62kFi7w3qv66KEbBx7CK-78" vertex="1" connectable="0">
          <mxGeometry x="22" y="116" width="520" height="518" as="geometry" />
        </mxCell>
        <mxCell id="62kFi7w3qv66KEbBx7CK-81" value="" style="group" parent="62kFi7w3qv66KEbBx7CK-80" vertex="1" connectable="0">
          <mxGeometry y="455" width="136" height="30" as="geometry" />
        </mxCell>
        <mxCell id="62kFi7w3qv66KEbBx7CK-82" value="" style="ellipse;whiteSpace=wrap;html=1;aspect=fixed;fillColor=none;strokeColor=#d6b656;strokeWidth=3;" parent="62kFi7w3qv66KEbBx7CK-81" vertex="1">
          <mxGeometry width="30" height="30" as="geometry" />
        </mxCell>
        <mxCell id="62kFi7w3qv66KEbBx7CK-83" value="" style="ellipse;whiteSpace=wrap;html=1;aspect=fixed;fillColor=none;strokeColor=#d6b656;strokeWidth=3;" parent="62kFi7w3qv66KEbBx7CK-81" vertex="1">
          <mxGeometry x="35" width="30" height="30" as="geometry" />
        </mxCell>
        <mxCell id="62kFi7w3qv66KEbBx7CK-84" value="" style="ellipse;whiteSpace=wrap;html=1;aspect=fixed;fillColor=none;strokeColor=#d6b656;strokeWidth=3;" parent="62kFi7w3qv66KEbBx7CK-81" vertex="1">
          <mxGeometry x="71" width="30" height="30" as="geometry" />
        </mxCell>
        <mxCell id="62kFi7w3qv66KEbBx7CK-85" value="" style="ellipse;whiteSpace=wrap;html=1;aspect=fixed;fillColor=none;strokeColor=#d6b656;strokeWidth=3;" parent="62kFi7w3qv66KEbBx7CK-81" vertex="1">
          <mxGeometry x="106" width="30" height="30" as="geometry" />
        </mxCell>
        <mxCell id="62kFi7w3qv66KEbBx7CK-86" value="" style="group" parent="62kFi7w3qv66KEbBx7CK-80" vertex="1" connectable="0">
          <mxGeometry x="314" y="488" width="206" height="30" as="geometry" />
        </mxCell>
        <mxCell id="62kFi7w3qv66KEbBx7CK-87" value="" style="ellipse;whiteSpace=wrap;html=1;aspect=fixed;fillColor=none;strokeColor=#d6b656;strokeWidth=3;" parent="62kFi7w3qv66KEbBx7CK-86" vertex="1">
          <mxGeometry width="30" height="30" as="geometry" />
        </mxCell>
        <mxCell id="62kFi7w3qv66KEbBx7CK-88" value="" style="ellipse;whiteSpace=wrap;html=1;aspect=fixed;fillColor=none;strokeColor=#d6b656;strokeWidth=3;" parent="62kFi7w3qv66KEbBx7CK-86" vertex="1">
          <mxGeometry x="35" width="30" height="30" as="geometry" />
        </mxCell>
        <mxCell id="62kFi7w3qv66KEbBx7CK-89" value="" style="ellipse;whiteSpace=wrap;html=1;aspect=fixed;fillColor=none;strokeColor=#d6b656;strokeWidth=3;" parent="62kFi7w3qv66KEbBx7CK-86" vertex="1">
          <mxGeometry x="70" width="30" height="30" as="geometry" />
        </mxCell>
        <mxCell id="62kFi7w3qv66KEbBx7CK-90" value="" style="ellipse;whiteSpace=wrap;html=1;aspect=fixed;fillColor=none;strokeColor=#d6b656;strokeWidth=3;" parent="62kFi7w3qv66KEbBx7CK-86" vertex="1">
          <mxGeometry x="106" width="30" height="30" as="geometry" />
        </mxCell>
        <mxCell id="62kFi7w3qv66KEbBx7CK-91" value="" style="ellipse;whiteSpace=wrap;html=1;aspect=fixed;fillColor=none;strokeColor=#d6b656;strokeWidth=3;" parent="62kFi7w3qv66KEbBx7CK-86" vertex="1">
          <mxGeometry x="141" width="30" height="30" as="geometry" />
        </mxCell>
        <mxCell id="62kFi7w3qv66KEbBx7CK-92" value="" style="ellipse;whiteSpace=wrap;html=1;aspect=fixed;fillColor=none;strokeColor=#d6b656;strokeWidth=3;" parent="62kFi7w3qv66KEbBx7CK-86" vertex="1">
          <mxGeometry x="176" width="30" height="30" as="geometry" />
        </mxCell>
        <mxCell id="62kFi7w3qv66KEbBx7CK-93" value="" style="group" parent="62kFi7w3qv66KEbBx7CK-80" vertex="1" connectable="0">
          <mxGeometry x="314" y="416" width="206" height="30" as="geometry" />
        </mxCell>
        <mxCell id="62kFi7w3qv66KEbBx7CK-94" value="" style="ellipse;whiteSpace=wrap;html=1;aspect=fixed;fillColor=none;strokeColor=#d6b656;strokeWidth=3;" parent="62kFi7w3qv66KEbBx7CK-93" vertex="1">
          <mxGeometry width="30" height="30" as="geometry" />
        </mxCell>
        <mxCell id="62kFi7w3qv66KEbBx7CK-95" value="" style="ellipse;whiteSpace=wrap;html=1;aspect=fixed;fillColor=none;strokeColor=#d6b656;strokeWidth=3;" parent="62kFi7w3qv66KEbBx7CK-93" vertex="1">
          <mxGeometry x="35" width="30" height="30" as="geometry" />
        </mxCell>
        <mxCell id="62kFi7w3qv66KEbBx7CK-96" value="" style="ellipse;whiteSpace=wrap;html=1;aspect=fixed;fillColor=none;strokeColor=#d6b656;strokeWidth=3;" parent="62kFi7w3qv66KEbBx7CK-93" vertex="1">
          <mxGeometry x="70" width="30" height="30" as="geometry" />
        </mxCell>
        <mxCell id="62kFi7w3qv66KEbBx7CK-97" value="" style="ellipse;whiteSpace=wrap;html=1;aspect=fixed;fillColor=none;strokeColor=#d6b656;strokeWidth=3;" parent="62kFi7w3qv66KEbBx7CK-93" vertex="1">
          <mxGeometry x="106" width="30" height="30" as="geometry" />
        </mxCell>
        <mxCell id="62kFi7w3qv66KEbBx7CK-98" value="" style="ellipse;whiteSpace=wrap;html=1;aspect=fixed;fillColor=none;strokeColor=#d6b656;strokeWidth=3;" parent="62kFi7w3qv66KEbBx7CK-93" vertex="1">
          <mxGeometry x="141" width="30" height="30" as="geometry" />
        </mxCell>
        <mxCell id="62kFi7w3qv66KEbBx7CK-99" value="" style="ellipse;whiteSpace=wrap;html=1;aspect=fixed;fillColor=none;strokeColor=#d6b656;strokeWidth=3;" parent="62kFi7w3qv66KEbBx7CK-93" vertex="1">
          <mxGeometry x="176" width="30" height="30" as="geometry" />
        </mxCell>
        <mxCell id="62kFi7w3qv66KEbBx7CK-100" value="" style="group" parent="62kFi7w3qv66KEbBx7CK-80" vertex="1" connectable="0">
          <mxGeometry x="314" y="347" width="206" height="30" as="geometry" />
        </mxCell>
        <mxCell id="62kFi7w3qv66KEbBx7CK-101" value="" style="ellipse;whiteSpace=wrap;html=1;aspect=fixed;fillColor=none;strokeColor=#d6b656;strokeWidth=3;" parent="62kFi7w3qv66KEbBx7CK-100" vertex="1">
          <mxGeometry width="30" height="30" as="geometry" />
        </mxCell>
        <mxCell id="62kFi7w3qv66KEbBx7CK-102" value="" style="ellipse;whiteSpace=wrap;html=1;aspect=fixed;fillColor=none;strokeColor=#d6b656;strokeWidth=3;" parent="62kFi7w3qv66KEbBx7CK-100" vertex="1">
          <mxGeometry x="35" width="30" height="30" as="geometry" />
        </mxCell>
        <mxCell id="62kFi7w3qv66KEbBx7CK-103" value="" style="ellipse;whiteSpace=wrap;html=1;aspect=fixed;fillColor=none;strokeColor=#d6b656;strokeWidth=3;" parent="62kFi7w3qv66KEbBx7CK-100" vertex="1">
          <mxGeometry x="70" width="30" height="30" as="geometry" />
        </mxCell>
        <mxCell id="62kFi7w3qv66KEbBx7CK-104" value="" style="ellipse;whiteSpace=wrap;html=1;aspect=fixed;fillColor=none;strokeColor=#d6b656;strokeWidth=3;" parent="62kFi7w3qv66KEbBx7CK-100" vertex="1">
          <mxGeometry x="106" width="30" height="30" as="geometry" />
        </mxCell>
        <mxCell id="62kFi7w3qv66KEbBx7CK-105" value="" style="ellipse;whiteSpace=wrap;html=1;aspect=fixed;fillColor=none;strokeColor=#d6b656;strokeWidth=3;" parent="62kFi7w3qv66KEbBx7CK-100" vertex="1">
          <mxGeometry x="141" width="30" height="30" as="geometry" />
        </mxCell>
        <mxCell id="62kFi7w3qv66KEbBx7CK-106" value="" style="ellipse;whiteSpace=wrap;html=1;aspect=fixed;fillColor=none;strokeColor=#d6b656;strokeWidth=3;" parent="62kFi7w3qv66KEbBx7CK-100" vertex="1">
          <mxGeometry x="176" width="30" height="30" as="geometry" />
        </mxCell>
        <mxCell id="62kFi7w3qv66KEbBx7CK-107" value="" style="group" parent="62kFi7w3qv66KEbBx7CK-80" vertex="1" connectable="0">
          <mxGeometry x="16" y="173" width="439" height="30" as="geometry" />
        </mxCell>
        <mxCell id="62kFi7w3qv66KEbBx7CK-108" value="" style="group" parent="62kFi7w3qv66KEbBx7CK-107" vertex="1" connectable="0">
          <mxGeometry x="233" width="206" height="30" as="geometry" />
        </mxCell>
        <mxCell id="62kFi7w3qv66KEbBx7CK-109" value="" style="ellipse;whiteSpace=wrap;html=1;aspect=fixed;fillColor=none;strokeColor=#d6b656;strokeWidth=3;" parent="62kFi7w3qv66KEbBx7CK-108" vertex="1">
          <mxGeometry width="30" height="30" as="geometry" />
        </mxCell>
        <mxCell id="62kFi7w3qv66KEbBx7CK-110" value="" style="ellipse;whiteSpace=wrap;html=1;aspect=fixed;fillColor=none;strokeColor=#d6b656;strokeWidth=3;" parent="62kFi7w3qv66KEbBx7CK-108" vertex="1">
          <mxGeometry x="35" width="30" height="30" as="geometry" />
        </mxCell>
        <mxCell id="62kFi7w3qv66KEbBx7CK-111" value="" style="ellipse;whiteSpace=wrap;html=1;aspect=fixed;fillColor=none;strokeColor=#d6b656;strokeWidth=3;" parent="62kFi7w3qv66KEbBx7CK-108" vertex="1">
          <mxGeometry x="70" width="30" height="30" as="geometry" />
        </mxCell>
        <mxCell id="62kFi7w3qv66KEbBx7CK-112" value="" style="ellipse;whiteSpace=wrap;html=1;aspect=fixed;fillColor=none;strokeColor=#d6b656;strokeWidth=3;" parent="62kFi7w3qv66KEbBx7CK-108" vertex="1">
          <mxGeometry x="106" width="30" height="30" as="geometry" />
        </mxCell>
        <mxCell id="62kFi7w3qv66KEbBx7CK-113" value="" style="ellipse;whiteSpace=wrap;html=1;aspect=fixed;fillColor=none;strokeColor=#d6b656;strokeWidth=3;" parent="62kFi7w3qv66KEbBx7CK-108" vertex="1">
          <mxGeometry x="141" width="30" height="30" as="geometry" />
        </mxCell>
        <mxCell id="62kFi7w3qv66KEbBx7CK-114" value="" style="ellipse;whiteSpace=wrap;html=1;aspect=fixed;fillColor=none;strokeColor=#d6b656;strokeWidth=3;" parent="62kFi7w3qv66KEbBx7CK-108" vertex="1">
          <mxGeometry x="176" width="30" height="30" as="geometry" />
        </mxCell>
        <mxCell id="62kFi7w3qv66KEbBx7CK-115" value="" style="group" parent="62kFi7w3qv66KEbBx7CK-107" vertex="1" connectable="0">
          <mxGeometry width="206" height="30" as="geometry" />
        </mxCell>
        <mxCell id="62kFi7w3qv66KEbBx7CK-116" value="" style="ellipse;whiteSpace=wrap;html=1;aspect=fixed;fillColor=none;strokeColor=#d6b656;strokeWidth=3;" parent="62kFi7w3qv66KEbBx7CK-115" vertex="1">
          <mxGeometry width="30" height="30" as="geometry" />
        </mxCell>
        <mxCell id="62kFi7w3qv66KEbBx7CK-117" value="" style="ellipse;whiteSpace=wrap;html=1;aspect=fixed;fillColor=none;strokeColor=#d6b656;strokeWidth=3;" parent="62kFi7w3qv66KEbBx7CK-115" vertex="1">
          <mxGeometry x="35" width="30" height="30" as="geometry" />
        </mxCell>
        <mxCell id="62kFi7w3qv66KEbBx7CK-118" value="" style="ellipse;whiteSpace=wrap;html=1;aspect=fixed;fillColor=none;strokeColor=#d6b656;strokeWidth=3;" parent="62kFi7w3qv66KEbBx7CK-115" vertex="1">
          <mxGeometry x="70" width="30" height="30" as="geometry" />
        </mxCell>
        <mxCell id="62kFi7w3qv66KEbBx7CK-119" value="" style="ellipse;whiteSpace=wrap;html=1;aspect=fixed;fillColor=none;strokeColor=#d6b656;strokeWidth=3;" parent="62kFi7w3qv66KEbBx7CK-115" vertex="1">
          <mxGeometry x="106" width="30" height="30" as="geometry" />
        </mxCell>
        <mxCell id="62kFi7w3qv66KEbBx7CK-120" value="" style="ellipse;whiteSpace=wrap;html=1;aspect=fixed;fillColor=none;strokeColor=#d6b656;strokeWidth=3;" parent="62kFi7w3qv66KEbBx7CK-115" vertex="1">
          <mxGeometry x="141" width="30" height="30" as="geometry" />
        </mxCell>
        <mxCell id="62kFi7w3qv66KEbBx7CK-121" value="" style="ellipse;whiteSpace=wrap;html=1;aspect=fixed;fillColor=none;strokeColor=#d6b656;strokeWidth=3;" parent="62kFi7w3qv66KEbBx7CK-115" vertex="1">
          <mxGeometry x="176" width="30" height="30" as="geometry" />
        </mxCell>
        <mxCell id="62kFi7w3qv66KEbBx7CK-122" value="" style="group" parent="62kFi7w3qv66KEbBx7CK-80" vertex="1" connectable="0">
          <mxGeometry x="16" y="83" width="439" height="30" as="geometry" />
        </mxCell>
        <mxCell id="62kFi7w3qv66KEbBx7CK-123" value="" style="group" parent="62kFi7w3qv66KEbBx7CK-122" vertex="1" connectable="0">
          <mxGeometry x="233" width="206" height="30" as="geometry" />
        </mxCell>
        <mxCell id="62kFi7w3qv66KEbBx7CK-124" value="" style="ellipse;whiteSpace=wrap;html=1;aspect=fixed;fillColor=none;strokeColor=#d6b656;strokeWidth=3;" parent="62kFi7w3qv66KEbBx7CK-123" vertex="1">
          <mxGeometry width="30" height="30" as="geometry" />
        </mxCell>
        <mxCell id="62kFi7w3qv66KEbBx7CK-125" value="" style="ellipse;whiteSpace=wrap;html=1;aspect=fixed;fillColor=none;strokeColor=#d6b656;strokeWidth=3;" parent="62kFi7w3qv66KEbBx7CK-123" vertex="1">
          <mxGeometry x="35" width="30" height="30" as="geometry" />
        </mxCell>
        <mxCell id="62kFi7w3qv66KEbBx7CK-126" value="" style="ellipse;whiteSpace=wrap;html=1;aspect=fixed;fillColor=none;strokeColor=#d6b656;strokeWidth=3;" parent="62kFi7w3qv66KEbBx7CK-123" vertex="1">
          <mxGeometry x="70" width="30" height="30" as="geometry" />
        </mxCell>
        <mxCell id="62kFi7w3qv66KEbBx7CK-127" value="" style="ellipse;whiteSpace=wrap;html=1;aspect=fixed;fillColor=none;strokeColor=#d6b656;strokeWidth=3;" parent="62kFi7w3qv66KEbBx7CK-123" vertex="1">
          <mxGeometry x="106" width="30" height="30" as="geometry" />
        </mxCell>
        <mxCell id="62kFi7w3qv66KEbBx7CK-128" value="" style="ellipse;whiteSpace=wrap;html=1;aspect=fixed;fillColor=none;strokeColor=#d6b656;strokeWidth=3;" parent="62kFi7w3qv66KEbBx7CK-123" vertex="1">
          <mxGeometry x="141" width="30" height="30" as="geometry" />
        </mxCell>
        <mxCell id="62kFi7w3qv66KEbBx7CK-129" value="" style="ellipse;whiteSpace=wrap;html=1;aspect=fixed;fillColor=none;strokeColor=#d6b656;strokeWidth=3;" parent="62kFi7w3qv66KEbBx7CK-123" vertex="1">
          <mxGeometry x="176" width="30" height="30" as="geometry" />
        </mxCell>
        <mxCell id="62kFi7w3qv66KEbBx7CK-130" value="" style="group" parent="62kFi7w3qv66KEbBx7CK-122" vertex="1" connectable="0">
          <mxGeometry width="206" height="30" as="geometry" />
        </mxCell>
        <mxCell id="62kFi7w3qv66KEbBx7CK-131" value="" style="ellipse;whiteSpace=wrap;html=1;aspect=fixed;fillColor=none;strokeColor=#d6b656;strokeWidth=3;" parent="62kFi7w3qv66KEbBx7CK-130" vertex="1">
          <mxGeometry width="30" height="30" as="geometry" />
        </mxCell>
        <mxCell id="62kFi7w3qv66KEbBx7CK-132" value="" style="ellipse;whiteSpace=wrap;html=1;aspect=fixed;fillColor=none;strokeColor=#d6b656;strokeWidth=3;" parent="62kFi7w3qv66KEbBx7CK-130" vertex="1">
          <mxGeometry x="35" width="30" height="30" as="geometry" />
        </mxCell>
        <mxCell id="62kFi7w3qv66KEbBx7CK-133" value="" style="ellipse;whiteSpace=wrap;html=1;aspect=fixed;fillColor=none;strokeColor=#d6b656;strokeWidth=3;" parent="62kFi7w3qv66KEbBx7CK-130" vertex="1">
          <mxGeometry x="70" width="30" height="30" as="geometry" />
        </mxCell>
        <mxCell id="62kFi7w3qv66KEbBx7CK-134" value="" style="ellipse;whiteSpace=wrap;html=1;aspect=fixed;fillColor=none;strokeColor=#d6b656;strokeWidth=3;" parent="62kFi7w3qv66KEbBx7CK-130" vertex="1">
          <mxGeometry x="106" width="30" height="30" as="geometry" />
        </mxCell>
        <mxCell id="62kFi7w3qv66KEbBx7CK-135" value="" style="ellipse;whiteSpace=wrap;html=1;aspect=fixed;fillColor=none;strokeColor=#d6b656;strokeWidth=3;" parent="62kFi7w3qv66KEbBx7CK-130" vertex="1">
          <mxGeometry x="141" width="30" height="30" as="geometry" />
        </mxCell>
        <mxCell id="62kFi7w3qv66KEbBx7CK-136" value="" style="ellipse;whiteSpace=wrap;html=1;aspect=fixed;fillColor=none;strokeColor=#d6b656;strokeWidth=3;" parent="62kFi7w3qv66KEbBx7CK-130" vertex="1">
          <mxGeometry x="176" width="30" height="30" as="geometry" />
        </mxCell>
        <mxCell id="62kFi7w3qv66KEbBx7CK-137" value="" style="group" parent="62kFi7w3qv66KEbBx7CK-80" vertex="1" connectable="0">
          <mxGeometry x="16" width="439" height="30" as="geometry" />
        </mxCell>
        <mxCell id="62kFi7w3qv66KEbBx7CK-138" value="" style="group;movable=1;resizable=1;rotatable=1;deletable=1;editable=1;locked=0;connectable=1;" parent="62kFi7w3qv66KEbBx7CK-137" vertex="1" connectable="0">
          <mxGeometry x="233" width="206" height="30" as="geometry" />
        </mxCell>
        <mxCell id="62kFi7w3qv66KEbBx7CK-139" value="" style="ellipse;whiteSpace=wrap;html=1;aspect=fixed;fillColor=none;strokeColor=#d6b656;strokeWidth=3;" parent="62kFi7w3qv66KEbBx7CK-138" vertex="1">
          <mxGeometry x="-2" width="30" height="30" as="geometry" />
        </mxCell>
        <mxCell id="62kFi7w3qv66KEbBx7CK-140" value="" style="ellipse;whiteSpace=wrap;html=1;aspect=fixed;fillColor=none;strokeColor=#d6b656;strokeWidth=3;" parent="62kFi7w3qv66KEbBx7CK-138" vertex="1">
          <mxGeometry x="33" width="30" height="30" as="geometry" />
        </mxCell>
        <mxCell id="62kFi7w3qv66KEbBx7CK-141" value="" style="ellipse;whiteSpace=wrap;html=1;aspect=fixed;fillColor=none;strokeColor=#d6b656;strokeWidth=3;" parent="62kFi7w3qv66KEbBx7CK-138" vertex="1">
          <mxGeometry x="68" width="30" height="30" as="geometry" />
        </mxCell>
        <mxCell id="62kFi7w3qv66KEbBx7CK-142" value="" style="ellipse;whiteSpace=wrap;html=1;aspect=fixed;fillColor=none;strokeColor=#d6b656;strokeWidth=3;" parent="62kFi7w3qv66KEbBx7CK-138" vertex="1">
          <mxGeometry x="103" width="30" height="30" as="geometry" />
        </mxCell>
        <mxCell id="62kFi7w3qv66KEbBx7CK-143" value="" style="ellipse;whiteSpace=wrap;html=1;aspect=fixed;fillColor=none;strokeColor=#d6b656;strokeWidth=3;" parent="62kFi7w3qv66KEbBx7CK-138" vertex="1">
          <mxGeometry x="138" width="30" height="30" as="geometry" />
        </mxCell>
        <mxCell id="62kFi7w3qv66KEbBx7CK-144" value="" style="ellipse;whiteSpace=wrap;html=1;aspect=fixed;fillColor=none;strokeColor=#d6b656;strokeWidth=3;" parent="62kFi7w3qv66KEbBx7CK-138" vertex="1">
          <mxGeometry x="172" width="30" height="30" as="geometry" />
        </mxCell>
        <mxCell id="ZloyNUf51vB2xr-uuzdY-9" style="edgeStyle=orthogonalEdgeStyle;shape=connector;curved=0;rounded=1;orthogonalLoop=1;jettySize=auto;html=1;strokeColor=#FF0000;strokeWidth=10;align=center;verticalAlign=middle;fontFamily=Helvetica;fontSize=11;fontColor=default;labelBackgroundColor=default;startFill=0;endArrow=none;exitX=0.5;exitY=1;exitDx=0;exitDy=0;" edge="1" parent="62kFi7w3qv66KEbBx7CK-80" source="62kFi7w3qv66KEbBx7CK-116">
          <mxGeometry relative="1" as="geometry">
            <mxPoint x="-83" y="262" as="targetPoint" />
            <Array as="points">
              <mxPoint x="31" y="262" />
            </Array>
            <mxPoint x="76" y="74" as="sourcePoint" />
          </mxGeometry>
        </mxCell>
        <mxCell id="f86cPZFn6lTEU8emJ52W-12" style="edgeStyle=orthogonalEdgeStyle;shape=connector;curved=0;rounded=1;orthogonalLoop=1;jettySize=auto;html=1;strokeColor=#FFFF00;strokeWidth=10;align=center;verticalAlign=middle;fontFamily=Helvetica;fontSize=11;fontColor=default;labelBackgroundColor=default;startFill=0;endArrow=none;exitX=1;exitY=1;exitDx=0;exitDy=0;" parent="62kFi7w3qv66KEbBx7CK-78" edge="1" source="f86cPZFn6lTEU8emJ52W-6">
          <mxGeometry relative="1" as="geometry">
            <mxPoint x="353" y="16" as="targetPoint" />
            <Array as="points">
              <mxPoint x="-80" y="27" />
              <mxPoint x="-80" y="-30" />
              <mxPoint x="-81" y="-80" />
              <mxPoint x="353" y="-80" />
            </Array>
            <mxPoint x="-80" y="120" as="sourcePoint" />
          </mxGeometry>
        </mxCell>
        <mxCell id="62kFi7w3qv66KEbBx7CK-149" style="edgeStyle=orthogonalEdgeStyle;shape=connector;curved=0;rounded=1;orthogonalLoop=1;jettySize=auto;html=1;strokeColor=#000000;strokeWidth=10;align=center;verticalAlign=middle;fontFamily=Helvetica;fontSize=11;fontColor=default;labelBackgroundColor=default;startFill=0;endArrow=none;" parent="1" source="62kFi7w3qv66KEbBx7CK-71" edge="1">
          <mxGeometry relative="1" as="geometry">
            <mxPoint x="462" y="344" as="targetPoint" />
            <Array as="points">
              <mxPoint x="590" y="260" />
              <mxPoint x="590" y="390" />
              <mxPoint x="462" y="390" />
            </Array>
            <mxPoint x="730" y="120" as="sourcePoint" />
          </mxGeometry>
        </mxCell>
        <mxCell id="62kFi7w3qv66KEbBx7CK-158" style="edgeStyle=orthogonalEdgeStyle;shape=connector;curved=0;rounded=1;orthogonalLoop=1;jettySize=auto;html=1;strokeColor=#FF0000;strokeWidth=10;align=center;verticalAlign=middle;fontFamily=Helvetica;fontSize=11;fontColor=default;labelBackgroundColor=default;startFill=0;endArrow=none;" parent="1" source="62kFi7w3qv66KEbBx7CK-70" edge="1">
          <mxGeometry relative="1" as="geometry">
            <mxPoint x="465" y="439" as="targetPoint" />
            <Array as="points">
              <mxPoint x="570" y="240" />
              <mxPoint x="570" y="485" />
              <mxPoint x="465" y="485" />
            </Array>
            <mxPoint x="627" y="417" as="sourcePoint" />
          </mxGeometry>
        </mxCell>
        <mxCell id="62kFi7w3qv66KEbBx7CK-165" value="" style="group" parent="1" vertex="1" connectable="0">
          <mxGeometry x="647" y="630" width="200" height="118.14999999999998" as="geometry" />
        </mxCell>
        <mxCell id="62kFi7w3qv66KEbBx7CK-166" value="" style="shape=image;aspect=fixed;image=data:image/png,iVBORw0KGgoAAAANSUhEUgAAARkAAACmCAIAAABhmWxUAAAACXBIWXMAAA7EAAAOxAGVKw4bAAAgAElEQVR4nO2deZQcx33ff9V399zH3sACi93F4iAIgAIvgAQpkuIlipJJ6rIsK5aip+hIHDuO3lPip1jW80vyEkuJXyz52U+R9ERHYihRCm9LlEiRJkiAJO6DAHEssPfs7NzTd1fljwEWEIDt6Z3p2Z0Z1Oevnenu6pre+nb96le/+hXq+dg6oFAodcMsdwUolDaBaolC8QeqJQrFH6iWKBR/oFqiUPyBaolC8QeqJQrFH6iWKBR/oFqiUPyBaolC8QeqJQrFH6iWKBR/oFqiUPyBaolC8Qeu0TfoCAYkjuuNhAYTsco3W1b06JZ9Kp2xHAcACrrxbio9V9aymtboylDahogkhSVhKJnoCQcr3wwm4yFJPDY9a9g2AIznC5P5Yl43ZkvlpakSatz6pVXxyPtW9A7EYzLPhWXJ5UzTdlKl8lxZ3Ts+NZrJaZbVoCpR2oChZHxdZ3JVPBaVxUi1dpVVtZli6dB06uj0bOXd3TgaoqW4In9ww9pNvV3nPxNAFw4FTZnFLAA4rFPitQvHYf6MAxPTP957iBBCfK+WZ9auGPrU3Y99/sHPLF8VWozXj+z+2vf+8uTE6YbehUHo/UOr71s/fP7zJe1KdkTB4it/56XSheMX29VYNv+zg8emCoXGNSyftSTz/K2rV96+ZlVA5AGAc1iesKItyLYo2fxVL1E5w2EcjTMN1rJZBwAwJq+eGt07MTVdKPlYN4+EldDPv/H4+v61S3/rVucL3/6TZ958sRElR2VpXWfy/UMDsYAMACxmJIfnHV5wuIB19a7JZG2DNVXesJFjcjYAEEL2jU+9dOJ0uqw2opJsaGPSr7L6IqHHNm+8aVWfwLEAELDEpBYJmrJiixxmF7qKx5zo8Iolyo7IEsZibGCgPxZd25Eczxfymu5X9TzyR/d96rGdDy/xTduDFR29P3vtaQf7bEolAvIntm66qX9FQBQAIGjKcT0UNgOyLQp4wQE/SxjR4RVbCtgSi1mTswBBTyQ03JEoGkaqAYMo37TUEw595qYtfdEwIiBgrkOLRPUgSxjmYj/sBgLEEka2haAlOwjbrK2I/HXdneey+bxuLKW998Sff5/nGu6SaUsyxezTb7ygGX6+/uKK/Mj164c6EixCsiN0lWNhU+Ewizy3K4YwkiMotmizjoNwQOQ3dndqljWeL/pYT/DLJz6YjP/hjZtjigwAYVPpKcVlS6ytKBYzSTUSMQIMQYrAf+7mG25ZtcKXSlJajqFk/I/vuGVtZxIAwmYgoYYFp8bXnODw3aV4TA+ymOFY5t6RoZv7+3ytrB8+8aGOxEc3b4gpMouZsKlEjAAint4ZC4EAokZQtsWpYIbn2Ac2DE8WiqOZXP1VrQHV0J7652eX5dbNz4ZVIzcMXd+gwuOK/PB1IzLPA0BSiwQNyWNf5ELYUDjCZqWiIsJDG0cknnvl5KgPdQWA+rUk8/yNK3tjiswQlNDCCw0EFwsiSLKF3lJiRsmKHPfpbZt/sGf/WC7vS+GLIl8ufPXvv770920JvvihzzZISyLHfmTTuu5wCBGIGaGQIftSLAIUMCXJFsZDswLHbl/d/+5MeqZY8mUQUa+N98j167eu6AGAkKnItuBHlS4i2nzUCCKCQpJ4z9o1FZcG5Vpg5+DqdV0dABA2AmFD8bdwBjNxLcwQFFWkj23dKAtX9zAvuth6Lh7uSGzu6wYAxRZjWpAh/kckhUw5ZMoAsK4rubmnq+r5lDZgdTx69/AaAJBtIWYE6xwyXAkCCJpyyFQAYEU0srW325dia2/9Ms89uH4YAHiHS6jh+m3Zq4IISmhhHrMIofvXD0s89bC1ORzD3Dm4mmEQi5mEGvZdSBUQQFwLSbYAAB++fr3C+9A11dg0EcANK3q7QkFEIGCJLK6uST4QkqIJpauP5QUAsHVNS08b+YxZKlS9NqGGp4PZkCTeM7zm2aMnaqszpSUYSsYHEjEACFgSt/D00TyIYYI9/WIkJoSilW+K42csraxn01AtxiGqB1OBLEbkgQ3Dzx45bth1zYzVqCWGQf2xCMcyDGYClly1U4qsXrti+z2IYRDDAkIAAIQQ7BCMJ958OXf6mPvloiMolqTy+rqu5BujY3MqjYJtTziGuX/9sCzwFZ9w1S5J6exdffeHGZYFhkHo/As9PryREHLmVz9XU5Pul4sOL9miyuuDyXhEllLFuiZwa7TxgoJQcTnIjuju8mcFsWfbzr5b72Z4AbHceSEBAEKI5RheWHn7fQP3/B6vBN1qSZBsC4hARJZ6IqHa6kxpCRSBBwDR4flqU0ldW25dc++jrCAilpsXEgAglmM4fvCBj628/X4hHHUpgSFIsUREUDKgrLmwjqFmatTScEei8kdED7ifuXLng8mNN7CC29RtsG9V3/a7L8rsagRMkSGMyHH90ShyPZPSugwkYlFZAoCYVuWN2bNtZ+fmmxHr5tqNrlnXs22ne7uSbYEhCAA6gwGmvnZVo5a29HUDgOBw7p1ScuMNob5VXgoM9Q1EV7uFk7LkfNjIhu4OlmqpTblreKDyh0ugHQAoHT3JjTd4KTC8ck1scL3LCRxmRYcHgKFkgmXqckTXeHElrENxDRQSw7HY4AbvZa7c+YAYjbuc0KFGAKAzFKD9UrsymIwDQNy1U2JFqWvrdu9lrthxb6DLLVxItkUA6A4H6+yXavE9rIxGLq3EQoiRuBRbXOBsbM366b2vVz3t+//+fyHUKOe4wPs843ztsKpz5d/98bdM2665hIkjT1Y9R050BTp7F1VsdM368szEQkcDpjQnFwAgGZAn6gh4raVFVkLfqyKEIostWQiGXY5yznnjeOem7RxHW3zTEZQDO667pZ4SHj/yJACwC6/QAQCG492HSVciBMOsIDqmcdWj7IUYgzXJRD1aamDuFD64aIcbpwQ5acGAEY7QGKJrAs41gCayatjl6FVhBIFpvLnRXHmIhFCED1CXN8UNIbxoe2dpaKCWyOLtZnVmQpubWbBAWMYcEJRmYfbgnsVeQjAmGDeiMpfSwPA2dXZ6sZc4rhmILPa8OHe/+w5iGmXv3bJuG1Ofb/SapayrR88et5x600g5jFu7J45DHGdRQyZbLdlawzN71aKl0+mMl9NsQ7V11WX8cyVmyW3BH0bn+6Uv/c2f2U6jXjPvfPdlSfBnFda1xtjsxJ989z9ki7Wv2vzaXTcBgI3c4uJs07ANnVeqBAlcip5Neznt4MSi3/6XUouWzAt5xjTOlBZes6Rn0sXx0diQ1ymm0tTY7KG3XU6wGQcAbAfnSvnG5TpbzmRiLY6DnXw5n3V9IbpjWLbIcw7j9s/V0tOZ4we8TzHpubmUq1mYlc+nu9Lr8OZDzeOlw1MpAJhPcHdVsG3N7Nvl8ZVglYuTb/7GrTREMlIRAE6mM5g03PalLAvj+QIA5MUqObcy7x3x3q7O/PIp93MM1gKAiVyhznZVo5Z2nTkHADbraJzpcpqllibefLnqz8a2Nf32a0Yh63YOOv87j83MOpj2He3J/3nnYOUPg3MbdNla+fSLT1rVhkC2rk28+Rv3kZLF2CZjAcB76bk621WNWjqXzRd1AwDKQpXlD2pq4uzLz+RHT9j6Vc4kjlOaOnfq+Sdyo1VWJRXEssNg03ZKhpt6KS2NZtsFzQCAvFB2d9s6pnHy6X+cO34Q21dRHbZMdXZq7NXni+Nn3O9ocBZGxHKciVwR12ff1+jHszE+ODmzY02/yhkmawmO27JEs5gf3/UrJdkd6OoTo0kxHBWC4fLMhKWVSxNnC2OnSbXshA7CBmsDwFxZPZtdnoRElCXAweTA5PTtg6s03jA4y2U0DgC2rk6++ZvSxKgU75RiyUBnLyFYm0s5upY/d1JNTztXe31fCka4zOsEkbmyNlp3u6pRS5iQ46n0DSt6ZIEv87q7lgAAW1Zpaqw0NVbb7QzW1DkTAE7MzhX0q0eCUNoAQsiJ2bltK3tlgS/xmmjzVZeZFsZOF8ZqzGNe4nWVNwDgeCpdf4bg2idSzmRy57J5ACiImu46aqoTB+GKp6VkmM/RBertzvFU+lQ6AwAab1TygDcIB+G8VAaAomG8dvps/QXWriXDtl89PQoAGOE5uWCyjfrZGblgsrZh2U/sO9ygW1CaihffPQkANoPTcqMyIjoMTiv5yizLT/cf9cXYqWuC/73ZzLOHjxNCTNbOSaUGxfjEtBAQODQ1c3rO0xwxpdVJlco/O3AUY1J1dW3NqJyucSYQODgxfcpb7EFV6g2W2X1ufO/4lIOxyukZuUiQ/3LiCFtO4xeOnbQaFutAaTbeHpt8573pmrOHu1MU1EpbHc8VXj45avo0719vXQ3beebI8VWxaDKoFAXVYXBn2S1bRQ0UHP3J2cMG29hN3RYiEY4/880fL8utm5+ueGeDSsZAdmvjN+grh0Tf9jSqkJdKObFciUd7/J0DGf9yWvmge9W0/vfuvV/ccWNAEMq8Ph3MxLVQVc+eR9J2+X+kX5vDqhTmLN0hSz5LK3D8+9ZuWeKbUuQIr3LWX8+++tXOO1cLMV8ymToIZ+RiSdCAgGpaT+w77KOQwK81F+my+t3X39o7PoUx0TgzpeQqfVS9xdrlH2TenrNVABAUTg77o09KkyMEOCV2fmbpb9O7DunTdQ7FMSIqr6eUXEnQAGA8V/jhnv3HU56ikLzj215mqmWdmst0BANdoSBmiMaZGm8AArHWDuq3pdP/mN03aV/M6spLrKk72G5s13TozNFHb/9QQ2/Rroylxn/wyx/XudUww6FgUmK48x2RRZxjeirjaJukGrN+a7w5JxeKomqxDgBM5Arf37NvpuTP3haX4ucem5VgiMl8cWU0LPO8w2CNN/JiCSMCgBgCBBGCCEEAiGCECSKYITbjEATzef0dguec8qvlMy8U3y3g3/VUIuAExig7DV0TmC3mHrjxnqAUYBeZVOAaJ52f+5tf/P2R0SopeKsiRwQx+DtDD4s4Z81sxlEjrBxgBPZCWkmMiMXaBAGBy9sVQcRmnaKopeV8QVQrbaygGW+eHf/JvsOa6zK5mmnUPuobujq2reztjV7MhSJe2PsZAWIIchAGAIKIxdiSLXaqEYYwBUd/uXRqrzaRshfY9ZmAmjPVbGND8rrjXXdcvyNCV8svhkNnjr5x9K06C+EkNtIjLZSzLcxK68WOu0PDK/koAOTFclYq8pir5O+/tF0BgMla82n9i7rx9tjk4alUQ7fwaoiWKkgclwgqW3u7dw6trlIJAjMZ/VQxu1ed0LCFXfsdQiAzWqKrjNqSxOoAYqq4GSSGHxISI1LHcF8YV5uDOT6T/u3p0cl8UbfsOkNXq9JALc0jctxgIqYI/KpYNB64uMGbjfHoXK6g6++MTyEGxVYo81ayO9gm2XF16X16lMaBEAQ7pMusu4UgmGTHVWyToWQ8JksjnclL9yMzbOfk7Jxh2yfSmeISRm8uhZY8wktspNfrVopqzlQzdPFF+8BJbLhLYlhPL1M123A7vwaaKEmIpTvlOa8PSI7wgkJ9A+1DMCl6FJJtYL3YEOdBnTSRlgDAVG3H9DQrhRCSInS6qU1Q4gIneG2KWs5s9LxIbTSXlhwLlz1bboLMBZNuCc0pLYEQWMQsvJazTLWBCzHqobm0BACmahslrw9LCvO8TC29FobhkBzhq/ruKti6o2aNpnXhNp2WAKA0q9uG1/gjJSZ4tLMpTYgY5DnR09uQYKIVrKYVEjSnlggBNWd6dHnzEiuG6ObqLYkgs0qU97jpkVGyzXKTWncVmlFLAGCWbUvzusgiEPfqAqI0D4hBgYTo0bojDlGzZjN3StC0WgKA4qzhWF4tvWifQuXUQiAESkxgvfnusEMKMzp2mltJzawlgkkx5XXSmuGQRFdktA4Mz3gMcQAAs2zbxvKsBF0UzaslALANx/v0thwVeIn69FoAxCDvIQ62idVcU7sc5mlqLQGAUbI9TswhBIE43XizBVBiAst7bXhq1sR2a+T5aHYtORYuTHtdSFyJ6WpofSh1IgY5ybPfVc0YTe67u5Rm1xIA2CbWC17jr3iZpbO3TQtikBRexMysXmwZIUFLaAkA1Kxp6Z5Gn4hBdPa2aRFklvc+M5u3mt93dymtoSXsEN3znDcvsWKI+vSakVCX5DGhkFGyjdax7iq0hpZgkdPegTj16TUXiEGRHq+L07BDmnB5UlVaRksAUJo1bG8rMgAgkBQ9rtKlLAGCwnKe325q1mwt665CK2mJEFJOe5295QRGDNA4vaaAYVEwKXqPuzOacqlfVVpJSwBgGY6W9/qglbjoMQaZ0lC8x90BAe8D42ajxbQEBLSc1xhHhCDUSRcLLjNK9PJ8dy4UZ3WPDtsmpNW0BIAdkhtTPcqJ5ZlQp1ffEcV3WIHxviLGVB3vy0CbkNbTEgA49iJnb6mlt0woEa/hQo6F1Uxr757akloCAC3ndfa2MvBtdH0oVyIGOO+dklG0vTtpm5NW1VJl9tbjyazAzO+bQFkaGA6FPMdGOhZWc603oXQZLew15mzhpv4bt2+4xeP5Wuv/t1oIQWFZwZNpfSp1+ulf/RJAbXSVGk0T5W1dFJIg/fcv/OW977srKAeWuy6UujAsI18u3vVnD2eK2eWuS120qo334E0feOS2D1EhtQEiL3ZGk3/9r77Jsy1sJUHraml198rlrgLFTyKBSDgQrn5eE9OqWqJQmo3W7lXncbAzOnuO8Ryo4tiXb/KUCCgOxjlNb0T12gyJ58KSmCqWLz/AoHg4Gg/E5r8Yy4zbztWnX+PBeERu7Y7oMtpES4Vy8cvf/VPv2fqLKUNhuJv7V/SEg5VvkoGAg3FWO78efjSTmymWT8z6vD1wi9IdCnWGApt7uyofZZ4PSWKqeH7vRt22Xz8zNlUoBhJiRyL+2E2PfHDL/ZVDB84d+uGrj1vO5bMX2CGf2f7pR7c/vGQ/YQloEy3Z2Dl0/N1Ir+K+XQICxCFmrZj8bO+WYqxIEAA+3yCKxRIAzM/pjkS5kWhkR29o38TUUwePOYTUuaVxK8IyaOeaVXcNrxF5DuDis8IG5I2Lz0pk4MHBjqDZ/5vJ0T1nD//HM/vX944MdKxGCD205YE9p976f28/e9lG6OWMMbc+s5S/ZQloEy0BAMGgZoxw94ILzkbEjm3KitsCA5WPnA55scxiBgA4wrKEAQACYDE2AWIzDmYIyzLb+vu29PW8MTp2aGpmNJNbmt+y7HQFAyNdyVtXr0wElPkvBZsDAAHzFUuaAJiMBQAEAQKI6cGPRzd/PLr5iD79rR/9xSce+sJtI9sB4C8f/brMyz/d8/P53snSHO/z7C1E+2gJAEzVKc8ZgcTlEUMS4nYEB+4LrQ0xFw+FDUW2hcr+7QxhmAsbBduMAwAOwjbjFMSyzlkcy9w+uGpzb/fZbO7Fd0/Olq4YJ7QRIsd+YGRwQ1dHMnh+voHFTEQPiJjnMAsALL6YTKPyrCp9TuUoAGyUugdw/MSrL5qaeteWewDgqw/9aVAMfP/VH9nYdixcShuktaOFrk5baQkAjJItBLlLg1n7hei/iN3Yw1++KToCJDhXGV9V2gQHrOjwAUvCiOSlUpHXIpK4qbdrfVfHd17fM54rNPRXLBeKwH/tnttFjgMAhiDZFhJamMULhi9wCxxSGGHEBNj1dqp7bUfnCpZh//V9X0oVZp/Z97xaNp0WyXe3WNrNJ44domWt+T0yRsSOz8avIiTvMATFtFBPOR4xAgDAscyXdtx086oVQbGtAvwYhDZ0d37ltpsrQgqaUlc51lGOugipOoSMPvfU3n9+Ll2cA4BvfvQ/ferWT+IygjYdeLabluDCbmgsYh4Kr/9c4qYurnYhzcM7XEwPdZWjgsNxLPORTes+sHaQZdrn6W3r7/vE1uuSQYUhKK6FElpEsgVU98IvS9dyB/afeeHnjmkAwL994MufvPMxP+rbjLRPa7iUUtoYEZMfDK+/dIBUP4olJdQw77Asw9w6sPLB9cM+Fr6MbFvZ99jmDRLPMRjFtFDECMyPHutHYjgnlyulpzF2eI7/q8/++SfufMSvwpuK9tTS2s7kHR2rHOS/XS45QlKNCA4HANtXr9za1+P7LZaYnnDwzqFVAMBiJqGFw6ZS9ZLF4ljW/peeyM6NVT5+64t/9bkH/kDg28pIhvbzPQCAyHEPbxwJB3lVM0Km15xs3pEcoUONpJQ8sPYj16/XbfvYzKzvd1kyPnvzDRFJQgTF9FDA8v9xAQBGZAZmZn/7D+XgyGfu/0MA+PoffNW0280t3m79Es+yH960rjMUAEA2a5PGjHMFhw+ZMiIg8tyOgRaOsn1447qILAGCuBYKmXLj8mI4COtGSSoeP3z6kGVbPMcHJP87wOWl3bTUEVQ2dHUAgGwLET1Q/+h5ISJGIK6HAWAomRjuSDToLg2lOxy8dWAFAIRMOdQA024ehqCwqSACul74u//7n9+bONW4ey0j7WbjvX9oQBF4AOgsRz0KiZOU2PDG+Y+OoWdOHPJyYdhQ5uQCw6Dfv2HTN/7plZrqu5zcMbi64ooMmJLHV06wd5Wc6Jz/qM5Ol6fHvFwY0YMqZxDOWhESP/nNz3z+Q//yKx/+fC2VbmLaSkv9scjmvm4ACBlKVSEhhgl0r1yx4wO8ErzsUMemG1MHd2ffO1L1jl3l2KySC4jCo5s3/OzA0ZprvvSs7Uhs6esGgIihyHZ1b2ewt7/jum3Bnv7LvldTk+lj+8vT47butsgcAQRN2eCsFdHw6ljoO09/b33/yN1bd9bzE5qNtrLx7hpeAwAsZqJGlfW2DC/03/HB/p0PXCkkABCC4b5b7l658wEpWsV4E21etHkA6AgEWmv2dnU8yjIMEAhXe1asKHVt3b7q/Q9fKSQAUDp7V95+X/+dHxRCEfdywqbCOywA3DsymCvlT02errnyzUn7aCkqSx1BBQDCprJQbEsFhuPX3PtouH+QFRdMlIMYJjowsubBjyudvS5FsYRhCQsAK2Ph7tBVZNm07BjoBwC0cBzQeRBa+/CnO6+/ieEWNGEQwwa6+kYe+SNOrjLo6i7HASAiS70RHybQm4320dKqWDQiSYgAg12XXTBM9/tuk5NdXspkeaHz+pvczwkZMhDgGKa1wiBkgQeAhFZlNV7Ptp2c4jWpxsAHHqkqp8os8OpY1GOZLUQr/ftdQAAdoYDAsQxhBOw2CJSiieiaRaReCvb299x4h8sJosMDAELoruEB78UuLx/bct7XEnSdf4sOjMQv8cpURYzEIv1DLicwBFUe182rVvBsuyXTbRMtMQwKCQIAMISR7AXHLQihoQ99ihUWEViEEBMf3hjsWXASCQFiAAFAC9l4lW6BIcjFQ8PJSmLkemYx0QmIYXtvucvFcp7/73Aso/Dttndjm2hpnsqSvoUILCwJFxiOdx81JdQwAHCtY+PxHAsAMd1t0MLJAcmbJXwZ0dVrXY4ighCNE29mOIbpDAWg2kg6NrihltIRYl1fz5IjwIUG2hKICzsS5kEIMTUlrOvaut3lKEsYaNN9R9pESwLLDibjVU9blHX3O3jc1I4C4GLjVUAAHcHA9b21dHrNTJtoiUJZdqiWKMuAZlrpcssn47+MNtGSallvnBkDAOI6sJ1867e1lE4ItqovEMC4ZcbU2EN+MoIxtmvZpe/U80+4FQtAAEqmOZkv1lB4M9MmWprHZNz+/Y6u1VCmY5mFMbfQ5qxUAgCjppa3LOiWDQCW67Oy1FJ5ZryGws2SW2IZh3Hc33etS7tpyR3HNE4+9+PFXmXkM9pcyuWEEl+LRJcRjDEAFAU3K8sxdDU1udgMm6kDu92DXNuYNtGSg8lkoehgbDNOUXBr2XomnR894b1kPZ+pYrRceMu+Mepp9UEz8MzREwBAEGDXZfypg3tKk2e9F2sW8/mz78HC8rMZpyLgubKW19stdXubaAkARjO5gm4QIO5pHgh2Ugd2m8W8lzLNYm5qT5UhVkFQAYGD8em5ltmK69jMrGk7ADCrVHkOk7tf9i6nqXde07NVMrBX/jst9N7xTvtoKafphu0AgpKoOoybnPTc3Knnf5I7/a57gZZannjj11VbkslaADBdLLWWY8rGGABUznAfvZjF/Piul0pT59xLU9PTx3/xw8LZk+6npZRcJcFRS2fIWIj20ZJh26fnMgBgI+w+qgYAW9cm3nhpZt+uq75HbV2d3vv6u0/+Q2mqyuvTYC2dMwFgplDKqK00avrJ3kOEEEBQcB01AYBVLp755VPpY/uNQvZK+80oZDPvHR5/7Z/MfJVu2WYci7UBYHSuPdOyt9W62heOndw+0E8QyUjF3lKVZXzYtmcPvZU7c0KMxORktxAKAwCx7cLYaUfX9Jyn3WJKgmYzGABeOTlad/WXlJyuz5W1ZFAp83rAkqqsYgKY2vNKJhrnlVB08HyUPXGc4vgZo5AzC1mCq6dPy0pFjAgAPHPkeP31b0LaSkuGbT/+1sHff98mg7PScj6pVVnpSQgxizmzmCuOn6nhdg7CBVEFgOliafrCZkStwnShdGQ6dcfQaoOzdNYKesh1bOQyRi6zKG/EPGVeV3kDCOw+Oz5daLeZpQrtY+NVOJFOn5idAwCdMysWRYOwGKcycLcd/O2XdzXuRo3juaMnKh6IvFTS2QZmqyNAVN7AiJRNc/e5cctDJ9aKtJuWDMs+MDlt2Y7FOCklhxszLUiAFMWyxhkEk18eP9W6U4/fef0t28Ema6eVXOOmUFPBXJnXAODI9Gz7hTvM025aIgDvjE2+9N5pQGCydl4sN6KJlAU9L6qA4Gw2f2hqxvfyl4zJfGHP2XEHY4t1ZuW8768eAmROLqicQRDsG5/66YEjXsKXWpR201KFXWfG9k9MA0BOKmWkoo+JxQlAXixXrLuTs5mfHjgy11Ku8Cv51YnTu89OAEBZ0Ofkgr8tvShoZV4HgMl88Tfv1TIobVB9iX0AAAP0SURBVCHaU0uGbT99+N3jqTQAFAV1OujP1qgY4dlALisVAcB28JMHjqRaf4/Asmk+f+z8wKkkaJOhdMXLXz/TwUxWLjoMNiz78bcPpFrNPbNY2lNLAFAyzMffPnBmLksQmKw9Fk6ZdaQXx4iYrDWr5Mu8ThCczeT+56tvZFtqQskF03b+4sWXd4+OOxibrD0nFzTOqKczrwxWNc7EiGTK6n/59Wvpstq2tt0F2sonfhmG7Xzvzb0PrB/e0tcdEIXpQEa2xaApeUlTeikqr5d4XeONynDiRCr9i0PH0+WW75Euxcb4xXdP2hjvWNNvsvZ0MCtbQsQILPZZmYxdEjWV0y3WAQL7J6ZeOnG6bLbblhZXpZ21BACm4zx75PhsufyR69Y7DC4Jmsrros0HTClkVc9Gr7OmxpvzDgxCyEsnTr9yctRynMbXfakpm+ZzR0+8NTbxldtu5lhG402Ds0KmLNh8wJKq5pRWeV3jzJKgzTsw3hmf/NmBo3abesCvpM21BAAOIbvOjB2YmL5zaGBDd0dHMKDxpsabGVIMmJJsixf2wEMsQRXDhiDQWTMvXex5VNM6l829eursybQ/Q6/mxMZ4Ml/89m933Tk0sLYjEZGlvKiCCLOQD5hSwJIqz6qiq3mDWeUNnTPNC7N5Bc04k8m+cnJ0It+eO2QvRPtrqULZtF449t7bY5P3rxvqCgWTQQUjUhS1onh+zIMIYgmyrwiKtR18eGrmrbHJM3PZa+QVO1tSn9x/pD8W2dTTdWN/X2XfkLKgl4XzqyQYgoAAZi4fAemW/dbYxKHJmfFc4Rp5VpdyrWgJADAhM8XSD9/aDwABQbh7eOC2wVXzRwki9u/OrpQN86cHjhydnm37QfNVOZfNn8vmnzt6IqHIH9963ep4bN7Kw4hcZvGdnJ176tCxdKm1pwfqpE20JPHC7+14aLFXvTEHIseuvWInsoJunM3mAYS1gzevHfSpiq3MFMBUBiKy2B+9PMTxXC6f1wxgem7fvLite4d61/hXwaagTbQUUkJ/+2/+23LXgnJN07bzSxTKEtOqWtKMdssWcI1jO7bttEwip6vSqlrad/JgyttyPUpLsOvInqLW2kFGqOdji9iMqKl4bOeH/91Hv7zctaD4wIt7fv2NH/3X5a5FvbSwliiUpqJVbTwKpdmgWqJQ/IFqiULxB6olCsUfqJYoFH+gWqJQ/IFqiULxB6olCsUfqJYoFH+gWqJQ/IFqiULxB6olCsUfqJYoFH+gWqJQ/IFqiULxB6olCsUfqJYoFH+gWqJQ/IFqiULxB6olCsUfqJYoFH+gWqJQ/IFqiULxB6olCsUfqJYoFH+gWqJQ/OH/A7q/0Gf7CZ8IAAAAAElFTkSuQmCC;" parent="62kFi7w3qv66KEbBx7CK-165" vertex="1">
          <mxGeometry width="200" height="118.15" as="geometry" />
        </mxCell>
        <mxCell id="62kFi7w3qv66KEbBx7CK-167" value="" style="ellipse;whiteSpace=wrap;html=1;aspect=fixed;fillColor=none;strokeColor=#d6b656;strokeWidth=3;" parent="62kFi7w3qv66KEbBx7CK-165" vertex="1">
          <mxGeometry x="47" y="64.5" width="30" height="30" as="geometry" />
        </mxCell>
        <mxCell id="62kFi7w3qv66KEbBx7CK-168" value="" style="ellipse;whiteSpace=wrap;html=1;aspect=fixed;fillColor=none;strokeColor=#d6b656;strokeWidth=3;" parent="62kFi7w3qv66KEbBx7CK-165" vertex="1">
          <mxGeometry x="121" y="64.5" width="30" height="30" as="geometry" />
        </mxCell>
        <mxCell id="62kFi7w3qv66KEbBx7CK-169" value="1 kOhm" style="rounded=0;whiteSpace=wrap;html=1;fillColor=#dae8fc;strokeColor=#6c8ebf;fontSize=19;" parent="62kFi7w3qv66KEbBx7CK-165" vertex="1">
          <mxGeometry x="40" y="10" width="120" height="30" as="geometry" />
        </mxCell>
        <mxCell id="62kFi7w3qv66KEbBx7CK-164" style="edgeStyle=orthogonalEdgeStyle;shape=connector;curved=0;rounded=1;orthogonalLoop=1;jettySize=auto;html=1;strokeColor=#FF0000;strokeWidth=10;align=center;verticalAlign=middle;fontFamily=Helvetica;fontSize=11;fontColor=default;labelBackgroundColor=default;startFill=0;endArrow=none;" parent="1" source="62kFi7w3qv66KEbBx7CK-167" target="62kFi7w3qv66KEbBx7CK-106" edge="1">
          <mxGeometry relative="1" as="geometry">
            <mxPoint x="527" y="682" as="targetPoint" />
            <Array as="points">
              <mxPoint x="600" y="710" />
              <mxPoint x="600" y="608" />
            </Array>
            <mxPoint x="700" y="760" as="sourcePoint" />
          </mxGeometry>
        </mxCell>
        <mxCell id="yLigq-ZPrXEUfFZHBqXG-1" value="" style="group;rotation=0;" parent="1" vertex="1" connectable="0">
          <mxGeometry x="687" y="370" width="140" height="203.74" as="geometry" />
        </mxCell>
        <mxCell id="yLigq-ZPrXEUfFZHBqXG-2" value="" style="shape=image;verticalLabelPosition=bottom;labelBackgroundColor=default;verticalAlign=top;aspect=fixed;imageAspect=0;image=data:image/png,iVBORw0KGgoAAAANSUhEUgAAAHUAAACuCAIAAACHn9UHAAAAA3NCSVQICAjb4U/gAAAgAElEQVR4Xu2dB4BcVfX/p7ed3ZntJcmmJ6SQRghdEFC6YKEpIvqzgvJDBcUu9oYg0qSIgqCIAiIJTSmBEEIqKSRk07PZzfadnZmdPvP/nHtnXybbZ3ex/H88hs3Mfe+de+73nnvuueeWYw4Eu00mk9VqsZjNpgxfMya+vHONCQIZk03Tcdhsdrs1loqbQNdsFpzfuUaHAEKazqSz+PINIf7IDz+18s3Xva5C9fOda1QIoBFaAm1ZfDWlcLQ7EO5Kg+47+I4KW3nZarEC5mH4WswWUvmYM/8pKhhl1X9JM3QU/9FqTCN5GL79l+RfkprJZDSU/JWe1iSw8m8imUyn0/LLAFN9t1qtNquNtxR3NDi55FsPnX8J10Nn8u/ENxdTtBX4oJe6o5FEMpHKpACRn6VFJV6PF9gOWTXqe7A72BpoV1YP9WFxOpxOu8NisWiIe3Afuvxv9xP/BnwNWBFAihdPxuPJRDwR5yefRdPn1ZRWzxg/1V/giyai715w0sSKCal0WukJEV0umt7G3VvWbN/gdribOpr2Nu2vO7BrR8OueCKB0nDaHHasIZudJ6Ur+bdK9L8UX11UhA4BTKaSgWAXmFWVVFb4Ss9a8p5jZi0eX1Y9bdwUp905pFidtvBkPsZj9CT7mw/sPrj3hTdefnHDirZge3NHCxAXerxUBhoG3P8tQP/r8NVyRzmxUhKpZLHXf+m7P3js7KPPXvKeCn+ZluWBYI3Go/UtDeBFrfgKisp8pb2eJNE3uWju5FnnHXdmNBatb214ZPnf1mxf//z6l2kfbofL5XSBsGoHA3SYA+U9uvS3HV8tNUpNWgLhINI0q3YmyJ573BmTqyb2Yh74urqDz655oT3Y0RHq3N24V4wZs3lnw+43dm1xOZyxRLympBJJ123/iAkz3E7X6YtOriyuAGJNDShpBF+79Iv8XLFl1dJVzz7x6lPoEKrQ6y7QGuNfJstmPT52OmxOh/2cb1z8yuaVhe4xG19QDPocBCYU7U4mEycdedynzrni/OPPArVcZLft275tf93fXl22vX4nNnlTe1M0EdPI6sccNgc4Ao3ZJIqlOxbR6aRwVZdUet3e6tLKWRNmvP/EcydV1faquVAk/KcXHv3t039Yv2MTdDwut7z3Nutl+G/ubH278O1RtdZukE2nlhyx6Jr3f/bMJafnIrurcc+Trz3z2pur/7lhORAg42qUbgNNKiVreikg6aiAQ2MKxNpOyP40m+jWUukUnSTQ26xWX4HvzMWnHTt78TnHnFFZXG5UZDgS/usrf7/9b/du3rvV43RjbyRTKe6+TRrjbcRXq1rd2GmqN1x+PWKlcBITIBKL/GPdS3cvu3/9jo2tXW02izRbcOEmL3IpQLPmsIHOQF/0k4CuLjHkyDfYHcJqQ02fMu+Ey06/6NSF78KG0xQw/n79+F03P3pnR7DT7y1CIw8/r4F46Df9bcFX84qmwz51OlzXXfj5T5z10WKvD/kiv1gi9tDzf/3tUw9gWmEkoE/FimJ0wAgiH0z7LU8uBd1KsPki8Sg6BJQ/e94nzjnmvdQAeSH+B1obfvHIbbc+fhd1ALdUSXY8MxDp/NPHHl/ARUwoQ2ugbd6UOXdecxPGrCEdj7z0+C8eufXNvW8x9Cp0e0nXXo63Q3wMmoofU2e4y2q2Hn3Ewm9+5NqT551gYHXPsvu//bsfd0WCfq9PKeThNprhoK3xzbaa4bww+DMwh2GbSCWCkdDnzvvEsz99FHARW+DeuGvLpT/85Md+dmXdgZ0+b5HXVYC8aHCh+XaoP4MmqKFkMS28bs/qbevO++al/3vb17BGyBcePnn25U//5C/vWfTuQKhL5ALHbK7WH7zAw7s7NvjCFv1SNB6jrf3oE9+66cofoVJhgI7+hvt/esqXz1v2+rMlhcVup5sCa9CHx96on1KKOZVKIZzYGLSbe5964JQvnXfX0t/DKmzTzh674YFPnHVZW1eHEhHr2EI8BvjCELy2BTv8Xv9TP3rkqvM/SQ9Gyvq6jadee/6P/3Qz5r22+bSefTsEdvB60DlSr+j64kIfjezq2756ztcvOtjRzIuIxa+u/PHdX7oFiWYgg/oaQ4hHhS98cCG5bV3t5yx577M/+ev8qXPhEjnFPHj/dz+6vb6OsRmlomyU5F+PbC7uOnfUBf1bhb/8xY0rzvjqBzEQ6Wax7S47/cIHrr8TzsORbjFmxkhRjApfuEdOsaI/9K73PfSNe6bUTAJH8P3eAz+7+tavohwKPYXYQ/92ZHuhDHZwhb6qbzlw+U8/h8Zw2OyMDM88+vSXb162cNqR7cFOrT0GbxbDuTtyfOGSptQSaL343e//7bW3yhggk6byP/Ddy3/w4I1lvhLkGsX375XZfiGQjkw5mDwM5RzOz9z8pWt/8y2GG4A+qbL2r9+5f8kRR2FBj4miGCG+gEsNd4WDF5/y/nu+dAvFgBt+XvT9j7/wxitVJRXY7TKc/dc6U/pFc6BEeNNai+H1bX+7hwaH3kBRFBf6H/nWfTWlVfihRt/djQRfAVcmlwJTayb/5pqbYYIPFX7xDz6xfNOr5UUl/2k6YRCIKQsoM8q488n7Pnfzlx1WO8zz85bP/wTbGd8boI9GF+eNL5mRZSQeqyyufOCrdzIAg3vcrxd+/4qXN61ELeB7/E8W215Yw6qGuKq44vfP/enTN11D6YD49EWnPPT1u3mYdqifGaiSBk/PG19pVnTBZvOj370ffyvZM6BAcgVckdz/JnA1NBo+xAJTB4iRYlIw1M5YfOq3LrsOu9jwXQwOZb9388NXhNdsCUXDP//M946cPDsSi9pttm/e94PnNyynTf13SW4uHADKhZ+v0l+OG5MxkcvhAuIvXPDpr1z0BZzRIzYn8sBXDAaLFVMXO+Zj770U7wm+1O//4ef3PvWHquJK2hQs9luH/zWJmUwynWS+Cgfb/c/+CYhpjtdf+sXZE2eK+3REijgPfJFc3N70aT//9Pcwbhx2xyubVt786B2+gkIZ8qoZ9f/qSysKRkN0Kt+874c7DuxCnhjo33LVT9X09ki8P3ngS/aReGTOxJmTq2rB8UBr45W3XMswx6LH7P/18IpsUEZ6FHynTFNd9pPPhKMhOpvj5yz51DkfY9AxAnMtD3y18o0l43CAPlq+ccW2/TtkRutfPmn4trYSIKY5Fnm8G3ZswnmCXY9RfP0l18yZeAQWcb59XR74avVKBloTUZmM0P4/A1fXnO7riov89yx7YNW2NSgHPJxfu/QaxtD4k/Myh/PAN1dqNNb/4SvARiPm0pmbrXRrtz1+N5KElnjfcWfNnzKnC1d9Pj7MEeJrsP5fbzMMUAlaS5QU+h9bsfTxV5fp5W4/+eS38Vhhxg2/1KPFdwD2/r9Ilh6bwar1xkduZeYQiX7XvBPmTZ4TjspU9zBL+A6+AwKFxYmXqshTuOat9X9f+QwiTGdzxRkflrUCajZ2wDdzbryD72AoaXONgQZmvh6dXnDCOUfPXIhre5iGxDv4DoYv9/CyFrg8LPz56/K/0Z/jif/waReKoTa84Vwe+OoWwV/jEv00vGYyRCH+g2/3dGWZx1csQ2aB+wMnnsfyWXwvw+nl8sAXcqDJX+PSP/+DwRkb1sDU6/Ksrduwv7keiFnyfdT0BczhDkdF5IHv2DD7X0gFMXLYnazAfHLVs8gWCzsF2eFZEPmt76M/RRmNL68BpWA42NB+EGP7vxCxkbCMS4tZ53Fl1Swubgu0o38HpwIyzPzmsf6XamSkiGrftOtNSGOvoOz/j6gIiqlmyluYcpbNB2pnw3DKnge+Wv8CMetnperU/pNeOt7Q0dzv1YC0uah54u/gla/vCnH1qGj8Pi9oI1TSh7euaRBqh3gbgJoul147C0fD322QB74qazWm6UEnt9SaeyxwGg4PJVj4xQ+2+khFmGhLNovZbpXF6LowmuM+oGUTcqnxLnopQWWqfAVuWg+LhS1mccuqKTIZUA2M8tDULGabOYdazz6kXPY056xC0Im5ZR+oFKTnh+9AhMhMO9IocCyVogKK3e4J/qLqokKknN6gPRzd09HRHApDwWWzgYWuCcGrjyxrajwjCwbT6XgqXWC3TS711fr9FJzaC0WTjcFgfaCrO5F0sdjGYqECqIZ+66wvNW8varHkvo7OpmAYam6DGq8NXGED4dA3fQzw1QUQfZ/JwCKwnjlr2oyKkgKnw8F+0Iz8h08kGI/vae18acfeLQebmd63aVDUBrZciA1qCGkkmfS7XCdPnbhgQlV5ocdptZllh4ApZU7Hk6mWUPfru+ufr9tDjTptVtm7gvl4uNnfL7WFtVVl3kPU0uZ0dzzR3h1dsWP/S7v2sP5wIGp94RsyZbT4GgUAI2TtrCOmnj13hou9lVGbK+C0pi22tDVlSSfNKacz7q9yHzmu4vXdDQ+v3wwo9h6IDS411uJhNpvD8fi86sqPLpnv9zhNMYsz5LAn7Y6UDXBTlkzCHnd67OMXFh5dO+4Pazftamv32O16F6dRYfJF6Svoh+OJ+TWVly2ZX+xx2mJ2W8hmS9oMak573ONxXnRU4dETqx9au3lfR8Btt/WiNiSU/T6Qn33Wi0QWDiWA8VTqo0fNP3nmxGQ4Uxz2FSSdNFdaf9rEXmbdO5mj5ni7u8tUmNrd2nHbK6uRGpq2VhS5IqzATZw6bfIli+eyj7Mw6C1KuK0mDEGDmnQDSVOq0x6O+Lq7E4nfrFizrbm1wOHQO7AObxAmdoSeNn3qRYtmmZIWb7DAl/RYTSjuXtTS7Y5A3BcLxuK3vbx6d1uHx2HvS61fEPtN1PbZEEZcv2/2SgSOaDJ10fw5gJvqNFd3lXlSTgQWQUMpgm7GYkLikqakI22t6S6ztTunlJX8zzGLoAMQvK7hoLa0zgWOuVXlFy6anU6YKjtLShJejWZKUUtbMiLCZmZUTeWJouIOn8fq+OTxi2qL/bGkeGahxl9NDeGNJlJI7kWLZqcSpopASUmSLiEDe6KwmYywaIJQy1TGi/3tvkKb88oTF1cWFhjUhgPCQM+MCl9Bx2JBDOdUlr/7iMmJLlNNpFTcemhIkwUtVsheNLsNRexxOEinMKBclSg2d1hnVZedMXMaUEr7VXAILiiZVMrvdtGQrRlLZaDYkbKDBV0X+rrI5XQ77Aip1+XEmNCgF6U8/kBhkdP54UVz6fp0VfFXU2M1ammB57Kj52cSpqpAKQohaU4qe8YMb1CDPajxk0QaBNQKA16ofXTxvMMqfiD8hkofuf4VRJRtBI7nz5tpTprLu/0AIQYD09ouZ9Jd6Jk0s7SkLB4MdDfuMzft745xPoopYUpWxIsPRttOnF776p79wVgM7MTqUjvneea8OZMqCgucLW53xpm0yEZvj9MRt1g9M+c5iyvT8WisrSmyfaNYgal03JQoShV0d0UnV/gXjat5bV897VobM5rau6bW+lko2VbgyTjicJmxgGnaYi2YdqS9uMxstUabG6J1W+zpZCyRhFpxyhsNxmZUly0cV7Vq3wGl1kd+2sjI8dXCSxc/q6KstsTnCNpdGUdCmq2ZzsE9eVb5guMtmGLqKpk5L7Bra+K15zGKmcuymS3ekNtUlj66tuaprTvsdIRyCAEraNII6cIJ1ZmIyZfyIFDAjpQ5KmomHHOao0AUhVxTZ3knTW94+WlLLIIhkc6kfDFvWzJ5wtTxa+ob6NMgJfKoqC2aUI3iL0q6E7pVMUjw+sadco6zqFgTK5ow1T/jyIZXnjF3tkbZQ6eotSc7eRF8ZY5RDXOyWef5z8j1gyg4aY3meTWVNrO1IO6GFcB12e3m4orKxe8CXCmqbqvptG/KrKKZC9x2rAYLZXCnXOakZUZlqV2bVkp46SRr/b6SArcj5pAOzSxDkozDWX3CGYCbYRG8UKMuUgUV4yqOPkUZGthsGZfJbo/Zqv2F5QVuzBhSc6k5Yw6bSfbXYSqbbY6ak84EXKjJTIT6OAr9lcecmrHYuA/HTpPdGrVOKS+u9BZQSZDKE9VDj48KX+HYbKYtw5Q9Y4Uzyo/oVC44VpDHIO3RrVoEyuccFU1Jh8f/9OCWhKXGV+SlAeqRobxjwjIFU2cSfS0aA+EtnDLLxuZY+kt8SaKoQZX1+2lf7dRMgQ/tJIkmsz1up914nc60ykFr4hpfoQM/SdJBiXkNzeCoGOcqLgNcqEFJf4DYXVLurJrgdjjo9FDH1oQVPeNzuWgeIxZeyXTENSMdiFhMjINTNhacpK2CGkuUM2anr0S0c061y08qg0MwinwsCQQRBmK2pFWfoyF0FLiIe4nHxaMWjH5xb6RZAVZYPZ6b2ow9xK0CsKh6Amc9kCjqO22xW6ylHo/cUSlQK3DYGN5ggadMjEyEvYKKanW/j0hmMgVlVTK2F41gsmGdm0weB8PmUZ2mNXJ8RWi4RKCAUgRGyqn+zah9vb0ueYwrmZS/PEZB6GvUWEKUr7rku76lrWYE1WpNRiO6Ag4jqPJNRLrRvka6wCrYZa8shz0/5QbKRO0H6QuvtDC1CUdfkqP4PdRLRmr+X0aOrwJJLjDCGmWQBn7g5LKau1saha2coooiprsPBTLRMF0IHGO6J9mfIUsWlUtIgQHmTV3dVBBGrthzin7XgX1SeFV/+tI5ozG6mxsRcH5yO23lqJ5URyTCg4oUL2XCdH/mdMKaQh0JA8lksGG/3MjhjXT9M9CwP0n3RtVy7o+No1BMsWRS7hoZ5/9l5PiSl8CUyTAYA46YNWFRQyxK1LR2RRpTR3kk1LYXpYhNpoNrX7GpcoMedmjanmlo78IvIW4wEVtBsTUcxrCP2mNSljSegXh0/85IWwvqUvoiTU0Jb9vWdY5UjOzIBWUSdyS648nOaNRmVQNGUUGmXW0dYARYAlM6HYkn0p3NgT11ek1iliDKx2olMd3eiD0ONal7R7IjEm0Oh6XLy1F0+SI8cnw1InaLeVNDU4wzGRxRKYNsfUqaYt37//lEpL1FIJPjhyy08cbXno817sW8BQ2Ub8gWNdkyWw+2ihNT7f3lf/qi/Z1djYFQwp2ImRIilRhfqWTD8mWh+j3SFylqJLVuWdu+aTV4kSWyGTUnMq50XVNbc6gba1rVg1DDx9YYCEINo1ugEf2Ual71Qsf2TVLRmiBTPnWbm1Y9L5YefnSTNWKNp53pfa2dnRGxzUVljfQauf0LcmSMtVXfFaxrap9bXRGORjzwZc4gMpaO5p1L/1hQKZ11PNgVaW10mtIY8PCJaGHndxdGmgPB9Q2NOBi15FI2BBnPw6u79k9e4g84wlXx4rgpGafCurvqX/y7u7za7i9NxWOx9hZrDP+PjFakOZusnZ5gLJNcvmMv8gJwUveqN1PU6icvKe5whBj+gjLaKZWOdKx/pWP7Roe/nPFFItCa7GzjhCXaoqJnDbiD8Uzy5Z37xJNN4ijwHZ38Kn8gJVn65naszhZvZ1JG89LYRbLottqbY3u2pVrq07FoKBLTPQXi1uzusDpMSzftoA3icdW9m1RYOg3cq/bV48mMFkbbcXOxzE5OQUsxbo63N8f3bU827kmFAqGoUiBmk8Nkb7V1ZbypTfVNb7W0Ya5R60p/9KIWCVjDdvzddGOZTDgWT3R1JBp2JfbvSHS0RtEbqmIcJkeLvcvkTW+qb8Zh5IQ3RW2k4jsK+0xKly2DbUdr+8NrN9tdloOFbXFLQjoTJUKRRAIgcFCoJpbBpcBb9e5Wa1Fmed3e1/fXM/pE2cnDSka0IYz+vX/1G9FkstPX1WkLA7EuXizB5vxoOMp5XqJzSaQum2yd8ZJIQ2fwoXWbMZxF8/bIbw61jYwzOxQ1IJa5X9FjKUiFolFaleQunaS5ydaRLIntaws8uG5TL2ojg3jk8msUA4DcNhue6T+v22Jyp1t9nTRD3ajo4vmobkTgQOc2FrVZ/emX6vb+Ye1G9KMw3SMgPIN+5S9Ss7+j644Vq3E8hkpCTS52tusHUasyeNONlmo56G6Pl0Zw1969cl1I+knlJOqBOIda4I4Va6KcnVASbHK1K4eRrlMhx8VPWIxbkskS5lk67121Hu0jY7lRLx0fFb6wRWEEO7MZD9lz23fdvWJ9VyRWZHW5zdjnYmDpD0/aTdZocXfQEvnj6i0Prt0EuFr8pb/S+AmGclFURmJvNbf9/B8rNjUexA/hsYjdYVDjC71QgdWedCfX7Wu86cXXDgS6pC332NE9lA5R297cduMLK99saIn6IiF/iME3RLLVjqbGnWZ1esz2DXubbn5x5cGukKbWe1CTS3d430flX9dZaJjEhmWaIBYv93vPmzFnoatmsqPEjnGsxj/IWkO865+d217cu6uhK4RaEByV5dsLXHleTArpndC5qPVjasd/sHbBNHupx+LIdjVmU1sqUhdr+fOu9W82tVBVxmwTZHMJ5lJjxoQqWlxbc/yECSc5ZhSYHdIq1NNtqe6tseaXQ7te3b7HnDBpl4gGtxd7w0NVnsp7/cNApOEAVrTsAFw4GXu8c/NS05sT7P4Cq8NrcYRT9PTpvZH2+l1dDrOloGcipy+4urxiNikjlK4PT9uaxoY6e/s4h89vcfOTZ+jcDyZD7YnurtYoqonWw8P9wiHqoocaIgmUq/bUr64/8Nz0PSU25kTESEtkUo2JLiC2W2y0GzmLagBqAyEwSPrI7bNcohpipAOUHRZbkc0Fi/sTAZlVV/0yVqu0QXozZZlKsfpIrkFQQFGjAyU7GRCknpqTocaMnKeoLjP1RIuOczKRksp+wdWPGtS0JQCCOHaa4sGmVLBHNs3MwxZanCihhCMZi6Rws/FuL8nVdHJpZnkZ9J/88NV56DVRfJdtbz22i+YGQCx2M14bvjhl6RQfGTbzWDIjKyIEG6Uxsi19AOaMskFH+RAzdrNVa5tsyWWbrvgWlfLvjUUvqpqaZlV0bhL3jcVGByF8yMW/9MJUK/Ihs3Li7u/n0n2A8q8xvh/WLoE88NXgsgyrMxQgc5YJcVIR7BgQC6NqlKsQNPos9QWGlJE2IlMya34ahdZtQtqF/N8/Fn3hMVAWI0SakbCrmddFY6SCCPfLoX6AjVqQ5S8EODk0+1bfnHJS8sCXnCE9rrSa8x6hwOl7yzetdNmdQGkQ1KKkoc3Nvie9j5txUObejptwBapUtt2NEzmbgwiEYG2iozQSc3OnyXaGA5e/55Irz/uf1dvX/WX5E2wawLc3JId54Eu7YMszS4tv/OwPoPvkyqefWv0PDhrUp1QYOXG4oaCp9ICReEiue0RmSM7epgfgSoQ3JQcK95J8jWxf+RXoLWY2WJ97zBkcGcCHtrv8jRU+Tk0bamouD3y1PKIf+FB4jiUAcRJzQJTvcnp7L8YFa/wIMr8Bo2MCnJHvCHSORrAvkzBm1cJxuBBQTM6uPHrGwhPmHqOKn7r9iXtxueU23IEKlcf4Qssjf1mpyUf3crlCqluZbmi9QKcwiExvgRmIqbc/PRXPisBh8qHy1WJ0iH/ZosUahOjpR72bXZyUevVba7fs2aaPuh2S0zzwHZKWbkey5CxHfntq5TB1MSSpIR/oty6HfEs/YOiBXlACrZw2fPgOWOZm5MSYohKOZNCd+dOr/ymHMYgTY+gMxxhfbHmr/TB8tYAo+VXzCmN0CTRWMzZWv8188EzQD+p8RjEecuUXKC0MBEW/HZJu6dlCgY+efpE6NcDMkc+/e+YhdnEO0zUxlvj2K1M9+GbosscYX/I7/JjgwWE17oIvprjSsYfhm6NPs4LAA/FUnMOxOZ+AbpyO+75nHuKgAlm4P7xpz7HEV7ovdeU2HF0GnT4CWRsIMk1WNfCBHhkwHTaESdG0vX27Mq1tz1LkLj4QzjS/6JQLplRP4icnKT637kU5SRu/2vCEZSzxhW/scz65jY5SjgaLAUFSZBVMeV+iHxKMJg8DV8CW+heCWjvIPEsyMaGs+n/f/xkApUu//Yl7NuzY6HF6hjTLDJ5GiK/UvGZlmDKZliLljYR6oafkI3u7n7dEDyhechnStYXCoH9Wo8+Mzca5mh1Xf+Az48vH8TD7s3728C2YEMPUvDrjPPDVUqlLCzecvabH4DodcqIY1NVLrEYlv/3pnH4wyydJ+GE2mZVEOdKveeav6jPlJCeOiDnpyGMvO+1irAVMtJv+cnswwnSybThmr8FOHvhqmLTZSx3WVoz3eYqwtw00EWWYy+1/dTYacf16PjioZ3vqbHjqbljk4USmpZM6Jkz2FS0lujXqCgD8X372hxyXCKYvvbHi/n887MNs6LNlavAs88DXqFU0A5J70rzjr7rgk2xmNM7BlH5DLRTRvBoZS3nwdcmQdCTqUkIR9bMeaPByDXY3p74PPaZ5gz8rfj8rWwNbrr3wCwunzUOSOMXk6tuul7rO83AYXskPXwYtK99cjY3CAJzDaDjO/PSFp7CZUR+/lqsfDoNYVh6Jw2ok+L498ovqRb1pdHNZpe3j1EczsIn7KxdfzRlv8PyjP/6yrn4nG1fz0ryaeD74ilxmyOYrd3970+43OdCVn3dccyPxWKhhfSaxirYiQpoLpbaHSOkl14PJmHHvbdC/QpuurcdZarAKe2i/7ng3Z1Hedc1NskHV7vjnupc4bo6zjobp8O1VqDzwRS3AATji4LjqlmvRDNCaUD7uZ5/6LloJRYy1aHFkCebiK3Itbu0RDZENjTIS1TJwDcoQQ8RFoO75C7icOgCUD33jLoKi4UV/a3/d52/9Cuebi8UxTEvp8DzzwJcXQQ1FipZYtW3t9ffcgFqgbz1t0cn3XXsrtje4s6Q2l2mdF/jiPBvKkzcwFm/HnR5/v8YXnpGNRDpJwLPffe43R89cRDGJ6fOFW7+6v+UA55fk260ZLOeHr4ZY7yTnhMYv3vENIMcp/IGTzrvvutuUxSabL2C3P/3wduA0QpqGytI2MJLLPF4oGvzmBdfPnziPYyAZAXs7k1YAACAASURBVF/xsysJD8Ux4rk2Ur755Y2vAXG5r/RXj91577IHqF6CDnIwzb3X/ZpForK9wmJEbszyM7LGlW9hhv+8NCnmq5TLiVZIID/e/cb513/w6AtoiEzK3Pr43ctef26U4EIzD/96L+5ZbEs/cMMDP51QMY7QMxz588GTzisocn7h/i/xpNfl1W54VR/Kuf6fdElfq5ZlYQgFI8FKX+W9n7rjiJqZnMPFiey3//3er97zXSLUjaxPyy3oSORXQSZ9HX8R14/99Mplq55joghdfOb89z545e/m1c5tDbYixfoxGuN/mvwqPwOnnNu6Il0TSsf//rP3AC78c7Ln71954JsPfq/ILdsQR8/2CPHVEGMPOmQ/kPnjv7jqwX8+QkPDYFwydfFvP/WbcxacFYgEZLGuzGZLTYyo+31bZF73ZnjKiIn4vkXnPPGlv0yrnKJDHdz1/L03PPojxqXaYMjtRUbGysjxNSCmidE/0Bt89e7vYjDSpgpdhXd+4tcfPv7i5q5m1IiV5QYJIB6hf2dkBev3LS2PyAGnE3GS5P+8+4qfXPIDVBkPc7Ly5+67+geP/6TIU4SLUruH+yWSV+LI9a/OhhrWoxqc0Lc/eY/DZ/nyuf9bXODHlvjeh749d/ycXz1zW0NHgyntoA5kAq6P9ycvdkf8sNZmstY4nSFE4rwps4lKR1BVLbb72+q//ufvLN/2Som3BMWszhQaG3t7VPJrQAz3MMrBVb97+YGP3fnJuoN1xCAE90uOu/CPV/3+3EVnM5hm0Il1rNYMjIFeGz7QWmbJF03VGeqiH/702Zc/99PHAFfGRFbrut3rL/r1ZSu2ryzxiikmzyM1YwNvPv6HQYqU7ccs6XJ/2bbG7e+/6ZI/rRR1zCuTyibe9rGbH/zK3cfPXULQPWKQyKYrJSGj7z0GYcnwIiKzjDyJIME02vuOP/Nv33vwls//lFMleZddMTc9dcuHb78i0B2gQ9N2Lg3M5pBF82PC3mj1g1FCDTEsuu1ORhlf+/O3n930j2+9/2uTyyeRyJKfdy848anX/8HKASI5MFjC3qACGBeNwGkyCKz6FtAwWGd6jqw7QgFmHI6fvQTz8dPnXCGwquWRKzatuuGRH9cFt3mdXkTb8GUbXiq9ZnDIvAZ/YMzwNUZELLsDa5+76MWty9/Yu+mKd330M6f9D0wgs+ceewYfQlb95sn7Xn9rHXqQsHcMSaXM2kOhhHoEjdN4S/lH5ewMIiFhzBLw7fzjz/7suR8ndK0BBJ6T7z/4iwefe8TiSY+bXJ5gf4DsectqBEgxhaG92CPgpBfcY4avIKicO5onllAWuYsiicgvn/7V0nVPX7r4kg+eeB4R7uBeo0zw54dffOzFDa9s2buNtxgEYupRB6weVesARcoMXnObau53IBETkP+VJc4rkUSM/RmkHHPEUafMP/HCd50/a+JMgw5e3T/848/4V3c27i5yFbps7qTeQZhTqTJLz1paNgeIA360anjM8O2RXxnQZyFWMU2xJYht/LmXv3zn3+/71NmXf/jUCxkgUeDFMxbyaelsJdYpASQfW/EkAQnwc9L/MPbngQK3h9d1S0eTyB7EHikTnaLmETgzNhAmVCwbjBKsSfA4XHMmHfHBk943q3YG+HLqg4EsYTseeO5hotIRQx3VVFpYArJs1mKzvIzkchyqhuIe5gyxkUW/X8Zgf4Cmiwfd7bcXVrjUws8sxKrZmhLd6a6DUUK54gmaP2Xup865/L1HnaoPWTR4isVjRBPcvGfrK5tfY2Umovj6trXEjEI4Y/Gob4LLJmdEZDfAWC02iV6cTrkjRdPKppT5S8eX1RCEl+hiNWVVuvM0KBP0k/jdyCzxLKgDalcrfQSBBlc8IVsHWiZgmAv90FmPHziFlugXteEkwkZ+5yMOSbTflZPiNZatqSmWDeCb31ZfRySwypJKjos/cc4xZxx9mo7U6XQ4J1ZO4IMrQ2eE7xUPIeqirmFX3BJlyZuqLYl+VFpYOq64hjCPJZ6S2vLx/TLGdO9za1/Aj0p8dIwWYK0oLkOFaCMBOlDDBYxY5IJIItT0gH7UukH4Ghv9oNnqfzVN1pMt5WGMRNs0uzyhSIgu7q6lv5sxftrsiTOYoyWaESuWjRjycDZzwnQNHDEn+0WwbyLahsM3N+9+89FXnty6b/ueg/uYY6eLI+YmOl3HnjJUqmib7CBCfBGamr4L+CyUkmX3ffPIM2Vs8IUtmaBQ2sAYBWvQKYIs9lKpWalJp2k7DEYoFSfq0n6XrnqOpfAcTUovT7AfzKkzjj7VzkI2ZcYNVCKJHc2G+WCA6FI4Feknmcs52N6E2UBOTDr0hP6UEL1kbSBrQClaPJm22tmxlM1Ec8jfgRZaD8TMQOljg69GttfKX82rhjW3rely6naKWpDlRkq0dzTsZloPUsA6uWoif1GyLEzi+cJyNp/IzIjR5yB9+9v3tzV1dTaH97XuFy8SXaKrAAcIZ1ZRyUBnxPPqhWwOvlSQ8j31SIWWiR5pGAi0PNLHDl9ZOXloxT0sZOVX7Y7vy5EuM50hW5b5DkCoyB5pzTR1NPMOLXTr3re4WzKRHUSW3BloiDudznBHPBJMlPvKNH0xK0TXZ6WxX1gNToza0mgaoGu2bU7RDUpuRqUkxgZfEQHpFGiX0jn0ulLKud4/ryKQhwx7tfFIioT7QoiYxS7mZxG2Wh98EdmkzZS0ZnRT6J3rUL+FZw6ai6Wd3t68UQrplmW/7mj9M2ODr0JWmIInAVpd+ovui2EUOR6qyHJfy0u2waoNdSgKmRzl7Vz9QOGVZUJmst9jZFcPp2qAkj2mBrZpBWY5fyk7hzAy2vqt0daPpkI56RBMHOcpoykZT2Uv9YVnurq7+GJAP3yOdcvgxRFjOFheauEL3LLItzsmIReEcz5gi7pXSnkEPOfmODbyiz0QioUuPPLcL579Be1RNXCHP44AuPkvdz780mMjC2aG7OKet8mgT0qr60kVe6Ri2wOAIJgy4Tv1e/xfOfeLCyctUKIrY+6OYOeHvvNx9vDgfhushoa6Nzb4ImUowWp/VW3phH5zvOtLN2M2/eXlJ5g0lMY+7EuarXL9IL/8g7uWqQdmTETh9NX0wyYrVcXGFTNbyJM+u/v3n717ZvWM3LerfJVulxOvJmfS5UO197Njgy9FxXhIqEO88aP/6ImfhaIhmaVXTezzp39uRs20y06/6O+vPZ0XuIKC6u60lgAOWvG82iMPdDQQfZlYxb1Lk89vmRS0mEOh8C3n/wRwYeyBV/748rZXtD9vV/PupkAz3axmIB/Chz07NvjKzlKtupQj9ZmNz7WH2m1qXq61vW3frqbHv/uHBVOP9Bf4JCh2PhIhyKpKQi0Qt3bxlEW/+/Tdq3au/tQ9VxmGxwgKLwJhsbYH2z9y6kUfWHI+FB5c8adv/Pk7cvadys9ps7tdrnh3El/ECOgbr4wNvsosk0vTLXAWMP+G0wsBKS4oPm3Bu7hFlFs8BuCVL7tagmgNjEFm1RyBxVbtr0SypELFiZ53Ly+9scVCOyPe2G1X/xx+Xtr68s+e/KXfw9mCcvYqKdgPMWu3GCyju8YGX4BVix2EG0a6v/30nYAiKlJ1vzOrpwMEy2FwqJcVlealIjQd1EIqwgxeV0d3JymMjDvDnU6noysUScbNKEpdB8OEAsHHP+eyO773sa8z3jvY2fTlh65nqwXLduhFNCk55nMsjJYxwxdvgcYXQWOtRq+iMid019LfM+uVN7gqosnRE4+ZOH4cOndB7Txy8Rf4z1l4Jj07g7eNb27b27wPuRsmuCKbJjNRWtmoPnfSEYB409O/bu1qLfYW8x3mlX4Qpxoe0WiQncCjEuGxwRemYU4rSuYsfvLoL5gWYuatNdT247/eGG6PLnv9WRbNuez5LURERdKKmbt79GsP5MI3saz2N/9zq04hyuspXz5XOiKlpodz8SSVRE3z4cuWPVvtcoxVioVS/GWEwx3ZaGhyjED59GJgbPCVsZseIrNQI5V8cMXD7Oa/9YqbSgtKUrHUPU/cO756Yr7gakapNV480N6QYMtwxsQsL85fpO9g50G1gsyy6+BeFNFwYB3oGRx1VA0l+NAxH5heNQ1JEQ+92XTH33+7p6VhlFbKGOArekrvPFdNCSu1tmz80g1PXbztQycdccJ177/mmZUvBrol7KpWIAOVs2+6LAXyeJ9d88L6G9Z5/S7meC49/qIfXnjDjoM7Lr7low6HPdQW7Wzqxgk3fOElF214GMzIXpd0Cqfozy/9US4Pf17+2M70fnwh0jJHeo2q5o1Me+RXEuBGGl4mfdcLvyXed23l+G985FqZ6cl/RKDbBHYIlgO2By2DwaFMvkm4HE5LJVF2LxlNZ2QgJGMyT4jBfvfzv31i3VIWmpARI2bRFcrFMTKy+q0xwFcXT6RY9QT8hDMmj5mfv++l+0m59NQPzJs8W4VdHeGgS9vWkGJ9I6YIvnOdwl+dO39HhIK8BbjQpBZ/vvSmK++7+usPfxtqNgIW2DjLQsZ5o7nGAF+Qld5WbcuDFQW0gtjlfejVh9vDHXQ+37rsuuxJUnkyawCH2kFR7mnZu6Np59aG7bl2SL7gapGUdqbcoZ1dAcbBdG6aeQx2TZC5JVJGM4rh9THSv4iPOnpad8owzcVAgHVzN//ttu99+JtnHfOe9x717qWrnikpKjb833lBzUwDKvL1nWsuuOkiiBMFYMQtF8igwMwp8x0wfN2Hrnlk7V9YFACsaImPHH8JdxkrdkWCQMz30VhoY4CvaqEitk6bkwbLck9d/8yfFxUU3bv0wfMXn3fUjPlfvfjqlza+kutdywtfaIKFLBtkfaNydUrJR3TBLPYyk+fPb3j5PYtOOW/JmXx6Ufr7uqX1nfVutysaio1miDwG+kE0lFkC177VuL2x8+BDr/4J5wNtWcsIQ69v3veDg+3Nr21bM2JwjcJr05WfEM9XLeQSYSVnPJX42E8/99DzfyEkYWNHI6M4PnzZ17b/18/c8atnbhXpVhOjI6rE7EtjsL4EFzVnXRWP9+Bz8Dg8OIIdVrHMdQ6BehyKCY/bw+jWhpNNudvzuqDvq3G7Cm16LlK/C74o/VBrLMyBuPmvApHXWf2XTsFcqa+4ZEIBp6GoRA7HS3eEOlwOIkPYAo2RaBcunpFATLc52PoSLSDDqT1x98vEmxn9oCEWbaF2w7LnmONp0WKs3MHvNzKNqY0/GcEc3tuoMU32yqvCeFiXS+I9FhSyp7A7YrG5ON892ybo4mCc7FiWBeDDAQGaorD6tKr+9S/PAT9gycqBoUwU6YYt1mhCzZ/LmjB1mLz6Dr5wzwNoTE6+H5m+RGydcTnRv7f8ptl6F4vERiK/Rn1I6ZhhidkkKFEPvhScRMSWOYHh0NcQ4dukwrDPc+ujH3yFtNnC1Ajbr9idz8/BpQP4XIX2gnIn1o5B2sC3JBkx5GJwOgPd5XWWtTm9ffC1msO2eMQVxwge6N3hpMNqUYXL4TmEr5YP8I26EyF3bDj0KTirh/DBsqgQA8nAoS++zMHIoTOnLzz5tqt/gTklrXKoAf4gfcBQtTMcBJRq6PcamcbpQ2qU9MUTYjKx/vPjP79qw87NxNc1hLJvbyNmLPL77cu/UlVSgZbAlFEQ9/70zLWqmQuZc6WHkL/6Y5jlfV8cforynss8uVyH0ycvUjQPPc/05nD4GWnApZg9/GfLwjrrnpGiHEasPn3J6vnASVW1nzz7clwCRtkh21d+le2tjucTL4ISv2HN6JBtT78hX/rIyAgTDELqS65q08seVK6K9phlmeW0Jy9VMHWJdUg1q80jvS6AQi2w6FZP2Rl3++IrOpSnuag5Tujfuu+te5Y94HaKzOss1S35KuHtcJVySkGpv9pbVGr1YNywMKM91d2RjLSmw51dkXSYNTjCkNF76DrrzWDOb80ACcgORwbHEmmn31pZ6C02earshWRNjt2ZZGsq3BIONbYFSSHmL/KcDRfU4ykdPAvuSkFYRJJmEVDa5rNwxHKZraDKVujC9QDDZlNDLHCws+tgMFhSWPK1S67GJ7yu7o37nn6wmFGoirGEhcf6zC9f+HnMf/pwINYoGWXsi29WDDWUsM6yu1/+6SaPVzo6/ZoQyqSJa1nhLVhSWzO50l/cNbk0w7BdmgPvF7Ha15S2p8Pb2+te3r9rT3uARAeRKXqWXg8E8aH6UwfHEVSBw8QXjq8+pXraOPd4L8umUEKq+bkymRqOjUm3b+x6a8fBzg0NB4khw9nUNDfdnQ6UBaDo+hMJMTORIWGwF9eOP6N2VqW9pNJW6CDkiIis+KLKTYkOd0OsvfW5tY2t7Qd+/JkfsaAW0+3799xQ4C9DntEGVcWVX7jg03pRft8a7YvvYc/ApdPmKPKVYUjo0ReIE6Sn0Ok4fcbk46ZMKPa4TUmzP1jkjjk4yFy/zNo4hGyCqXrquMqzjpn9xp6mpW/WNXYFVdDbrOnWt/wGuIxBOMEYQ+fsyRNPnTm52l9Q1VnqjGKkkZw1Zpy4uAgh4PCWTy1E0Ha1tD+5pU6fdQ84g7QVDa6IbcZEtML5ZSXnHjljTlnF5M5q8XlKnanlGUopuE3mmV7blIqas4+ct7l+76PLbv3I+V+8/X9vrCguv/GR21g3jwHHQtvcCtOlMEAcAl95UwRC4rDxBbd+IBqfXl5y2eJ5E4qL0lGzo8VVkHCiE4hcCVFQA1t1EG06yMLfrow9aVswvmJOVdkj6998YeceInGDPeBpH4LBh7ClVpsBbigWJ67jR5YsWDihCmPa1mqXE6Mz2fhGquwsXjDFWXsTNRU1FQUd4doi35UnHfXKjn1EfkCr0JAJJtQrC3mxJ2tKA8VzZk177+ypHGtvCVkC8W7ugqougsYXefEFvKlgOmSLHFFW296x+eXl9x533GXfvfz6AqfnO/ezmVZmFOWVQ1raKJN8GQJfzRPvq9CsRGmOHz+p9sOL53CIvbPd408UoKFl0WPP3mKdTU8HmnGm7dWh0mCsu90b/PDRcyuLCv66cSvn+EvJVVCtXCnW4BK2BVX72RMWj/MXmjtt1XE/kRGJjqctsb7FcKRtFbFiQru0ujtPmj6xrMBz92vrICJxmQ6P/yDgZlcLIqSZTyxZcMyU8amQqTTsc2cchDHTwORmIZliwKTNxYnCVFvK7rHv3L2qvbP+1FOuvO7iq7n19Xt/wCpuXhkI4r722WHw80NDACREU1lYU3XFsfPtGXtpp780UUT2EoJ0YBrgTly4wmTBuECZKWI5a860C+bOJCCZdP05vZBRcsSUcLqfP2kJgesd7a6aWCmRzCQaTE/99WYO9syE3iWSnKUmXGbrtM+uKf/8iUsUuNmVagZeIiWqRg1wMwFLTajMlbZTin4t6aygqLDCZF3W7atNTAh0HHzmuV+2tddfd9HV37rs2tauNsj2rXjN6sDYGEVRUR85XIfA8h87dmE6kakKlBBBWiJ+6fz14lT1PNn0zokldOaUNWOl/PGQ6T2zpp4yZRJhrWTErJ7nr2of2idr+eSxiwg17+nwVCT8utiSSc4Q0sjCyEirC2S8KlZi6bBPrSy5ZMGchAqGqokbGUGIKCPnzp5+zJRxpg7L+Eg5qgzJldpWGkHT7J2Fmv3kLih7Y86JifGhYOvrr/8R+t/+6Fc4Jo3tJFL4/q6h8UXVoWDI+ZKFcwts9tIunyNjk0XnkFPFNngSy0mzpsTTKL8oVhVXqypYYk5YPrBgFnFZic2ipUk/xne6zbOOmDatosTR6SxNFmYjthlM85yIiaz2lX9Uzkbu+ileqYqXmLrMKIoTJtVifoi7TnEigyZpgqnZFeVnz52eDporYyU8D4lcZCkQP7MFyZbP4EC+UOWumH1ccnxz847nXrgL++xLH7qqzFeK5jnsuZ4fQ+OrS37CpAnTq0qdXc6idEEW3Bx6Tjv+EQIMoSrp1dmcZsO71ys/IOYJf7DQ67SfO2c6+KKCKbxoLonEmJpU4n/X9InpkKk8JpJ7+OvSZREHXKwmspD1k+YCFz/ldeNJoCGX8u7iRCz9nllTvA4HvZw25iknEBC97Jw505GNsohfw2q8q+kUul2CKqtV+Fgs/FR1qasz+yzNsSjm9ptK6na9+oP7vhOXg8msajK0n2vo/g17hV0jJ0+vJZ5gURxwpc4PFYnNJ/DkKyuZfZSrpFxOfc9kulsPdmxdb+tsCUWiueWnCXuT7mA4PH9C1eTt/n2dAafNpn0hCMLJUyeCSGHQK0PfHIUAiCCbtDtLFhxXU15tc7i4GQ92dm7fnCC4HHPJgNjDEGrUYbK5Q57qEvPRteNeqNtT4BSjEBEmJN2xteNnVJXa2jlwy5FbhRCEE4wAz5S5lZOm271FECSSS2j/zviWtRbcxCpQYjYTUdWZwrB7XHnVtq3rrrrlujuu/sVALpqh8SV84KRif5Wv0N2JwNiJLU82umUi2ozHvbOPKp2zOLfuisZP5tO+dUNs/Qq9LfhQfVjMhbECszczf1zVzvZONlcgWTIZ6nTMrC61Rm0FSRehObNtVrovInPZndWTJhx9st19aL+rzVnlKasK1k5rXvOiJRyS1tBTfmrRl/C0JKNH1VYv37mXRiINRE5ENi2YUJlJmosSBTyTKyMc/uEoKq467j3usgoj3ep0Oecs9o6fcvD1l9ItDdGExKvUFyAUpF3hcOSoKZN//dKqrkioxOvLRcD4PrR+oIRH1lSIUMSdRj8uJh9nJTod/jlZcKWxq0S51PeSWQv8sxcVuJwIj5GfRO5OOunyZ1WXMdwQYz6djifT08pLCV1sjTHOleMa9PMCrtNuLakc966zAPewLFQuheMnVR53uhydkZOFKCLUSdQ2vriopsgr4bxVrHS/2zW5tNgas2DSHbIWGKeg1q22mpPPBlyxinsu6XdRKb6SCaeck3G6GH8aBaEXgEOCjGNrzh8/fpCDz4fG1262ECncmjQ7M4ci3aMHXLRZj6/iyCVSbCS6pyeR3kT2YstGqcr5xyTdXlzXueUXDR21VRZ5VS8n6oGHZ5SXEB3aHXeglY3KUJMH1prjTiMFaodloXNJp7yV492TjqCm5a66pAvMmF0xB4I/pawEQ4Lqwv6qLfb5qK6YBHgysuALvUXJkccQMV2FCDd6aF5SBeHYdbujesmpzMIcEhM50TXlSjkwjedUlw0C4iC3sjwwZSbONIJKMfbv4Ys6hsvS2QtzZTOX6SygZkvZrEW5DifVQTMmsRC0jWBmKEat1aQOKEjGpjYKyUXZ3E6Hq6qW4PBZcHMz6HkGIauYuzjaEzFSJaMpkAWWL1gYxytKYvaiYTEmHEQF5tKvs/jJaolb7aVHzCcNoemTAy9boVc0YbLJ66cmdLlEehibpTnOB//toThRfV8fGl+f2+V3Ef5ddIMhWmBEZGI0IBRzZfOwDFSbdZVWRGKxnhIJuOgOu0Qfl7avPNMShLaykKUIPR2IpqI6JW/1BIErR3IOL4MYgnRHFreXoHg979FFpNjLhJ3gVoH8yJ1s0BXytDIWNT3ByGZzF0u3PGAOiigU3CUVnFCRrRiVSBGw7f0cpODIpmsGcv8Oja9qiGYGCLpXM15Wm8RUkXJ0X98MpK/tBZxUPvN7Zp9TLAF9SSUdDi/pvEgnMwT9XAq52SsvDyNy7Q+HNsZZdlDT02h4XFzmBYV9OexVENizqdMkDnvSIlHIGRPQCEZu/xJeNUb3bBUBNmoDduFbgnSrPHtxY/wUbtRROIdSVLVDCM2LR03dEuOfGLPUogCfAzO6MNbROhDx3FxQILklRE6lbqzm/R0BDAt+kE1riP3gyHHW4uZ1ZBa/VbSjVWp3cCnhye4uXjf0g3TCGMpWS0s4HIoncsuYy/DQ8huMxoLxmHLoHQKSbAqc9uCBfQLvAEMXKYDZ3HVgN+v3jc5H552yytha3lWeJzr3tjDuK9otQByqRArftX+PAqL/5qsnvqIECo8xNOtR3FKFFglubxLTmFcFVJMpEItQeYyGZd5AESR34iDHO9qSEbZaiCho9vr9G2ltZgWn5kPzzjgLsWMIw6ffV0gcGl9eDRF/2UZsORViXF9IXCzesW1DKsb0qkQ77pWBBp2w6IG6Tbyd+4AM+e2prmhMorurngeIA5FYiijqNhU7WV2k02uZQx2de+tEbar5gt6XyrZp/asye5FzUR8SbNeUbggE9SYQKg+3J7ZE3C7LBIyuhNLhXT24YSU89Csoki9zw1vWWlkphVtTlZT/yQ87HXEgmvsgu2CGxhfd8Mb+ZkzGqD1JWFuj5hE6WyLa8No/pWVp5pQIwKXu7uG4ac1LtiSBx2XRri4+yoGQ5zgu97R1dnRH0cKko2oIYo/TJ+5QCqfnghgrfFtWv5ToDqPrIS0Q9OTCU1Rt+/ZNmbZG1ItRhTBBD5Z0JVrD3bvbOnSUZf7uae9skMj2gJQdv0g+SlC6d28L1u+R7oQsZVm8Kog4dtMkRpl43/S6SEnPBdM4mSOcQW9KbWtq06Af4jvn29D4Yp/tbGuPxOMRR7fkathPssgwFm/cW//Ck0k5ZEg8KaIRUCX427ra9/3zb+F9O4iRDTc9aks2ZXfbENX0xgPNlAOCAE//0BAMHegMJt2cjaFCU+lL8E2nopF9z/yla/8ucezk5IL2b1q7vGXNSziGDHB5DyGImNgWn9rb0hmIsU3MQhboRx57q7HVbM/AALamAQJlQlYaVzzdunm1CKbMgKuCKD9PcG/dgRf+zsyGBA9VwqvZY0Afd8U7I5Hd7R0S6XuAa+jxMWb/ga7g5oaWRROqwtEonknBRbUR8gN3c8v+Xcv+VDhphremFkMHVsINezt3bXOYM3httCwIx1otmlLhou7GQJDA0S7YUsDTrcfj8dV7GqZVFAcc4Yp4sfa3Cs+E1aaFdncdfHlZ1/gpRROni0VB1TYdGRK7TAAAB9FJREFUCO3daY2H0Ym9xIfyBwroyxKv7q6nfchd9QQorNnfcPKMiRm3uTDkIdWoSFkXn0oF31wb3L/TN2WOwyerPmLBznD97ujBfUrDZjWvKji2lKXTHs640xuY+4tGsYoHgHc48xdi5pn+8dauOTVlna6QJ4xRdUjhwHk4QijxRGzP1tCOzfxEfDF6UvFYuKcWNLhwwMjtoCNgdWRe2rC3KxbHmyNxZlU7ZAL49X0H8J+N81qiHXFcoIcGGtLLixK0Ne5tadyrzq8juqoonm4JzivZcAEWFU8WQfYFFqQ272ve3NTiYVJVtR6yoCES+3zlzvpTj5jcGQ2XJL24eHjLKA5NzZlqC7yxQrKTAK7iq1JqoTd8vBgqDHeEI89s2+kt8Pe5fwjtofUDupNR9s72jue37bYWZVqcnfgismXSBVM7r4ORKJM0OINgiO+qoR3Khp+UvMMWihXFdjV3vLa3HkBFKetlatxV8yOPvbGVwOXN3nYtXPzNYgctZcOhK8kCkxHPHF9yy63EyhwzJ9oLu1DlT23bwbBFmAAkXQeZDFp42ba65mA4WBTqtsRUlHRDCsgqA2VQhjIfvohaP7wg/MQ4afJ0EEv86S07OyJR0T8Dmg/DsB/IVcmXdenWuo37m+JFsSbmYZTg69Ir/kUMjcv4bgCM5zdkjQSKgoFY9Dcr14o9LZP8YjnwFjBRiwyRNzY2L9283ezONHradElENBREQqpXLpLQU9E4HTIWbC/qhqNdHlqzaXdbJwMKIa7qWTJSKiIQjT2weiNT3S2FHVSGNgd1PWlqqjnpK6tw5YfKG2EXcJ0d5qL0ih37Xtq5J+ui6pEDo7zGl6HlFx0vS8ZVE7vv9Q0Hu0Lxkmijqw0filUCMfeUUJE81DWpn8ITx5GarG22YHtxIJpK3L1iXVt3hKaK8Gq3gLzVI+oeu+1vW7av3n3A6svUe5uT5pQNoezJ4xCaBvs6CxOdli1iix/wtVrcmYfXbFm1r97r5KRnkase1IRPUnB6bDnY8uDqTQhgo781bI0iK1pLGA8LS6rNZ99VP/Hqw8gBT0umOLG5vvkP6zaJR02k7xD/OXxlvw6NL3kAhOgv1YR/+cLKzQ3NeFgbfa0he8TGWirsK6XFJLOcv3QC3I1bkw3u1mhpd1Mw9Ovlq+pa2ykh1HJZIQtRkWpxAw3ld2veeHLjdovb1FTc3mrvgjjin625Ho0gGbHpmWh4HI6N2Do72vwdaWv6wdWbn9u+Uy20kMuoOYFM6Qogxunz2r76O15Zm8ykOosDyErCnLKbcIkIGrlFkLdU7nxBuR3wt5oL0y/X7bvj1TViW6DxRUpUFzrANYT9kFv5BsS3r1h97uwZp0yfZCoJhrsj7pgLT51VoifKqTU0Kj6MncL2SNQRTbgTTL29se/gH9dtpqtl/YMWK60ZDK50LWpE4OnRTdvqO4MXLDjCXJxJxuOObidZ2FOE7hPzi7dkUQA+Jmu02x6LefDpmg60dT28fsu25lYkV4NrtA+dixBXwxnu0lA2HGi88YXuSxfNnVzub0unHGG7M+HANy3neyozUC8KiFkSEZtkkXamuyOxp9bueG77LoSA0ho8S60cXpdGuYbAV6Ng1A/QKIvH9NimrSv37D971rS54yri/ng3di3TlWmzLcV8T5qxKZXL2JF1CDubOv65fffmxmZedNPp9wzhc90Fh8qvpJhM3Xbr6v31W5qaT5k66bip40t97ggmbMpCvQnKLH1jhM2OJVsqlk4eDISW1+1DJ2AOsp4KJnVpB8mCHJHx+s7AjS+snFdTeeqMSRNLfU6rLcxMN6VIyOJMikJZMhic5hT92Oq6huW79jJmoRRSwUiu2s6nr9yGYoDLl774qmauLqNajJe1RPCTNk5Ov1+9sexNz7Sy0pmVJVU+L/qIxkLhktE0ffS+tsBbLW1MspFCYaDGF+3BgvhADOksyBzXIt3gsq11lGpqafHsqvIaf6HXpfZcw2Dc1BYKMySpa2nf2dbB2AGDRKsFMjL4zC2q8V3zADMy52YyrTvQuLGhidnVudUV1T5vSYGbgiANHA8YisTawpGtjW3bW1uBmG7DUG5CRGkF+BGWevpqjZuRV198s7ekDKopnTj32PV3vsRCWOlCe/oibmkugYDTD0nHhoMnTtTApKVuWWZA54KkwSs6Ezqabq/sDT5yv2joJQs1E4/IM8dDJg6LRU5EUcdKQBBpxR2ApJGurBEY7PFvDawQdUZGFnyRlq4msOGckbrOhdkDFgwyeiRrXmGEKa4SNQltvAsY5Kn20cmadQAxsDaK0xffbFWwjlU2p9DhOj3Tx03tF4h3EjUCjP2oawwMHH7YWlqc9a2+9oPsbGHZ5aZdW1hlzQmQurregXIQBGi67OHnL4cXg3Xuk33ll0aWZgP1N+/7ISfDlxT6efodiAcBl1tqrZuZaDD3LLvf5+Us3EPjub74SgfFamwOgb/m9q+J/afV+OA5vHNXSSGnVWijwpDIvvjKc6hdtnKpI3rfufJAgB6rl2nUD77QEw2tltXkQfudRxUCvXRp3/7tHZzGEoHD5Bfssyac8m68c40GAQ3mYfgS5pEQ4Ax/cnvA0eTxf/ldzNxodyh7PoELQ9duI/xEIBRgqKJ9SP+X0Rl92ZFfop4chu/oib5DoRcC/w8w1GwrYO4stwAAAABJRU5ErkJggg==;rotation=0;" parent="yLigq-ZPrXEUfFZHBqXG-1" vertex="1">
          <mxGeometry x="2" y="2" width="137" height="203.74" as="geometry" />
        </mxCell>
        <mxCell id="yLigq-ZPrXEUfFZHBqXG-3" value="" style="ellipse;whiteSpace=wrap;html=1;aspect=fixed;fillColor=none;strokeColor=#d6b656;strokeWidth=3;rotation=0;" parent="yLigq-ZPrXEUfFZHBqXG-1" vertex="1">
          <mxGeometry x="18" y="158" width="30" height="30" as="geometry" />
        </mxCell>
        <mxCell id="yLigq-ZPrXEUfFZHBqXG-4" value="" style="ellipse;whiteSpace=wrap;html=1;aspect=fixed;fillColor=none;strokeColor=#d6b656;strokeWidth=3;rotation=0;" parent="yLigq-ZPrXEUfFZHBqXG-1" vertex="1">
          <mxGeometry x="55" y="158" width="30" height="30" as="geometry" />
        </mxCell>
        <mxCell id="yLigq-ZPrXEUfFZHBqXG-5" value="" style="ellipse;whiteSpace=wrap;html=1;aspect=fixed;fillColor=none;strokeColor=#d6b656;strokeWidth=3;rotation=0;" parent="yLigq-ZPrXEUfFZHBqXG-1" vertex="1">
          <mxGeometry x="95" y="159" width="30" height="30" as="geometry" />
        </mxCell>
        <mxCell id="yLigq-ZPrXEUfFZHBqXG-6" value="" style="ellipse;whiteSpace=wrap;html=1;aspect=fixed;rotation=-90;" parent="yLigq-ZPrXEUfFZHBqXG-1" vertex="1">
          <mxGeometry x="30" y="29" width="80" height="80" as="geometry" />
        </mxCell>
        <mxCell id="yLigq-ZPrXEUfFZHBqXG-7" style="edgeStyle=orthogonalEdgeStyle;shape=connector;curved=0;rounded=1;orthogonalLoop=1;jettySize=auto;html=1;strokeColor=#00FF00;strokeWidth=10;align=center;verticalAlign=middle;fontFamily=Helvetica;fontSize=11;fontColor=default;labelBackgroundColor=default;startFill=0;endArrow=none;" parent="1" source="yLigq-ZPrXEUfFZHBqXG-5" edge="1">
          <mxGeometry relative="1" as="geometry">
            <mxPoint x="285" y="150" as="targetPoint" />
            <Array as="points">
              <mxPoint x="890" y="550" />
              <mxPoint x="890" y="90" />
              <mxPoint x="285" y="90" />
            </Array>
            <mxPoint x="800" y="550" as="sourcePoint" />
          </mxGeometry>
        </mxCell>
        <mxCell id="62kFi7w3qv66KEbBx7CK-171" style="edgeStyle=orthogonalEdgeStyle;shape=connector;curved=0;rounded=1;orthogonalLoop=1;jettySize=auto;html=1;strokeColor=#FF8000;strokeWidth=10;align=center;verticalAlign=middle;fontFamily=Helvetica;fontSize=11;fontColor=default;labelBackgroundColor=default;startFill=0;endArrow=none;" parent="1" source="yLigq-ZPrXEUfFZHBqXG-3" edge="1">
          <mxGeometry relative="1" as="geometry">
            <mxPoint x="230" y="140" as="targetPoint" />
            <Array as="points">
              <mxPoint x="630" y="550" />
              <mxPoint x="630" y="70" />
              <mxPoint x="230" y="70" />
            </Array>
            <mxPoint x="705" y="529" as="sourcePoint" />
          </mxGeometry>
        </mxCell>
        <mxCell id="62kFi7w3qv66KEbBx7CK-170" style="edgeStyle=orthogonalEdgeStyle;shape=connector;curved=0;rounded=1;orthogonalLoop=1;jettySize=auto;html=1;strokeColor=#FF0000;strokeWidth=10;align=center;verticalAlign=middle;fontFamily=Helvetica;fontSize=11;fontColor=default;labelBackgroundColor=default;startFill=0;endArrow=none;" parent="1" source="62kFi7w3qv66KEbBx7CK-168" target="yLigq-ZPrXEUfFZHBqXG-4" edge="1">
          <mxGeometry relative="1" as="geometry">
            <mxPoint x="815" y="529" as="targetPoint" />
            <Array as="points">
              <mxPoint x="880" y="710" />
              <mxPoint x="880" y="600" />
              <mxPoint x="757" y="600" />
            </Array>
            <mxPoint x="779.9899999999999" y="759.0100000000001" as="sourcePoint" />
          </mxGeometry>
        </mxCell>
        <mxCell id="f86cPZFn6lTEU8emJ52W-1" value="" style="group;rotation=-90;flipV=1;" parent="1" vertex="1" connectable="0">
          <mxGeometry x="-180" y="130" width="125.63" height="146.71" as="geometry" />
        </mxCell>
        <mxCell id="f86cPZFn6lTEU8emJ52W-2" style="rounded=0;orthogonalLoop=1;jettySize=auto;html=1;entryX=0;entryY=1;entryDx=0;entryDy=0;endArrow=none;endFill=0;" parent="f86cPZFn6lTEU8emJ52W-1" source="f86cPZFn6lTEU8emJ52W-6" target="f86cPZFn6lTEU8emJ52W-5" edge="1">
          <mxGeometry relative="1" as="geometry" />
        </mxCell>
        <mxCell id="f86cPZFn6lTEU8emJ52W-3" style="rounded=0;orthogonalLoop=1;jettySize=auto;html=1;endArrow=none;endFill=0;" parent="f86cPZFn6lTEU8emJ52W-1" source="f86cPZFn6lTEU8emJ52W-7" target="f86cPZFn6lTEU8emJ52W-5" edge="1">
          <mxGeometry relative="1" as="geometry" />
        </mxCell>
        <mxCell id="f86cPZFn6lTEU8emJ52W-4" value="" style="ellipse;whiteSpace=wrap;html=1;fillColor=#333333;rotation=-90;" parent="f86cPZFn6lTEU8emJ52W-1" vertex="1">
          <mxGeometry x="-11" y="24.92244930826395" width="96.7884273742246" height="96.78755069173609" as="geometry" />
        </mxCell>
        <mxCell id="f86cPZFn6lTEU8emJ52W-5" value="" style="ellipse;whiteSpace=wrap;html=1;fillColor=#FFFFFF;aspect=fixed;rotation=-90;" parent="f86cPZFn6lTEU8emJ52W-1" vertex="1">
          <mxGeometry x="29" y="63.56273456145587" width="18.147265438544164" height="18.147265438544164" as="geometry" />
        </mxCell>
        <mxCell id="f86cPZFn6lTEU8emJ52W-6" value="" style="ellipse;whiteSpace=wrap;html=1;fillColor=#FFFFFF;aspect=fixed;strokeColor=#FF8000;rotation=-90;" parent="f86cPZFn6lTEU8emJ52W-1" vertex="1">
          <mxGeometry x="86" y="24.56273456145587" width="18.147265438544164" height="18.147265438544164" as="geometry" />
        </mxCell>
        <mxCell id="f86cPZFn6lTEU8emJ52W-7" value="" style="ellipse;whiteSpace=wrap;html=1;fillColor=#FFFFFF;aspect=fixed;strokeColor=#FF8000;rotation=-90;" parent="f86cPZFn6lTEU8emJ52W-1" vertex="1">
          <mxGeometry x="86" y="103.56273456145587" width="18.147265438544164" height="18.147265438544164" as="geometry" />
        </mxCell>
        <mxCell id="f86cPZFn6lTEU8emJ52W-8" value="+" style="text;html=1;align=center;verticalAlign=middle;resizable=0;points=[];autosize=1;strokeColor=none;fillColor=none;fontSize=20;rotation=-90;" parent="f86cPZFn6lTEU8emJ52W-1" vertex="1">
          <mxGeometry x="76" y="31.710000000000036" width="40" height="40" as="geometry" />
        </mxCell>
        <mxCell id="f86cPZFn6lTEU8emJ52W-9" value="-" style="text;html=1;align=center;verticalAlign=middle;resizable=0;points=[];autosize=1;strokeColor=none;fillColor=none;fontSize=23;rotation=-90;" parent="f86cPZFn6lTEU8emJ52W-1" vertex="1">
          <mxGeometry x="78" y="73.71000000000004" width="30" height="40" as="geometry" />
        </mxCell>
        <mxCell id="f86cPZFn6lTEU8emJ52W-10" style="edgeStyle=orthogonalEdgeStyle;shape=connector;curved=0;rounded=1;orthogonalLoop=1;jettySize=auto;html=1;strokeColor=#000000;strokeWidth=10;align=center;verticalAlign=middle;fontFamily=Helvetica;fontSize=11;fontColor=default;labelBackgroundColor=default;startFill=0;endArrow=none;" parent="1" source="62kFi7w3qv66KEbBx7CK-131" target="f86cPZFn6lTEU8emJ52W-7" edge="1">
          <mxGeometry relative="1" as="geometry">
            <mxPoint x="-90" y="336" as="targetPoint" />
            <Array as="points">
              <mxPoint x="53" y="390" />
              <mxPoint x="-79" y="390" />
            </Array>
            <mxPoint x="100" y="250" as="sourcePoint" />
          </mxGeometry>
        </mxCell>
        <mxCell id="62kFi7w3qv66KEbBx7CK-148" style="edgeStyle=orthogonalEdgeStyle;shape=connector;curved=0;rounded=1;orthogonalLoop=1;jettySize=auto;html=1;strokeColor=#0000FF;strokeWidth=10;align=center;verticalAlign=middle;fontFamily=Helvetica;fontSize=11;fontColor=default;labelBackgroundColor=default;startFill=0;endArrow=none;exitX=0.5;exitY=1;exitDx=0;exitDy=0;entryX=0.578;entryY=0.028;entryDx=0;entryDy=0;entryPerimeter=0;" parent="1" source="62kFi7w3qv66KEbBx7CK-69" target="62kFi7w3qv66KEbBx7CK-79" edge="1">
          <mxGeometry relative="1" as="geometry">
            <mxPoint x="160" y="80" as="targetPoint" />
            <Array as="points">
              <mxPoint x="624" y="221" />
              <mxPoint x="580" y="220" />
              <mxPoint x="580" y="110" />
              <mxPoint x="320" y="110" />
            </Array>
            <mxPoint x="716.0000000000268" y="90" as="sourcePoint" />
          </mxGeometry>
        </mxCell>
        <mxCell id="ZloyNUf51vB2xr-uuzdY-7" value="" style="group;rotation=-90;" vertex="1" connectable="0" parent="1">
          <mxGeometry x="-180" y="431" width="95.07726543854423" height="150" as="geometry" />
        </mxCell>
        <mxCell id="ZloyNUf51vB2xr-uuzdY-6" value="" style="shape=image;verticalLabelPosition=bottom;labelBackgroundColor=default;verticalAlign=top;aspect=fixed;imageAspect=0;image=data:image/png,iVBORw0KGgoAAAANSUhEUgAAACYAAABBCAIAAAAyrkEbAAAI5UlEQVRYCe2ZX0iabxvHPXxX+aj5L5tlakpaokVNKhrbKDY2xn4Qo5PFKGKMwQ7GDiLGyxshLzFiRBgiokQidlBMxGBMZig1nEGFtcLM/kj5L0sf9Unt6EXvFKeW9uOto9/3xBuv674+93U9l/d984iKx+Pn5+ehUOjnz5/j4+MikWhkZGR4ePjf+TQ8PCwSif77p0ZGRv6TVO4M4D86OqpQKDwez3lSqGhSNptNKBTSaDTqzaiqqmp+fj4UCsViMdTZ2Znb7VYoFJWVlUQikXBj6uvrs1qt0Wg0gTSbzc+ePbsx1kVgLpcrl8thGEadnJyIxWIajXbTSCKR2Nvbu729jfr161d3d/dN80B8gUAgFotRQ0NDdDr9dpBkMvnp06eoN2/eUCgUPB5/C1Q8Ht/V1YUaGBggkUjY29IFkkAgoNHospsXBEGdnZ2JLP9B/l+rfVHY169fF1lYLBZLIpEoFMrdDFVWVlZUVODx+GK6AYKghw8fol69elVwAgRBBAKBSqWy2WwejycQCBpT4vP5HA6HTqeDtocg6Iq6QBD04MGDAkg0Go3BYMhkcn19vUAgaPpTKW7ik8/nV1dXX736opBYLJZKpTY0NDQ2NjY1NbW1tT1Iqr29XSgUNjU1ZVGZTCaRSLws0cJICILu3r3L4XAaGxubm5vv37/f0dHR2tp67969lpaW5ubmTB4Y83g8BoOBw+HyPtoCSDQaTSKR2Gw2qKdQKASZ5SVlsuvr66lUat6HWgAJQRCDweDxeCBFoVBYEAbAAoGAw+HkTbQAEoPBcLnczOUXP+bz+RQKBYPBZD3Uq5AQBJHJZNA1xZPSngKBgMFglJeXXxsJqpoOVPzg7yAxGExFRQWXy8381ReP5PP5NTU1OBzuGlkCJJvN5vP5xZOAp0AgAE2LxWKvgYQgiEgkMhgMsOlci8rj8dhsdmVl5bWROByOTqez2exrUXk8Xl1dHZPJJJPJl3ZsX19f3pMEgiAajVZbW1skVSAQNDQ01NXVsVgs0K65uwEEQY8ePbr0VoBGoykUCp1OB1Qul8vj8fh8fm5DCQQCHo9XX18PeEwms7q6OjfFsrKyAhcRNBoN9nQmk1mbVF1dHZfLbWhoAGx+UgDG4XBYLBZwo9FoJBIpN8XCSNBsRCIRlBeEq62tZbFYbDa7LqU0CTgwGAwKhZKXVywSbO4MBiONvHqQt1HTP5UChc30w+PxVVVV6QrnpdbU1ICLQd5jC0QrFllWVoZGo8vLy8lkMpVKBQ2VpjIYjOrqanDfv6yemau/xj22tLS0rKwMh8ORyWRKhsBdC4KgkpKSdOjLBtfIMh2itLT0zp07/0rqTkolJSVgQWm3ywZ/B3lZrCK//wdZZKGu63ZR2P7+/qvvu9eNe4X/xbbe29t7m8j29nbUy5cvbxPZ2tqKevv2LZVKvWKXuqJQ1zVhMJiOjg7U7OxsW1vb7SDxePxff/2FCgQCIpEIj8djsVgcDkckEslkMoFAKE+KQCCQSCTynyISicCKx+OJRGJFRUWmPcsKooG3HywW6/Pnz6h4PG6z2QYHB1taWp4/f65UKvV6vVQq7U1qfHxcq9UaUlpcXNTr9TKZDFjfvXsnl8uXlpZMJlPKxaBWq4H1/fv3U1NTP378kMlkjx8/7ujoEIvFx8fHCSSCIG632263HxwcBAIBv9+/urr6OSmz2exyuU5TCgaDx8fHa2trwKrT6fb29kKhUCAQSLmc7uzsAOv09PTGxgYMwycnJ3t7ew6Hw+/3J95UxmIx8Eo2+a70PB6PB4PB9fV1SVJbW1swDJ+lFI1GQ6GQ3W4H1qWlJZ/PF4vFUvbEp9vtnpqakkqlX79+3d3dzY2feFMZjUZjKUUiEafTaTAYJBKJQqHY29uLRCKZEWEYttlsALm4uOh2u6PRaKbD8fGxVquVyWRqtdpqtcIwnBn/4uVoekI4HD48PDQajXK5XCaT6XQ6j8eTtoIBDMNbW1sAaTKZXC5XlkMgEFhZWZmenpZIJBqNZnNzMxwOZ/oksgRCEGRjY0Oj0cjlcqlUqlQqt7e3g8Fgyn7xWRAZiUR8Pp9WqwXrVqvVRqMxEAik4ySQCIL4/X6LxTI7Owt4Go3G4XAEAgEEQdKuYFAQeXZ2Fg6HXS7XwsICeKjT09Mmk+no6Aikm0DCMLyzs6NUKkFyBoPB4XCEQqEsWPFIkIbL5bJYLHNzc6AtlpeXfT7f2dlZAunz+cxms0QikcvlYDm5yaXxxWSZdvb7/WtrayqVSiqVajSa3d3dC+TBwYFOp5NKpWq1+vDwMD0h7yAQCGxuboL2MRqNue2TNcvv95tMJoVCIZfL19fXEQRBwTD8+/fvmZkZqVQ6MzNjs9kyH3XWfARBvF6vxWIByPn5+bwtlp4F/BcWFuRyuUQiWVxc9Hq9KLfbvby8DHJXqVRWq9Xlcl1GPT093d/fX1paAkiNRrO2tuZ2uzO3i0ze6empw+EwGAwAubCw4HQ6UU6n02g0Tk5OSiSSsbExg8Fgt9s9Hk/u40QQxOPxbGxsfPv2DSDFYrFer3c6nV6vN9cfhmGPx2O1WkFjSiSSmZmZnz9/ohwOh06nGx4eFovFHz58UCgUKysrHo8n6/cLWt/r9S4vLyuVSoAE27rD4XC5XLnIYDDo8XhWVlaGhobEYrFEIhkZGZmcnETt7OyoVKqPHz+OjY319/eLRCKLxQLDcG6ISCQCw/Dq6urk5OSXpLq7u0Uikd1uz90xwBJBo/T29o6Ojn758mVgYGBwcBCFIIhGo+ns7Hzx4kVjY+PU1JTX643H41k7J9iK4/G43+/XarVdXV1PnjxpbW1VqVRg477M3+12f/r0qaenp7Ozs6enZ25uLnF4+Xw+o9E4MTGh0WiOjo6i0egVyGg06vV6v3//PjExodfrwf91V/sfHh7qdDqlUmk2m09PTxPIeDweDof39/cDgQBYctZ5lG7CtDUYDB4cHMAwDKbnppg+oM7PEwei3+8H/XF+fp74MzHrvIzFYnlDpKPk+qfXlDUAx1baH6zvf3/Od/hXhrn/AAAAAElFTkSuQmCC;rotation=-90;" vertex="1" parent="ZloyNUf51vB2xr-uuzdY-7">
          <mxGeometry x="4" width="87.69" height="150" as="geometry" />
        </mxCell>
        <mxCell id="ZloyNUf51vB2xr-uuzdY-3" value="" style="ellipse;whiteSpace=wrap;html=1;fillColor=#FFFFFF;aspect=fixed;strokeColor=#FF8000;rotation=-180;" vertex="1" parent="ZloyNUf51vB2xr-uuzdY-7">
          <mxGeometry x="103" y="104" width="18.147265438544164" height="18.147265438544164" as="geometry" />
        </mxCell>
        <mxCell id="ZloyNUf51vB2xr-uuzdY-4" value="" style="ellipse;whiteSpace=wrap;html=1;fillColor=#FFFFFF;aspect=fixed;strokeColor=#FF8000;rotation=-180;" vertex="1" parent="ZloyNUf51vB2xr-uuzdY-7">
          <mxGeometry x="103" y="65" width="18.147265438544164" height="18.147265438544164" as="geometry" />
        </mxCell>
        <mxCell id="ZloyNUf51vB2xr-uuzdY-5" value="" style="ellipse;whiteSpace=wrap;html=1;fillColor=#FFFFFF;aspect=fixed;strokeColor=#FF8000;rotation=-180;" vertex="1" parent="ZloyNUf51vB2xr-uuzdY-7">
          <mxGeometry x="103" y="27" width="18.147265438544164" height="18.147265438544164" as="geometry" />
        </mxCell>
        <mxCell id="ZloyNUf51vB2xr-uuzdY-8" style="edgeStyle=orthogonalEdgeStyle;shape=connector;curved=0;rounded=1;orthogonalLoop=1;jettySize=auto;html=1;strokeColor=#000000;strokeWidth=10;align=center;verticalAlign=middle;fontFamily=Helvetica;fontSize=11;fontColor=default;labelBackgroundColor=default;startFill=0;endArrow=none;exitX=0.5;exitY=1;exitDx=0;exitDy=0;entryX=0;entryY=0.5;entryDx=0;entryDy=0;" edge="1" parent="1" source="62kFi7w3qv66KEbBx7CK-132" target="ZloyNUf51vB2xr-uuzdY-3">
          <mxGeometry relative="1" as="geometry">
            <mxPoint x="-71" y="547" as="targetPoint" />
            <Array as="points">
              <mxPoint x="88" y="544" />
            </Array>
            <mxPoint x="67" y="654" as="sourcePoint" />
          </mxGeometry>
        </mxCell>
        <mxCell id="ZloyNUf51vB2xr-uuzdY-10" style="edgeStyle=orthogonalEdgeStyle;shape=connector;curved=0;rounded=1;orthogonalLoop=1;jettySize=auto;html=1;strokeColor=#FF33FF;strokeWidth=10;align=center;verticalAlign=middle;fontFamily=Helvetica;fontSize=11;fontColor=default;labelBackgroundColor=default;startFill=0;endArrow=none;exitX=0;exitY=0.5;exitDx=0;exitDy=0;" edge="1" parent="1" source="ZloyNUf51vB2xr-uuzdY-5">
          <mxGeometry relative="1" as="geometry">
            <mxPoint x="423" y="156" as="targetPoint" />
            <Array as="points">
              <mxPoint x="-30" y="467" />
              <mxPoint x="-30" y="30" />
              <mxPoint x="423" y="30" />
            </Array>
            <mxPoint x="-9" y="167" as="sourcePoint" />
          </mxGeometry>
        </mxCell>
      </root>
    </mxGraphModel>
  </diagram>
</mxfile>
